{
.appVersion = "3134";
.formatVersion = 3;
classes = (
{
code = "A Aacute Abreve Acircumflex Adieresis Agrave Amacron Aogonek Aring Atilde AE B C Cacute Ccaron Ccedilla Cdotaccent D Eth Dcaron Dcroat E Eacute Ecaron Ecircumflex Edieresis Edotaccent Egrave Emacron Eogonek F G Gbreve Gdotaccent H Hbar I Iacute Icircumflex Idieresis Idotaccent Igrave Imacron Iogonek J K L Lacute Lcaron Ldot Lslash M N Nacute Ncaron Ntilde Eng O Oacute Ocircumflex Odieresis Ograve Ohungarumlaut Omacron Oslash Otilde OE P Thorn Q R Racute Rcaron S Sacute Scaron Scedilla T Tbar Tcaron U Uacute Ucircumflex Udieresis Ugrave Uhungarumlaut Umacron Uogonek Uring V W Wacute Wcircumflex Wdieresis Wgrave X Y Yacute Ycircumflex Ydieresis Ygrave Z Zacute Zcaron Zdotaccent A_E A_O C_H C_Q D_E E_A Eacute_E E_S E_U E_T_E F_F_E F_V I_E I_L L_E L_L_E L_U M_P N_A N_E N_N_E O_F O_T_E O_Idieresis P_M R_E R_I_C_E R_S S_E S_L S_S_E S_T_E_S T_E T_T_E U_E U_L_L_E X_C_E X_L X_S_E X_S_S ";
name = Uppercase;
}
);
customParameters = (
{
name = panose;
value = (
0,
0,
10,
0,
0,
0,
0,
0,
0,
0
);
},
{
name = unicodeRanges;
value = (
0,
1,
2
);
},
{
name = codePageRanges;
value = (
"1252",
"1250",
"1254",
"1257",
"bit 29"
);
},
{
name = blueScale;
value = 0.037;
},
{
name = glyphOrder;
value = (
.notdef,
A,
Aacute,
Abreve,
Acircumflex,
Adieresis,
Agrave,
Amacron,
Aogonek,
Aring,
Atilde,
AE,
B,
C,
Cacute,
Ccaron,
Ccedilla,
Cdotaccent,
D,
Eth,
Dcaron,
Dcroat,
E,
Eacute,
Ecaron,
Ecircumflex,
Edieresis,
Edotaccent,
Egrave,
Emacron,
Eogonek,
F,
G,
Gbreve,
Gcommaaccent,
Gdotaccent,
H,
Hbar,
I,
IJ,
Iacute,
Icircumflex,
Idieresis,
Idotaccent,
Igrave,
Imacron,
Iogonek,
J,
K,
Kcommaaccent,
L,
Lacute,
Lcaron,
Lcommaaccent,
Ldot,
Lslash,
M,
N,
Nacute,
Ncaron,
Ncommaaccent,
Eng,
Ntilde,
O,
Oacute,
Ocircumflex,
Odieresis,
Ograve,
Ohungarumlaut,
Omacron,
Oslash,
Otilde,
OE,
P,
Thorn,
Q,
R,
Racute,
Rcaron,
Rcommaaccent,
S,
Sacute,
Scaron,
Scedilla,
Scommaaccent,
T,
Tbar,
Tcaron,
Tcedilla,
uni021A,
U,
Uacute,
Ucircumflex,
Udieresis,

glyphs = (
{
glyphname = .notdef;
layers = (
{
hints = (
{
horizontal = 1;
place = (0, 50);
place = (0, 50);
type = Stem;
},
{
horizontal = 1;
place = (650, 50);
place = (650, 50);
type = Stem;
},
{
place = (0, 50);
place = (0, 50);
type = Stem;
},
{
place = (450, 50);
place = (450, 50);
type = Stem;
}
);
layerId = m01;
shapes = (
{
closed = 1;
nodes = (
(0,0,l),
(500,0,l),
(500,700,l),
(0,700,l)
);
},
{
closed = 1;
nodes = (
(250,395,l),
(80,650,l),
(420,650,l)
);
},
{
closed = 1;
nodes = (
(280,350,l),
(450,605,l),
(450,95,l)
);
},
{
closed = 1;
nodes = (
(80,50,l),
(250,305,l),
(420,50,l)
);
},
{
closed = 1;
nodes = (
(50,605,l),
(220,350,l),
(50,95,l)
);
}
);
width = 500;
}
);
note = ".notdef";
},
{
glyphname = A;
kernLeft = A;
kernRight = A;
layers = (
{
hints = (
{
horizontal = 1;
place = (0, 21);
target = up;
type = BottomGhost;
},
{
horizontal = 1;
place = (179, 140);
place = (179, 140);
type = Stem;
},
{
horizontal = 1;
place = (690, -20);
target = down;
type = TopGhost;
},
{
place = (4, 718);
place = (4, 718);
type = Stem;
},
{
horizontal = 1;
place = (531, 159);
place = (531, 159);
type = Stem;
}
);
layerId = m01;
shapes = (
{
closed = 1;
nodes = (
(468,179,l),
(526,0,l),
(722,0,l),
(473,690,l),
(253,690,l),
(4,0,l),
(195,0,l),
(253,179,l)
);
},
{
closed = 1;
nodes = (
(361,531,l),
(425,319,l),
(297,319,l)
);
}
);
width = 707;
}
);
note = A;
unicode = 65;
},
{
glyphname = Aacute;
kernLeft = A;
kernRight = A;
layers = (
{
hints = (
{
horizontal = 1;
place = (0, 21);
target = up;
type = BottomGhost;
},
{
horizontal = 1;
place = (179, 140);
place = (179, 140);
type = Stem;
},
{
horizontal = 1;
place = (690, -20);
target = down;
type = TopGhost;
},
{
horizontal = 1;
place = (735, 125);
place = (735, 125);
type = Stem;
},
{
place = (4, 718);
place = (4, 718);
type = Stem;
},
{
horizontal = 1;
place = (531, 159);
place = (531, 159);
type = Stem;
}
);
layerId = m01;
shapes = (
{
closed = 1;
nodes = (
(405,735,l),
(560,860,l),
(400,860,l),
(309,735,l)
);
},
{
closed = 1;
nodes = (
(468,179,l),
(526,0,l),
(722,0,l),
(473,690,l),
(253,690,l),
(4,0,l),
(195,0,l),
(253,179,l)
);
},
{
closed = 1;
nodes = (
(361,531,l),
(425,319,l),
(297,319,l)
);
}
);
width = 707;
}
);
note = Aacute;
unicode = 193;
},
{
glyphname = Abreve;
kernLeft = A;
kernRight = A;
layers = (
{
hints = (
{
horizontal = 1;
place = (0, 21);
target = up;
type = BottomGhost;
},
{
horizontal = 1;
place = (179, 140);
place = (179, 140);
type = Stem;
},
{
horizontal = 1;
place = (690, -20);
target = down;
type = TopGhost;
},
{
horizontal = 1;
place = (728, 132);
place = (728, 132);
type = Stem;
},
{
place = (228, 90);
place = (228, 90);
type = Stem;
},
{
place = (408, 90);
place = (408, 90);
type = Stem;
},
{
horizontal = 1;
place = (531, 159);
place = (531, 159);
type = Stem;
}
);
layerId = m01;
shapes = (
{
closed = 1;
nodes = (
(434,728,o),
(498,761,o),
(498,860,c),
(408,860,l),
(406,829,o),
(392,813,o),
(363,813,cs),
(334,813,o),
(320,829,o),
(318,860,c),
(228,860,l),
(228,761,o),
(291,728,o),
(363,728,cs)
);
},
{
closed = 1;
nodes = (
(468,179,l),
(526,0,l),
(722,0,l),
(473,690,l),
(253,690,l),
(4,0,l),
(195,0,l),
(253,179,l)
);
},
{
closed = 1;
nodes = (
(361,531,l),
(425,319,l),
(297,319,l)
);
}
);
width = 707;
}
);
note = Abreve;
unicode = 258;
},
{
glyphname = Acircumflex;
kernLeft = A;
kernRight = A;
layers = (
{
hints = (
{
horizontal = 1;
place = (0, 21);
target = up;
type = BottomGhost;
},
{
horizontal = 1;
place = (179, 140);
place = (179, 140);
type = Stem;
},
{
horizontal = 1;
place = (690, -20);
target = down;
type = TopGhost;
},
{
horizontal = 1;
place = (735, 125);
place = (735, 125);
type = Stem;
},
{
place = (4, 718);
place = (4, 718);
type = Stem;
},
{
horizontal = 1;
place = (531, 159);
place = (531, 159);
type = Stem;
}
);
layerId = m01;
shapes = (
{
closed = 1;
nodes = (
(330,735,l),
(362,811,l),
(396,735,l),
(500,735,l),
(438,860,l),
(289,860,l),
(227,735,l)
);
},
{
closed = 1;
nodes = (
(468,179,l),
(526,0,l),
(722,0,l),
(473,690,l),
(253,690,l),
(4,0,l),
(195,0,l),
(253,179,l)
);
},
{
closed = 1;
nodes = (
(361,531,l),
(425,319,l),
(297,319,l)
);
}
);
width = 707;
}
);
note = Acircumflex;
unicode = 194;
},
{
glyphname = Adieresis;
kernLeft = A;
kernRight = A;
lastChange = "2022-11-29 10:01:14 +0000";
layers = (
{
hints = (
{
horizontal = 1;
place = (0, 21);
target = up;
type = BottomGhost;
},
{
horizontal = 1;
place = (179, 140);
place = (179, 140);
type = Stem;
},
{
horizontal = 1;
place = (690, -20);
target = down;
type = TopGhost;
},
{
horizontal = 1;
place = (722, 146);
place = (722, 146);
type = Stem;
},
{
place = (188, 150);
place = (188, 150);
type = Stem;
},
{
place = (388, 150);
place = (388, 150);
type = Stem;
},
{
horizontal = 1;
place = (531, 159);
place = (531, 159);
type = Stem;
}
);
layerId = m01;
shapes = (
{
closed = 1;
nodes = (
(468,179,l),
(526,0,l),
(722,0,l),
(473,690,l),
(253,690,l),
(4,0,l),
(195,0,l),
(253,179,l)
);
},
{
closed = 1;
nodes = (
(361,531,l),
(425,319,l),
(297,319,l)
);
},
{
closed = 1;
nodes = (
(189,724,l),
(339,724,l),
(339,871,l),
(189,871,l)
);
},
{
closed = 1;
nodes = (
(390,724,l),
(540,724,l),
(540,871,l),
(390,871,l)
);
}
);
width = 707;
}
);
note = Adieresis;
unicode = 196;
},
{
glyphname = Agrave;
kernLeft = A;
kernRight = A;
layers = (
{
hints = (
{
horizontal = 1;
place = (0, 21);
target = up;
type = BottomGhost;
},
{
horizontal = 1;
place = (179, 140);
place = (179, 140);
type = Stem;
},
{
horizontal = 1;
place = (690, -20);
target = down;
type = TopGhost;
},
{
horizontal = 1;
place = (735, 125);
place = (735, 125);
type = Stem;
},
{
place = (4, 718);
place = (4, 718);
type = Stem;
},
{
horizontal = 1;
place = (531, 159);
place = (531, 159);
type = Stem;
}
);
layerId = m01;
shapes = (
{
closed = 1;
nodes = (
(328,735,l),
(424,735,l),
(333,860,l),
(173,860,l)
);
},
{
closed = 1;
nodes = (
(468,179,l),
(526,0,l),
(722,0,l),
(473,690,l),
(253,690,l),
(4,0,l),
(195,0,l),
(253,179,l)
);
},
{
closed = 1;
nodes = (
(361,531,l),
(425,319,l),
(297,319,l)
);
}
);
width = 707;
}
);
note = Agrave;
unicode = 192;
},
{
glyphname = Amacron;
kernLeft = A;
kernRight = A;
layers = (
{
hints = (
{
horizontal = 1;
place = (0, 21);
target = up;
type = BottomGhost;
},
{
horizontal = 1;
place = (179, 140);
place = (179, 140);
type = Stem;
},
{
horizontal = 1;
place = (690, -20);
target = down;
type = TopGhost;
},
{
horizontal = 1;
place = (760, 96);
place = (760, 96);
type = Stem;
},
{
place = (213, 300);
place = (213, 300);
type = Stem;
},
{
horizontal = 1;
place = (531, 159);
place = (531, 159);
type = Stem;
}
);
layerId = m01;
shapes = (
{
closed = 1;
nodes = (
(513,760,l),
(513,856,l),
(213,856,l),
(213,760,l)
);
},
{
closed = 1;
nodes = (
(468,179,l),
(526,0,l),
(722,0,l),
(473,690,l),
(253,690,l),
(4,0,l),
(195,0,l),
(253,179,l)
);
},
{
closed = 1;
nodes = (
(361,531,l),
(425,319,l),
(297,319,l)
);
}
);
width = 707;
}
);
note = Amacron;
unicode = 256;
},
{
glyphname = Aogonek;
kernLeft = A;
kernRight = A;
layers = (
{
hints = (
{
horizontal = 1;
place = (-223, 102);
place = (-223, 102);
type = Stem;
},
{
horizontal = 1;
place = (0, 21);
target = up;
type = BottomGhost;
},
{
horizontal = 1;
place = (179, 140);
place = (179, 140);
type = Stem;
},
{
horizontal = 1;
place = (690, -20);
target = down;
type = TopGhost;
},
{
place = (440, 249);
place = (440, 249);
type = Stem;
},
{
horizontal = 1;
place = (531, 159);
place = (531, 159);
type = Stem;
},
{
place = (4, 718);
place = (4, 718);
type = Stem;
}
);
layerId = m01;
shapes = (
{
closed = 1;
nodes = (
(604,-32,o),
(624,0,o),
(649,0,cs),
(722,0,l),
(473,690,l),
(253,690,l),
(4,0,l),
(195,0,l),
(253,179,l),
(468,179,l),
(525,4,l),
(480,-21,o),
(440,-78,o),
(440,-137,cs),
(440,-201,o),
(488,-223,o),
(554,-223,cs),
(618,-223,o),
(660,-202,o),
(689,-173,c),
(689,-100,l),
(673,-115,o),
(659,-121,o),
(645,-121,cs),
(625,-121,o),
(604,-108,o),
(604,-70,cs)
);
},
{
closed = 1;
nodes = (
(361,531,l),
(425,319,l),
(297,319,l)
);
}
);
width = 707;
}
);
note = Aogonek;
unicode = 260;
},
{
glyphname = Aring;
kernLeft = A;
kernRight = A;
layers = (
{
hints = (
{
horizontal = 1;
place = (0, 21);
target = up;
type = BottomGhost;
},
{
horizontal = 1;
place = (179, 140);
place = (179, 140);
type = Stem;
},
{
horizontal = 1;
place = (690, -20);
target = down;
type = TopGhost;
},
{
horizontal = 1;
place = (722, 66);
place = (722, 66);
type = Stem;
},
{
horizontal = 1;
place = (866, 66);
place = (866, 66);
type = Stem;
},
{
place = (244, 83);
place = (244, 83);
type = Stem;
},
{
place = (399, 83);
place = (399, 83);
type = Stem;
},
{
horizontal = 1;
place = (531, 159);
place = (531, 159);
type = Stem;
}
);
layerId = m01;
shapes = (
{
closed = 1;
nodes = (
(433,722,o),
(482,765,o),
(482,827,cs),
(482,889,o),
(433,932,o),
(363,932,cs),
(293,932,o),
(244,889,o),
(244,827,cs),
(244,765,o),
(293,722,o),
(363,722,cs)
);
},
{
closed = 1;
nodes = (
(384,866,o),
(399,850,o),
(399,827,cs),
(399,804,o),
(384,788,o),
(363,788,cs),
(342,788,o),
(327,804,o),
(327,827,cs),
(327,850,o),
(342,866,o),
(363,866,cs)
);
},
{
closed = 1;
nodes = (
(468,179,l),
(526,0,l),
(722,0,l),
(473,690,l),
(253,690,l),
(4,0,l),
(195,0,l),
(253,179,l)
);
},
{
closed = 1;
nodes = (
(361,531,l),
(425,319,l),
(297,319,l)
);
}
);
width = 707;
}
);
note = Aring;
unicode = 197;
},
{
glyphname = Atilde;
kernLeft = A;
kernRight = A;
layers = (
{
hints = (
{
horizontal = 1;
place = (0, 21);
target = up;
type = BottomGhost;
},
{
horizontal = 1;
place = (179, 140);
place = (179, 140);
type = Stem;
},
{
horizontal = 1;
place = (690, -20);
target = down;
type = TopGhost;
},
{
horizontal = 1;
place = (742, 134);
place = (742, 134);
type = Stem;
},
{
place = (199, 96);
place = (199, 96);
type = Stem;
},
{
place = (431, 96);
place = (431, 96);
type = Stem;
},
{
horizontal = 1;
place = (739, 134);
place = (739, 134);
type = Stem;
},
{
horizontal = 1;
place = (531, 159);
place = (531, 159);
type = Stem;
}
);
layerId = m01;
shapes = (
{
closed = 1;
nodes = (
(318,773,o),
(331,768,o),
(355,758,cs),
(392,742,o),
(408,739,o),
(437,739,cs),
(499,739,o),
(527,780,o),
(527,873,c),
(431,873,l),
(431,851,o),
(427,842,o),
(416,842,cs),
(408,842,o),
(395,846,o),
(371,857,cs),
(335,873,o),
(318,876,o),
(289,876,cs),
(227,876,o),
(199,835,o),
(199,742,c),
(295,742,l),
(295,764,o),
(299,773,o),
(310,773,cs)
);
},
{
closed = 1;
nodes = (
(468,179,l),
(526,0,l),
(722,0,l),
(473,690,l),
(253,690,l),
(4,0,l),
(195,0,l),
(253,179,l)
);
},
{
closed = 1;
nodes = (
(361,531,l),
(425,319,l),
(297,319,l)
);
}
);
width = 707;
}
);
note = Atilde;
unicode = 195;
},
{
glyphname = AE;
layers = (
{
hints = (
{
horizontal = 1;
place = (0, 140);
place = (0, 140);
type = Stem;
},
{
horizontal = 1;
place = (276, 140);
place = (276, 140);
type = Stem;
},
{
horizontal = 1;
place = (550, 140);
place = (550, 140);
type = Stem;
},
{
place = (-42, 1008);
place = (-42, 1008);
type = Stem;
},
{
horizontal = 1;
place = (209, 140);
place = (209, 140);
type = Stem;
}
);
layerId = m01;
shapes = (
{
closed = 1;
nodes = (
(966,140,l),
(634,140,l),
(618,276,l),
(936,276,l),
(936,416,l),
(602,416,l),
(585,560,l),
(591,550,l),
(956,550,l),
(956,690,l),
(317,690,l),
(-42,0,l),
(149,0,l),
(248,209,l),
(446,209,l),
(470,0,l),
(966,0,l)
);
},
{
closed = 1;
nodes = (
(430,349,l),
(315,349,l),
(407,543,l)
);
}
);
width = 996;
}
);
note = AE;
unicode = 198;
},
{
glyphname = B;
layers = (
{
hints = (
{
horizontal = 1;
place = (0, 140);
place = (0, 140);
type = Stem;
},
{
horizontal = 1;
place = (288, 130);
place = (288, 130);
type = Stem;
},
{
horizontal = 1;
place = (550, 140);
place = (550, 140);
type = Stem;
},
{
place = (80, 180);
place = (80, 180);
type = Stem;
},
{
place = (467, 188);
place = (467, 188);
type = Stem;
},
{
place = (441, 188);
place = (441, 188);
type = Stem;
}
);
layerId = m01;
shapes = (
{
closed = 1;
nodes = (
(596,399,o),
(629,447,o),
(629,510,cs),
(629,600,o),
(565,672,o),
(451,686,cs),
(416,690,o),
(400,690,o),
(363,690,cs),
(80,690,l),
(80,0,l),
(355,0,ls),
(399,0,o),
(422,0,o),
(457,4,cs),
(550,15,o),
(655,79,o),
(655,208,cs),
(655,292,o),
(615,350,o),
(528,375,c)
);
},
{
closed = 1;
nodes = (
(260,550,l),
(341,550,ls),
(357,550,o),
(373,549,o),
(386,547,cs),
(420,542,o),
(441,523,o),
(441,484,cs),
(441,443,o),
(418,426,o),
(385,421,cs),
(372,419,o),
(357,418,o),
(341,418,cs),
(260,418,l)
);
},
{
closed = 1;
nodes = (
(389,140,o),
(373,140,o),
(357,140,cs),
(260,140,l),
(260,288,l),
(352,288,ls),
(368,288,o),
(384,288,o),
(397,287,cs),
(434,284,o),
(467,260,o),
(467,214,cs),
(467,169,o),
(434,143,o),
(402,141,cs)
);
}
);
width = 681;
}
);
note = B;
unicode = 66;
},
{
glyphname = C;
kernLeft = C;
kernRight = C;
layers = (
{
hints = (
{
horizontal = 1;
place = (-14, 132);
place = (-14, 132);
type = Stem;
},
{
horizontal = 1;
place = (572, 132);
place = (572, 132);
type = Stem;
},
{
place = (54, 188);
place = (54, 188);
type = Stem;
}
);
layerId = m01;
shapes = (
{
closed = 1;
nodes = (
(208,704,o),
(54,580,o),
(54,340,cs),
(54,106,o),
(203,-14,o),
(388,-14,cs),
(561,-14,o),
(688,71,o),
(705,237,cs),
(706,247,l),
(526,247,l),
(524,237,ls),
(509,161,o),
(464,118,o),
(394,118,cs),
(314,118,o),
(242,177,o),
(242,351,cs),
(242,500,o),
(307,572,o),
(393,572,cs),
(466,572,o),
(511,537,o),
(526,463,cs),
(528,453,l),
(708,453,l),
(707,463,ls),
(693,599,o),
(592,704,o),
(395,704,cs)
);
}
);
width = 734;
}
);
note = C;
unicode = 67;
},
{
glyphname = Cacute;
kernLeft = C;
kernRight = C;
layers = (
{
hints = (
{
horizontal = 1;
place = (-14, 132);
place = (-14, 132);
type = Stem;
},
{
horizontal = 1;
place = (572, 132);
place = (572, 132);
type = Stem;
},
{
horizontal = 1;
place = (735, 125);
place = (735, 125);
type = Stem;
},
{
place = (54, 188);
place = (54, 188);
type = Stem;
}
);
layerId = m01;
shapes = (
{
closed = 1;
nodes = (
(426,735,l),
(581,860,l),
(421,860,l),
(330,735,l)
);
},
{
closed = 1;
nodes = (
(208,704,o),
(54,580,o),
(54,340,cs),
(54,106,o),
(203,-14,o),
(388,-14,cs),
(561,-14,o),
(688,71,o),
(705,237,cs),
(706,247,l),
(526,247,l),
(524,237,ls),
(509,161,o),
(464,118,o),
(394,118,cs),
(314,118,o),
(242,177,o),
(242,351,cs),
(242,500,o),
(307,572,o),
(393,572,cs),
(466,572,o),
(511,537,o),
(526,463,cs),
(528,453,l),
(708,453,l),
(707,463,ls),
(693,599,o),
(592,704,o),
(395,704,cs)
);
}
);
width = 734;
}
);
note = Cacute;
unicode = 262;
},
{
glyphname = Ccaron;
kernLeft = C;
kernRight = C;
layers = (
{
hints = (
{
horizontal = 1;
place = (-14, 132);
place = (-14, 132);
type = Stem;
},
{
horizontal = 1;
place = (572, 132);
place = (572, 132);
type = Stem;
},
{
horizontal = 1;
place = (735, 125);
place = (735, 125);
type = Stem;
},
{
place = (54, 188);
place = (54, 188);
type = Stem;
}
);
layerId = m01;
shapes = (
{
closed = 1;
nodes = (
(310,735,l),
(459,735,l),
(521,860,l),
(418,860,l),
(386,784,l),
(352,860,l),
(248,860,l)
);
},
{
closed = 1;
nodes = (
(526,247,l),
(524,237,ls),
(509,161,o),
(464,118,o),
(394,118,cs),
(314,118,o),
(242,177,o),
(242,351,cs),
(242,500,o),
(307,572,o),
(393,572,cs),
(466,572,o),
(511,537,o),
(526,463,cs),
(528,453,l),
(708,453,l),
(707,463,ls),
(693,599,o),
(592,704,o),
(395,704,cs),
(208,704,o),
(54,580,o),
(54,340,cs),
(54,106,o),
(203,-14,o),
(388,-14,cs),
(561,-14,o),
(688,71,o),
(705,237,cs),
(706,247,l)
);
}
);
width = 734;
}
);
note = Ccaron;
unicode = 268;
},
{
glyphname = Ccedilla;
kernLeft = C;
kernRight = C;
layers = (
{
hints = (
{
horizontal = 1;
place = (-210, 69);
place = (-210, 69);
type = Stem;
},
{
horizontal = 1;
place = (-9, 21);
target = up;
type = BottomGhost;
},
{
horizontal = 1;
place = (572, 132);
place = (572, 132);
type = Stem;
},
{
place = (54, 188);
place = (54, 188);
type = Stem;
},
{
place = (384, 108);
place = (384, 108);
type = Stem;
}
);
layerId = m01;
shapes = (
{
closed = 1;
nodes = (
(526,247,l),
(524,237,ls),
(509,161,o),
(464,118,o),
(394,118,cs),
(314,118,o),
(242,177,o),
(242,351,cs),
(242,500,o),
(307,572,o),
(393,572,cs),
(466,572,o),
(511,537,o),
(526,463,cs),
(528,453,l),
(708,453,l),
(707,463,ls),
(693,599,o),
(592,704,o),
(395,704,cs),
(208,704,o),
(54,580,o),
(54,340,cs),
(54,133,o),
(170,15,o),
(325,-9,c),
(287,-88,l),
(362,-83,o),
(384,-94,o),
(384,-114,cs),
(384,-132,o),
(367,-141,o),
(324,-141,cs),
(311,-141,o),
(291,-140,o),
(266,-134,c),
(266,-204,l),
(285,-209,o),
(303,-210,o),
(323,-210,cs),
(415,-210,o),
(492,-188,o),
(492,-119,cs),
(492,-74,o),
(460,-49,o),
(397,-42,c),
(411,-13,l),
(572,-6,o),
(689,78,o),
(705,237,cs),
(706,247,l)
);
}
);
width = 734;
}
);
note = Ccedilla;
unicode = 199;
},
{
glyphname = Cdotaccent;
kernLeft = C;
kernRight = C;
layers = (
{
hints = (
{
horizontal = 1;
place = (-14, 132);
place = (-14, 132);
type = Stem;
},
{
horizontal = 1;
place = (572, 132);
place = (572, 132);
type = Stem;
},
{
horizontal = 1;
place = (725, 176);
place = (725, 176);
type = Stem;
},
{
place = (54, 188);
place = (54, 188);
type = Stem;
},
{
place = (291, 186);
place = (291, 186);
type = Stem;
}
);
layerId = m01;
shapes = (
{
closed = 1;
nodes = (
(328,901,o),
(291,867,o),
(291,813,cs),
(291,759,o),
(328,725,o),
(384,725,cs),
(440,725,o),
(477,759,o),
(477,813,cs),
(477,867,o),
(440,901,o),
(384,901,cs)
);
},
{
closed = 1;
nodes = (
(208,704,o),
(54,580,o),
(54,340,cs),
(54,106,o),
(203,-14,o),
(388,-14,cs),
(561,-14,o),
(688,71,o),
(705,237,cs),
(706,247,l),
(526,247,l),
(524,237,ls),
(509,161,o),
(464,118,o),
(394,118,cs),
(314,118,o),
(242,177,o),
(242,351,cs),
(242,500,o),
(307,572,o),
(393,572,cs),
(466,572,o),
(511,537,o),
(526,463,cs),
(528,453,l),
(708,453,l),
(707,463,ls),
(693,599,o),
(592,704,o),
(395,704,cs)
);
}
);
width = 734;
}
);
note = Cdotaccent;
unicode = 266;
},
{
glyphname = D;
kernRight = D;
layers = (
{
hints = (
{
horizontal = 1;
place = (0, 140);
place = (0, 140);
type = Stem;
},
{
horizontal = 1;
place = (550, 140);
place = (550, 140);
type = Stem;
},
{
place = (80, 180);
place = (80, 180);
type = Stem;
},
{
place = (533, 188);
place = (533, 188);
type = Stem;
}
);
layerId = m01;
shapes = (
{
closed = 1;
nodes = (
(394,690,o),
(378,690,o),
(341,690,cs),
(80,690,l),
(80,0,l),
(341,0,ls),
(378,0,o),
(394,0,o),
(429,4,cs),
(589,22,o),
(721,138,o),
(721,354,cs),
(721,570,o),
(589,668,o),
(429,686,cs)
);
},
{
closed = 1;
nodes = (
(358,140,o),
(342,140,o),
(316,140,cs),
(260,140,l),
(260,550,l),
(316,550,ls),
(342,550,o),
(358,550,o),
(381,548,cs),
(471,540,o),
(533,474,o),
(533,351,cs),
(533,228,o),
(471,150,o),
(381,142,cs)
);
}
);
width = 749;
}
);
note = D;
unicode = 68;
},
{
glyphname = Eth;
kernRight = D;
layers = (
{
hints = (
{
horizontal = 1;
place = (0, 140);
place = (0, 140);
type = Stem;
},
{
horizontal = 1;
place = (293, 96);
place = (293, 96);
type = Stem;
},
{
horizontal = 1;
place = (550, 140);
place = (550, 140);
type = Stem;
},
{
place = (90, 180);
place = (90, 180);
type = Stem;
},
{
place = (543, 188);
place = (543, 188);
type = Stem;
}
);
layerId = m01;
shapes = (
{
closed = 1;
nodes = (
(404,690,o),
(388,690,o),
(351,690,cs),
(90,690,l),
(90,389,l),
(31,389,l),
(31,293,l),
(90,293,l),
(90,0,l),
(351,0,ls),
(388,0,o),
(404,0,o),
(439,4,cs),
(599,22,o),
(731,138,o),
(731,354,cs),
(731,570,o),
(599,668,o),
(439,686,cs)
);
},
{
closed = 1;
nodes = (
(368,140,o),
(352,140,o),
(326,140,cs),
(270,140,l),
(270,293,l),
(372,293,l),
(372,389,l),
(270,389,l),
(270,550,l),
(326,550,ls),
(352,550,o),
(368,550,o),
(391,548,cs),
(481,540,o),
(543,474,o),
(543,351,cs),
(543,228,o),
(481,150,o),
(391,142,cs)
);
}
);
width = 759;
}
);
note = Eth;
unicode = 208;
},
{
glyphname = Dcaron;
kernRight = D;
layers = (
{
hints = (
{
horizontal = 1;
place = (0, 140);
place = (0, 140);
type = Stem;
},
{
horizontal = 1;
place = (550, 140);
place = (550, 140);
type = Stem;
},
{
horizontal = 1;
place = (735, 125);
place = (735, 125);
type = Stem;
},
{
place = (80, 180);
place = (80, 180);
type = Stem;
},
{
place = (533, 188);
place = (533, 188);
type = Stem;
}
);
layerId = m01;
shapes = (
{
closed = 1;
nodes = (
(311,735,l),
(460,735,l),
(522,860,l),
(419,860,l),
(387,784,l),
(353,860,l),
(249,860,l)
);
},
{
closed = 1;
nodes = (
(394,690,o),
(378,690,o),
(341,690,cs),
(80,690,l),
(80,0,l),
(341,0,ls),
(378,0,o),
(394,0,o),
(429,4,cs),
(589,22,o),
(721,138,o),
(721,354,cs),
(721,570,o),
(589,668,o),
(429,686,cs)
);
},
{
closed = 1;
nodes = (
(358,140,o),
(342,140,o),
(316,140,cs),
(260,140,l),
(260,550,l),
(316,550,ls),
(342,550,o),
(358,550,o),
(381,548,cs),
(471,540,o),
(533,474,o),
(533,351,cs),
(533,228,o),
(471,150,o),
(381,142,cs)
);
}
);
width = 749;
}
);
note = Dcaron;
unicode = 270;
},
{
glyphname = Dcroat;
kernRight = D;
layers = (
{
hints = (
{
horizontal = 1;
place = (0, 140);
place = (0, 140);
type = Stem;
},
{
horizontal = 1;
place = (293, 96);
place = (293, 96);
type = Stem;
},
{
horizontal = 1;
place = (550, 140);
place = (550, 140);
type = Stem;
},
{
place = (90, 180);
place = (90, 180);
type = Stem;
},
{
place = (543, 188);
place = (543, 188);
type = Stem;
}
);
layerId = m01;
shapes = (
{
closed = 1;
nodes = (
(404,690,o),
(388,690,o),
(351,690,cs),
(90,690,l),
(90,389,l),
(31,389,l),
(31,293,l),
(90,293,l),
(90,0,l),
(351,0,ls),
(388,0,o),
(404,0,o),
(439,4,cs),
(599,22,o),
(731,138,o),
(731,354,cs),
(731,570,o),
(599,668,o),
(439,686,cs)
);
},
{
closed = 1;
nodes = (
(368,140,o),
(352,140,o),
(326,140,cs),
(270,140,l),
(270,293,l),
(372,293,l),
(372,389,l),
(270,389,l),
(270,550,l),
(326,550,ls),
(352,550,o),
(368,550,o),
(391,548,cs),
(481,540,o),
(543,474,o),
(543,351,cs),
(543,228,o),
(481,150,o),
(391,142,cs)
);
}
);
width = 759;
}
);
note = Dcroat;
unicode = 272;
},
{
glyphname = E;
layers = (
{
hints = (
{
horizontal = 1;
place = (0, 140);
place = (0, 140);
type = Stem;
},
{
horizontal = 1;
place = (276, 140);
place = (276, 140);
type = Stem;
},
{
horizontal = 1;
place = (550, 140);
place = (550, 140);
type = Stem;
},
{
place = (80, 180);
place = (80, 180);
type = Stem;
}
);
layerId = m01;
shapes = (
{
closed = 1;
nodes = (
(609,140,l),
(260,140,l),
(260,276,l),
(579,276,l),
(579,416,l),
(260,416,l),
(260,550,l),
(599,550,l),
(599,690,l),
(80,690,l),
(80,0,l),
(609,0,l)
);
}
);
width = 639;
}
);
note = E;
unicode = 69;
},
{
glyphname = Eacute;
layers = (
{
hints = (
{
horizontal = 1;
place = (0, 140);
place = (0, 140);
type = Stem;
},
{
horizontal = 1;
place = (276, 140);
place = (276, 140);
type = Stem;
},
{
horizontal = 1;
place = (550, 140);
place = (550, 140);
type = Stem;
},
{
horizontal = 1;
place = (735, 125);
place = (735, 125);
type = Stem;
},
{
place = (80, 180);
place = (80, 180);
type = Stem;
}
);
layerId = m01;
shapes = (
{
closed = 1;
nodes = (
(382,735,l),
(537,860,l),
(377,860,l),
(286,735,l)
);
},
{
closed = 1;
nodes = (
(609,140,l),
(260,140,l),
(260,276,l),
(579,276,l),
(579,416,l),
(260,416,l),
(260,550,l),
(599,550,l),
(599,690,l),
(80,690,l),
(80,0,l),
(609,0,l)
);
}
);
width = 639;
}
);
note = Eacute;
unicode = 201;
},
{
glyphname = Ecaron;
layers = (
{
hints = (
{
horizontal = 1;
place = (0, 140);
place = (0, 140);
type = Stem;
},
{
horizontal = 1;
place = (276, 140);
place = (276, 140);
type = Stem;
},
{
horizontal = 1;
place = (550, 140);
place = (550, 140);
type = Stem;
},
{
horizontal = 1;
place = (735, 125);
place = (735, 125);
type = Stem;
},
{
place = (80, 180);
place = (80, 180);
type = Stem;
}
);
layerId = m01;
shapes = (
{
closed = 1;
nodes = (
(266,735,l),
(415,735,l),
(477,860,l),
(374,860,l),
(342,784,l),
(308,860,l),
(204,860,l)
);
},
{
closed = 1;
nodes = (
(609,140,l),
(260,140,l),
(260,276,l),
(579,276,l),
(579,416,l),
(260,416,l),
(260,550,l),
(599,550,l),
(599,690,l),
(80,690,l),
(80,0,l),
(609,0,l)
);
}
);
width = 639;
}
);
note = Ecaron;
unicode = 282;
},
{
glyphname = Ecircumflex;
layers = (
{
hints = (
{
horizontal = 1;
place = (0, 140);
place = (0, 140);
type = Stem;
},
{
horizontal = 1;
place = (276, 140);
place = (276, 140);
type = Stem;
},
{
horizontal = 1;
place = (550, 140);
place = (550, 140);
type = Stem;
},
{
horizontal = 1;
place = (735, 125);
place = (735, 125);
type = Stem;
},
{
place = (80, 180);
place = (80, 180);
type = Stem;
}
);
layerId = m01;
shapes = (
{
closed = 1;
nodes = (
(307,735,l),
(339,811,l),
(373,735,l),
(477,735,l),
(415,860,l),
(266,860,l),
(204,735,l)
);
},
{
closed = 1;
nodes = (
(609,140,l),
(260,140,l),
(260,276,l),
(579,276,l),
(579,416,l),
(260,416,l),
(260,550,l),
(599,550,l),
(599,690,l),
(80,690,l),
(80,0,l),
(609,0,l)
);
}
);
width = 639;
}
);
note = Ecircumflex;
unicode = 202;
},
{
glyphname = Edieresis;
lastChange = "2022-11-29 10:01:14 +0000";
layers = (
{
hints = (
{
horizontal = 1;
place = (0, 140);
place = (0, 140);
type = Stem;
},
{
horizontal = 1;
place = (276, 140);
place = (276, 140);
type = Stem;
},
{
horizontal = 1;
place = (550, 140);
place = (550, 140);
type = Stem;
},
{
horizontal = 1;
place = (722, 146);
place = (722, 146);
type = Stem;
},
{
place = (165, 150);
place = (165, 150);
type = Stem;
},
{
place = (365, 150);
place = (365, 150);
type = Stem;
},
{
place = (80, 180);
place = (80, 180);
type = Stem;
}
);
layerId = m01;
shapes = (
{
closed = 1;
nodes = (
(609,140,l),
(260,140,l),
(260,276,l),
(579,276,l),
(579,416,l),
(260,416,l),
(260,550,l),
(599,550,l),
(599,690,l),
(80,690,l),
(80,0,l),
(609,0,l)
);
},
{
closed = 1;
nodes = (
(164,722,l),
(314,722,l),
(314,869,l),
(164,869,l)
);
},
{
closed = 1;
nodes = (
(365,722,l),
(515,722,l),
(515,869,l),
(365,869,l)
);
}
);
width = 639;
}
);
note = Edieresis;
unicode = 203;
},
{
glyphname = Edotaccent;
layers = (
{
hints = (
{
horizontal = 1;
place = (0, 140);
place = (0, 140);
type = Stem;
},
{
horizontal = 1;
place = (276, 140);
place = (276, 140);
type = Stem;
},
{
horizontal = 1;
place = (550, 140);
place = (550, 140);
type = Stem;
},
{
horizontal = 1;
place = (725, 176);
place = (725, 176);
type = Stem;
},
{
place = (247, 186);
place = (247, 186);
type = Stem;
},
{
place = (80, 180);
place = (80, 180);
type = Stem;
}
);
layerId = m01;
shapes = (
{
closed = 1;
nodes = (
(396,725,o),
(433,759,o),
(433,813,cs),
(433,867,o),
(396,901,o),
(340,901,cs),
(284,901,o),
(247,867,o),
(247,813,cs),
(247,759,o),
(284,725,o),
(340,725,cs)
);
},
{
closed = 1;
nodes = (
(609,140,l),
(260,140,l),
(260,276,l),
(579,276,l),
(579,416,l),
(260,416,l),
(260,550,l),
(599,550,l),
(599,690,l),
(80,690,l),
(80,0,l),
(609,0,l)
);
}
);
width = 639;
}
);
note = Edotaccent;
unicode = 278;
},
{
glyphname = Egrave;
layers = (
{
hints = (
{
horizontal = 1;
place = (0, 140);
place = (0, 140);
type = Stem;
},
{
horizontal = 1;
place = (276, 140);
place = (276, 140);
type = Stem;
},
{
horizontal = 1;
place = (550, 140);
place = (550, 140);
type = Stem;
},
{
horizontal = 1;
place = (735, 125);
place = (735, 125);
type = Stem;
},
{
place = (80, 180);
place = (80, 180);
type = Stem;
}
);
layerId = m01;
shapes = (
{
closed = 1;
nodes = (
(305,735,l),
(401,735,l),
(310,860,l),
(150,860,l)
);
},
{
closed = 1;
nodes = (
(609,140,l),
(260,140,l),
(260,276,l),
(579,276,l),
(579,416,l),
(260,416,l),
(260,550,l),
(599,550,l),
(599,690,l),
(80,690,l),
(80,0,l),
(609,0,l)
);
}
);
width = 639;
}
);
note = Egrave;
unicode = 200;
},
{
glyphname = Emacron;
layers = (
{
hints = (
{
horizontal = 1;
place = (0, 140);
place = (0, 140);
type = Stem;
},
{
horizontal = 1;
place = (276, 140);
place = (276, 140);
type = Stem;
},
{
horizontal = 1;
place = (550, 140);
place = (550, 140);
type = Stem;
},
{
horizontal = 1;
place = (760, 96);
place = (760, 96);
type = Stem;
},
{
place = (190, 300);
place = (190, 300);
type = Stem;
},
{
place = (80, 180);
place = (80, 180);
type = Stem;
}
);
layerId = m01;
shapes = (
{
closed = 1;
nodes = (
(490,760,l),
(490,856,l),
(190,856,l),
(190,760,l)
);
},
{
closed = 1;
nodes = (
(609,140,l),
(260,140,l),
(260,276,l),
(579,276,l),
(579,416,l),
(260,416,l),
(260,550,l),
(599,550,l),
(599,690,l),
(80,690,l),
(80,0,l),
(609,0,l)
);
}
);
width = 639;
}
);
note = Emacron;
unicode = 274;
},
{
glyphname = Eogonek;
layers = (
{
hints = (
{
horizontal = 1;
place = (-223, 102);
place = (-223, 102);
type = Stem;
},
{
horizontal = 1;
place = (0, 140);
place = (0, 140);
type = Stem;
},
{
horizontal = 1;
place = (276, 140);
place = (276, 140);
type = Stem;
},
{
horizontal = 1;
place = (550, 140);
place = (550, 140);
type = Stem;
},
{
place = (80, 180);
place = (80, 180);
type = Stem;
},
{
place = (350, 249);
place = (350, 249);
type = Stem;
}
);
layerId = m01;
shapes = (
{
closed = 1;
nodes = (
(609,0,l),
(609,140,l),
(260,140,l),
(260,276,l),
(579,276,l),
(579,416,l),
(260,416,l),
(260,550,l),
(599,550,l),
(599,690,l),
(80,690,l),
(80,0,l),
(428,0,l),
(386,-27,o),
(350,-81,o),
(350,-137,cs),
(350,-201,o),
(398,-223,o),
(464,-223,cs),
(528,-223,o),
(570,-202,o),
(599,-173,c),
(599,-100,l),
(583,-115,o),
(569,-121,o),
(555,-121,cs),
(535,-121,o),
(514,-108,o),
(514,-70,cs),
(514,-32,o),
(534,0,o),
(559,0,cs)
);
}
);
width = 639;
}
);
note = Eogonek;
unicode = 280;
},
{
glyphname = F;
kernRight = F;
layers = (
{
hints = (
{
horizontal = 1;
place = (0, 21);
target = up;
type = BottomGhost;
},
{
horizontal = 1;
place = (276, 140);
place = (276, 140);
type = Stem;
},
{
horizontal = 1;
place = (550, 140);
place = (550, 140);
type = Stem;
},
{
place = (80, 180);
place = (80, 180);
type = Stem;
}
);
layerId = m01;
shapes = (
{
closed = 1;
nodes = (
(260,550,l),
(599,550,l),
(599,690,l),
(80,690,l),
(80,0,l),
(260,0,l),
(260,276,l),
(569,276,l),
(569,416,l),
(260,416,l)
);
}
);
width = 615;
}
);
note = F;
unicode = 70;
},
{
glyphname = G;
kernLeft = C;
kernRight = G;
layers = (
{
hints = (
{
horizontal = 1;
place = (-14, 132);
place = (-14, 132);
type = Stem;
},
{
horizontal = 1;
place = (228, 140);
place = (228, 140);
type = Stem;
},
{
horizontal = 1;
place = (572, 132);
place = (572, 132);
type = Stem;
},
{
place = (54, 188);
place = (54, 188);
type = Stem;
},
{
place = (409, 304);
place = (409, 304);
type = Stem;
},
{
horizontal = 1;
place = (0, 21);
target = up;
type = BottomGhost;
}
);
layerId = m01;
shapes = (
{
closed = 1;
nodes = (
(409,368,l),
(409,228,l),
(543,228,l),
(518,152,o),
(472,118,o),
(402,118,cs),
(317,118,o),
(242,177,o),
(242,351,cs),
(242,500,o),
(315,572,o),
(403,572,cs),
(476,572,o),
(521,537,o),
(536,463,cs),
(538,453,l),
(718,453,l),
(717,463,ls),
(703,599,o),
(602,704,o),
(405,704,cs),
(216,704,o),
(54,580,o),
(54,340,cs),
(54,108,o),
(183,-14,o),
(367,-14,cs),
(440,-14,o),
(487,-3,o),
(526,30,c),
(556,106,l),
(573,0,l),
(713,0,l),
(713,368,l)
);
}
);
width = 759;
}
);
note = G;
unicode = 71;
},
{
glyphname = Gbreve;
kernLeft = C;
kernRight = G;
layers = (
{
hints = (
{
horizontal = 1;
place = (-14, 132);
place = (-14, 132);
type = Stem;
},
{
horizontal = 1;
place = (228, 140);
place = (228, 140);
type = Stem;
},
{
horizontal = 1;
place = (572, 132);
place = (572, 132);
type = Stem;
},
{
horizontal = 1;
place = (728, 132);
place = (728, 132);
type = Stem;
},
{
place = (54, 188);
place = (54, 188);
type = Stem;
},
{
place = (253, 90);
place = (253, 90);
type = Stem;
},
{
place = (433, 90);
place = (433, 90);
type = Stem;
},
{
place = (409, 304);
place = (409, 304);
type = Stem;
},
{
horizontal = 1;
place = (0, 21);
target = up;
type = BottomGhost;
}
);
layerId = m01;
shapes = (
{
closed = 1;
nodes = (
(459,728,o),
(523,761,o),
(523,860,c),
(433,860,l),
(431,829,o),
(417,813,o),
(388,813,cs),
(359,813,o),
(345,829,o),
(343,860,c),
(253,860,l),
(253,761,o),
(316,728,o),
(388,728,cs)
);
},
{
closed = 1;
nodes = (
(409,368,l),
(409,228,l),
(543,228,l),
(518,152,o),
(472,118,o),
(402,118,cs),
(317,118,o),
(242,177,o),
(242,351,cs),
(242,500,o),
(315,572,o),
(403,572,cs),
(476,572,o),
(521,537,o),
(536,463,cs),
(538,453,l),
(718,453,l),
(717,463,ls),
(703,599,o),
(602,704,o),
(405,704,cs),
(216,704,o),
(54,580,o),
(54,340,cs),
(54,108,o),
(183,-14,o),
(367,-14,cs),
(440,-14,o),
(487,-3,o),
(526,30,c),
(556,106,l),
(573,0,l),
(713,0,l),
(713,368,l)
);
}
);
width = 759;
}
);
note = Gbreve;
unicode = 286;
},
{
glyphname = Gcommaaccent;
kernLeft = C;
kernRight = G;
layers = (
{
hints = (
{
horizontal = 1;
place = (-14, 132);
place = (-14, 132);
type = Stem;
},
{
horizontal = 1;
place = (228, 140);
place = (228, 140);
type = Stem;
},
{
horizontal = 1;
place = (572, 132);
place = (572, 132);
type = Stem;
},
{
place = (54, 188);
place = (54, 188);
type = Stem;
},
{
place = (409, 304);
place = (409, 304);
type = Stem;
},
{
horizontal = 1;
place = (-216, 179);
place = (-216, 179);
type = Stem;
},
{
horizontal = 1;
place = (0, 21);
target = up;
type = BottomGhost;
}
);
layerId = m01;
shapes = (
{
closed = 1;
nodes = (
(409,368,l),
(409,228,l),
(543,228,l),
(518,152,o),
(472,118,o),
(402,118,cs),
(317,118,o),
(242,177,o),
(242,351,cs),
(242,500,o),
(315,572,o),
(403,572,cs),
(476,572,o),
(521,537,o),
(536,463,cs),
(538,453,l),
(718,453,l),
(717,463,ls),
(703,599,o),
(602,704,o),
(405,704,cs),
(216,704,o),
(54,580,o),
(54,340,cs),
(54,108,o),
(183,-14,o),
(367,-14,cs),
(440,-14,o),
(487,-3,o),
(526,30,c),
(556,106,l),
(573,0,l),
(713,0,l),
(713,368,l)
);
},
{
closed = 1;
nodes = (
(358,-37,l),
(274,-216,l),
(371,-216,l),
(472,-47,l),
(472,-37,l)
);
}
);
width = 759;
}
);
note = Gcommaaccent;
unicode = 290;
},
{
glyphname = Gdotaccent;
kernLeft = C;
kernRight = G;
layers = (
{
hints = (
{
horizontal = 1;
place = (-14, 132);
place = (-14, 132);
type = Stem;
},
{
horizontal = 1;
place = (228, 140);
place = (228, 140);
type = Stem;
},
{
horizontal = 1;
place = (572, 132);
place = (572, 132);
type = Stem;
},
{
horizontal = 1;
place = (725, 176);
place = (725, 176);
type = Stem;
},
{
place = (54, 188);
place = (54, 188);
type = Stem;
},
{
place = (295, 186);
place = (295, 186);
type = Stem;
},
{
place = (409, 304);
place = (409, 304);
type = Stem;
},
{
horizontal = 1;
place = (0, 21);
target = up;
type = BottomGhost;
}
);
layerId = m01;
shapes = (
{
closed = 1;
nodes = (
(444,725,o),
(481,759,o),
(481,813,cs),
(481,867,o),
(444,901,o),
(388,901,cs),
(332,901,o),
(295,867,o),
(295,813,cs),
(295,759,o),
(332,725,o),
(388,725,cs)
);
},
{
closed = 1;
nodes = (
(409,368,l),
(409,228,l),
(543,228,l),
(518,152,o),
(472,118,o),
(402,118,cs),
(317,118,o),
(242,177,o),
(242,351,cs),
(242,500,o),
(315,572,o),
(403,572,cs),
(476,572,o),
(521,537,o),
(536,463,cs),
(538,453,l),
(718,453,l),
(717,463,ls),
(703,599,o),
(602,704,o),
(405,704,cs),
(216,704,o),
(54,580,o),
(54,340,cs),
(54,108,o),
(183,-14,o),
(367,-14,cs),
(440,-14,o),
(487,-3,o),
(526,30,c),
(556,106,l),
(573,0,l),
(713,0,l),
(713,368,l)
);
}
);
width = 759;
}
);
note = Gdotaccent;
unicode = 288;
},
{
glyphname = H;
layers = (
{
hints = (
{
horizontal = 1;
place = (0, 21);
target = up;
type = BottomGhost;
},
{
horizontal = 1;
place = (268, 140);
place = (268, 140);
type = Stem;
},
{
horizontal = 1;
place = (690, -20);
target = down;
type = TopGhost;
},
{
place = (80, 180);
place = (80, 180);
type = Stem;
},
{
place = (536, 180);
place = (536, 180);
type = Stem;
}
);
layerId = m01;
shapes = (
{
closed = 1;
nodes = (
(716,690,l),
(536,690,l),
(536,408,l),
(260,408,l),
(260,690,l),
(80,690,l),
(80,0,l),
(260,0,l),
(260,268,l),
(536,268,l),
(536,0,l),
(716,0,l)
);
}
);
width = 770;
}
);
note = H;
unicode = 72;
},
{
glyphname = Hbar;
layers = (
{
hints = (
{
horizontal = 1;
place = (0, 21);
target = up;
type = BottomGhost;
},
{
horizontal = 1;
place = (268, 140);
place = (268, 140);
type = Stem;
},
{
horizontal = 1;
place = (482, 208);
place = (482, 208);
type = Stem;
},
{
place = (80, 180);
place = (80, 180);
type = Stem;
},
{
place = (536, 180);
place = (536, 180);
type = Stem;
},
{
horizontal = 1;
place = (482, 96);
place = (482, 96);
type = Stem;
}
);
layerId = m01;
shapes = (
{
closed = 1;
nodes = (
(756,482,l),
(756,578,l),
(716,578,l),
(716,690,l),
(536,690,l),
(536,578,l),
(260,578,l),
(260,690,l),
(80,690,l),
(80,578,l),
(40,578,l),
(40,482,l),
(80,482,l),
(80,0,l),
(260,0,l),
(260,268,l),
(536,268,l),
(536,0,l),
(716,0,l),
(716,482,l)
);
},
{
closed = 1;
nodes = (
(536,482,l),
(536,408,l),
(260,408,l),
(260,482,l)
);
}
);
width = 770;
}
);
note = Hbar;
unicode = 294;
},
{
glyphname = I;
layers = (
{
hints = (
{
horizontal = 1;
place = (0, 21);
target = up;
type = BottomGhost;
},
{
horizontal = 1;
place = (690, -20);
target = down;
type = TopGhost;
},
{
place = (80, 180);
place = (80, 180);
type = Stem;
}
);
layerId = m01;
shapes = (
{
closed = 1;
nodes = (
(260,0,l),
(260,690,l),
(80,690,l),
(80,0,l)
);
}
);
width = 314;
}
);
note = I;
unicode = 73;
},
{
glyphname = IJ;
kernRight = IJ;
layers = (
{
hints = (
{
horizontal = 1;
place = (0, 21);
target = up;
type = BottomGhost;
},
{
horizontal = 1;
place = (690, -20);
target = down;
type = TopGhost;
},
{
place = (80, 180);
place = (80, 180);
type = Stem;
},
{
place = (363, 180);
place = (363, 180);
type = Stem;
},
{
place = (720, 180);
place = (720, 180);
type = Stem;
},
{
horizontal = 1;
place = (-14, 132);
place = (-14, 132);
type = Stem;
},
{
horizontal = 1;
place = (0, 264);
place = (0, 264);
type = Stem;
}
);
layerId = m01;
shapes = (
{
closed = 1;
nodes = (
(260,0,l),
(260,690,l),
(80,690,l),
(80,0,l)
);
},
{
closed = 1;
nodes = (
(900,690,l),
(720,690,l),
(720,271,ls),
(720,250,o),
(720,228,o),
(718,205,cs),
(713,150,o),
(687,118,o),
(637,118,cs),
(586,118,o),
(550,144,o),
(544,234,cs),
(542,264,l),
(362,264,l),
(363,234,ls),
(368,84,o),
(445,-14,o),
(632,-14,cs),
(811,-14,o),
(890,73,o),
(897,194,cs),
(900,245,o),
(900,267,o),
(900,299,cs)
);
}
);
width = 952;
}
);
note = IJ;
unicode = 306;
},
{
glyphname = Iacute;
layers = (
{
hints = (
{
horizontal = 1;
place = (0, 21);
target = up;
type = BottomGhost;
},
{
horizontal = 1;
place = (690, -20);
target = down;
type = TopGhost;
},
{
horizontal = 1;
place = (735, 125);
place = (735, 125);
type = Stem;
},
{
place = (80, 180);
place = (80, 180);
type = Stem;
}
);
layerId = m01;
shapes = (
{
closed = 1;
nodes = (
(212,735,l),
(367,860,l),
(207,860,l),
(116,735,l)
);
},
{
closed = 1;
nodes = (
(260,0,l),
(260,690,l),
(80,690,l),
(80,0,l)
);
}
);
width = 314;
}
);
note = Iacute;
unicode = 205;
},
{
glyphname = Icircumflex;
layers = (
{
hints = (
{
horizontal = 1;
place = (0, 21);
target = up;
type = BottomGhost;
},
{
horizontal = 1;
place = (690, -20);
target = down;
type = TopGhost;
},
{
horizontal = 1;
place = (735, 125);
place = (735, 125);
type = Stem;
},
{
place = (80, 180);
place = (80, 180);
type = Stem;
}
);
layerId = m01;
shapes = (
{
closed = 1;
nodes = (
(137,735,l),
(169,811,l),
(203,735,l),
(307,735,l),
(245,860,l),
(96,860,l),
(34,735,l)
);
},
{
closed = 1;
nodes = (
(80,690,l),
(80,0,l),
(260,0,l),
(260,690,l)
);
}
);
width = 314;
}
);
note = Icircumflex;
unicode = 206;
},
{
glyphname = Idieresis;
lastChange = "2022-11-29 10:01:14 +0000";
layers = (
{
hints = (
{
horizontal = 1;
place = (0, 21);
target = up;
type = BottomGhost;
},
{
horizontal = 1;
place = (690, -20);
target = down;
type = TopGhost;
},
{
horizontal = 1;
place = (722, 146);
place = (722, 146);
type = Stem;
},
{
place = (80, 180);
place = (80, 180);
type = Stem;
},
{
place = (-5, 150);
place = (-5, 150);
type = Stem;
},
{
place = (195, 150);
place = (195, 150);
type = Stem;
}
);
layerId = m01;
shapes = (
{
closed = 1;
nodes = (
(260,0,l),
(260,690,l),
(80,690,l),
(80,0,l)
);
},
{
closed = 1;
nodes = (
(-2,721,l),
(148,721,l),
(148,868,l),
(-2,868,l)
);
},
{
closed = 1;
nodes = (
(199,721,l),
(349,721,l),
(349,868,l),
(199,868,l)
);
}
);
width = 314;
}
);
note = Idieresis;
unicode = 207;
},
{
glyphname = Idotaccent;
layers = (
{
hints = (
{
horizontal = 1;
place = (0, 21);
target = up;
type = BottomGhost;
},
{
horizontal = 1;
place = (690, -20);
target = down;
type = TopGhost;
},
{
horizontal = 1;
place = (725, 176);
place = (725, 176);
type = Stem;
},
{
place = (80, 180);
place = (80, 180);
type = Stem;
}
);
layerId = m01;
shapes = (
{
closed = 1;
nodes = (
(114,901,o),
(77,867,o),
(77,813,cs),
(77,759,o),
(114,725,o),
(170,725,cs),
(226,725,o),
(263,759,o),
(263,813,cs),
(263,867,o),
(226,901,o),
(170,901,cs)
);
},
{
closed = 1;
nodes = (
(260,0,l),
(260,690,l),
(80,690,l),
(80,0,l)
);
}
);
width = 314;
}
);
note = Idotaccent;
unicode = 304;
},
{
glyphname = Igrave;
layers = (
{
hints = (
{
horizontal = 1;
place = (0, 21);
target = up;
type = BottomGhost;
},
{
horizontal = 1;
place = (690, -20);
target = down;
type = TopGhost;
},
{
horizontal = 1;
place = (735, 125);
place = (735, 125);
type = Stem;
},
{
place = (80, 180);
place = (80, 180);
type = Stem;
}
);
layerId = m01;
shapes = (
{
closed = 1;
nodes = (
(231,735,l),
(140,860,l),
(-20,860,l),
(135,735,l)
);
},
{
closed = 1;
nodes = (
(260,0,l),
(260,690,l),
(80,690,l),
(80,0,l)
);
}
);
width = 314;
}
);
note = Igrave;
unicode = 204;
},
{
glyphname = Imacron;
layers = (
{
hints = (
{
horizontal = 1;
place = (0, 21);
target = up;
type = BottomGhost;
},
{
horizontal = 1;
place = (690, -20);
target = down;
type = TopGhost;
},
{
horizontal = 1;
place = (760, 96);
place = (760, 96);
type = Stem;
},
{
place = (80, 180);
place = (80, 180);
type = Stem;
}
);
layerId = m01;
shapes = (
{
closed = 1;
nodes = (
(320,760,l),
(320,856,l),
(20,856,l),
(20,760,l)
);
},
{
closed = 1;
nodes = (
(260,0,l),
(260,690,l),
(80,690,l),
(80,0,l)
);
}
);
width = 314;
}
);
note = Imacron;
unicode = 298;
},
{
glyphname = Iogonek;
layers = (
{
hints = (
{
horizontal = 1;
place = (-223, 102);
place = (-223, 102);
type = Stem;
},
{
horizontal = 1;
place = (0, 21);
target = up;
type = BottomGhost;
},
{
horizontal = 1;
place = (690, -20);
target = down;
type = TopGhost;
},
{
place = (80, 180);
place = (80, 180);
type = Stem;
}
);
layerId = m01;
shapes = (
{
closed = 1;
nodes = (
(260,0,l),
(260,690,l),
(80,690,l),
(80,5,l),
(35,-20,o),
(-6,-77,o),
(-6,-137,cs),
(-6,-201,o),
(42,-223,o),
(108,-223,cs),
(172,-223,o),
(214,-202,o),
(243,-173,c),
(243,-100,l),
(227,-115,o),
(213,-121,o),
(199,-121,cs),
(179,-121,o),
(158,-108,o),
(158,-70,cs),
(158,-32,o),
(178,0,o),
(203,0,cs)
);
}
);
width = 314;
}
);
note = Iogonek;
unicode = 302;
},
{
glyphname = J;
kernLeft = J;
kernRight = IJ;
layers = (
{
hints = (
{
horizontal = 1;
place = (-14, 132);
place = (-14, 132);
type = Stem;
},
{
horizontal = 1;
place = (690, -20);
target = down;
type = TopGhost;
},
{
place = (49, 180);
place = (49, 180);
type = Stem;
},
{
place = (406, 180);
place = (406, 180);
type = Stem;
}
);
layerId = m01;
shapes = (
{
closed = 1;
nodes = (
(586,690,l),
(406,690,l),
(406,271,ls),
(406,250,o),
(406,228,o),
(404,205,cs),
(399,150,o),
(373,118,o),
(323,118,cs),
(272,118,o),
(236,144,o),
(230,234,cs),
(228,264,l),
(48,264,l),
(49,234,ls),
(54,84,o),
(131,-14,o),
(318,-14,cs),
(497,-14,o),
(576,73,o),
(583,194,cs),
(586,245,o),
(586,267,o),
(586,299,cs)
);
}
);
width = 638;
}
);
note = J;
unicode = 74;
},
{
glyphname = K;
kernRight = K;
layers = (
{
hints = (
{
horizontal = 1;
place = (0, 21);
target = up;
type = BottomGhost;
},
{
horizontal = 1;
place = (690, -20);
target = down;
type = TopGhost;
},
{
place = (80, 180);
place = (80, 180);
type = Stem;
}
);
layerId = m01;
shapes = (
{
closed = 1;
nodes = (
(440,365,l),
(738,690,l),
(523,690,l),
(260,385,l),
(260,690,l),
(80,690,l),
(80,0,l),
(260,0,l),
(260,212,l),
(309,266,l),
(504,0,l),
(729,0,l)
);
}
);
width = 743;
}
);
note = K;
unicode = 75;
},
{
glyphname = Kcommaaccent;
kernRight = K;
layers = (
{
hints = (
{
horizontal = 1;
place = (-216, 179);
place = (-216, 179);
type = Stem;
},
{
horizontal = 1;
place = (0, 21);
target = up;
type = BottomGhost;
},
{
horizontal = 1;
place = (690, -20);
target = down;
type = TopGhost;
},
{
place = (80, 180);
place = (80, 180);
type = Stem;
}
);
layerId = m01;
shapes = (
{
closed = 1;
nodes = (
(440,365,l),
(738,690,l),
(523,690,l),
(260,385,l),
(260,690,l),
(80,690,l),
(80,0,l),
(260,0,l),
(260,212,l),
(309,266,l),
(504,0,l),
(729,0,l)
);
},
{
closed = 1;
nodes = (
(325,-37,l),
(241,-216,l),
(338,-216,l),
(439,-47,l),
(439,-37,l)
);
}
);
width = 743;
}
);
note = Kcommaaccent;
unicode = 310;
},
{
glyphname = L;
kernRight = L;
layers = (
{
hints = (
{
horizontal = 1;
place = (0, 152);
place = (0, 152);
type = Stem;
},
{
horizontal = 1;
place = (690, -20);
target = down;
type = TopGhost;
},
{
place = (80, 180);
place = (80, 180);
type = Stem;
}
);
layerId = m01;
shapes = (
{
closed = 1;
nodes = (
(609,152,l),
(260,152,l),
(260,690,l),
(80,690,l),
(80,0,l),
(609,0,l)
);
}
);
width = 628;
}
);
note = L;
unicode = 76;
},
{
glyphname = Lacute;
kernRight = L;
layers = (
{
hints = (
{
horizontal = 1;
place = (0, 152);
place = (0, 152);
type = Stem;
},
{
horizontal = 1;
place = (690, -20);
target = down;
type = TopGhost;
},
{
horizontal = 1;
place = (735, 125);
place = (735, 125);
type = Stem;
},
{
place = (80, 180);
place = (80, 180);
type = Stem;
}
);
layerId = m01;
shapes = (
{
closed = 1;
nodes = (
(212,735,l),
(367,860,l),
(207,860,l),
(116,735,l)
);
},
{
closed = 1;
nodes = (
(609,152,l),
(260,152,l),
(260,690,l),
(80,690,l),
(80,0,l),
(609,0,l)
);
}
);
width = 628;
}
);
note = Lacute;
unicode = 313;
},
{
glyphname = Lcaron;
kernRight = L;
layers = (
{
hints = (
{
horizontal = 1;
place = (0, 152);
place = (0, 152);
type = Stem;
},
{
horizontal = 1;
place = (690, -20);
target = down;
type = TopGhost;
},
{
place = (80, 180);
place = (80, 180);
type = Stem;
}
);
layerId = m01;
shapes = (
{
closed = 1;
nodes = (
(609,152,l),
(260,152,l),
(260,690,l),
(80,690,l),
(80,0,l),
(609,0,l)
);
}
);
width = 628;
}
);
note = Lcaron;
unicode = 317;
},
{
glyphname = Lcommaaccent;
kernRight = L;
layers = (
{
hints = (
{
horizontal = 1;
place = (-216, 179);
place = (-216, 179);
type = Stem;
},
{
horizontal = 1;
place = (0, 152);
place = (0, 152);
type = Stem;
},
{
horizontal = 1;
place = (690, -20);
target = down;
type = TopGhost;
},
{
place = (80, 180);
place = (80, 180);
type = Stem;
}
);
layerId = m01;
shapes = (
{
closed = 1;
nodes = (
(609,152,l),
(260,152,l),
(260,690,l),
(80,690,l),
(80,0,l),
(609,0,l)
);
},
{
closed = 1;
nodes = (
(299,-37,l),
(215,-216,l),
(312,-216,l),
(413,-47,l),
(413,-37,l)
);
}
);
width = 628;
}
);
note = Lcommaaccent;
unicode = 315;
},
{
glyphname = Ldot;
kernRight = L;
layers = (
{
hints = (
{
horizontal = 1;
place = (0, 152);
place = (0, 152);
type = Stem;
},
{
horizontal = 1;
place = (300, 200);
place = (300, 200);
type = Stem;
},
{
horizontal = 1;
place = (690, -20);
target = down;
type = TopGhost;
},
{
place = (80, 180);
place = (80, 180);
type = Stem;
},
{
place = (350, 200);
place = (350, 200);
type = Stem;
}
);
layerId = m01;
shapes = (
{
closed = 1;
nodes = (
(609,152,l),
(260,152,l),
(260,690,l),
(80,690,l),
(80,0,l),
(609,0,l)
);
},
{
closed = 1;
nodes = (
(507,300,o),
(550,343,o),
(550,400,cs),
(550,457,o),
(507,500,o),
(450,500,cs),
(393,500,o),
(350,457,o),
(350,400,cs),
(350,343,o),
(393,300,o),
(450,300,cs)
);
}
);
width = 628;
}
);
note = Ldot;
unicode = 319;
},
{
glyphname = Lslash;
kernRight = L;
layers = (
{
hints = (
{
horizontal = 1;
place = (0, 152);
place = (0, 152);
type = Stem;
},
{
horizontal = 1;
place = (538, -20);
target = down;
type = TopGhost;
},
{
horizontal = 1;
place = (690, -20);
target = down;
type = TopGhost;
},
{
place = (120, 180);
place = (120, 180);
type = Stem;
}
);
layerId = m01;
shapes = (
{
closed = 1;
nodes = (
(649,152,l),
(300,152,l),
(300,380,l),
(386,425,l),
(386,538,l),
(300,493,l),
(300,690,l),
(120,690,l),
(120,398,l),
(26,348,l),
(26,235,l),
(120,285,l),
(120,0,l),
(649,0,l)
);
}
);
width = 668;
}
);
note = Lslash;
unicode = 321;
},
{
glyphname = M;
layers = (
{
hints = (
{
horizontal = 1;
place = (0, 21);
target = up;
type = BottomGhost;
},
{
horizontal = 1;
place = (690, -20);
target = down;
type = TopGhost;
},
{
place = (80, 180);
place = (80, 180);
type = Stem;
},
{
place = (689, 180);
place = (689, 180);
type = Stem;
},
{
horizontal = 1;
place = (0, 175);
place = (0, 175);
type = Stem;
},
{
horizontal = 1;
place = (509, 181);
place = (509, 181);
type = Stem;
}
);
layerId = m01;
shapes = (
{
closed = 1;
nodes = (
(869,690,l),
(595,690,l),
(478,175,l),
(361,690,l),
(80,690,l),
(80,0,l),
(260,0,l),
(260,290,ls),
(260,350,o),
(260,439,o),
(258,509,c),
(269,439,o),
(289,350,o),
(305,290,cs),
(382,0,l),
(567,0,l),
(643,290,ls),
(659,351,o),
(679,439,o),
(691,509,c),
(689,439,o),
(689,350,o),
(689,290,cs),
(689,0,l),
(869,0,l)
);
}
);
width = 923;
}
);
note = M;
unicode = 77;
},
{
glyphname = N;
layers = (
{
hints = (
{
horizontal = 1;
place = (0, 21);
target = up;
type = BottomGhost;
},
{
horizontal = 1;
place = (690, -20);
target = down;
type = TopGhost;
},
{
place = (80, 180);
place = (80, 180);
type = Stem;
},
{
place = (560, 180);
place = (560, 180);
type = Stem;
}
);
layerId = m01;
shapes = (
{
closed = 1;
nodes = (
(740,0,l),
(740,690,l),
(560,690,l),
(560,395,ls),
(560,355,o),
(561,284,o),
(566,214,c),
(304,690,l),
(80,690,l),
(80,0,l),
(260,0,l),
(260,285,ls),
(260,325,o),
(260,386,o),
(254,456,c),
(505,0,l)
);
}
);
width = 794;
}
);
note = N;
unicode = 78;
},
{
glyphname = Nacute;
layers = (
{
hints = (
{
horizontal = 1;
place = (0, 21);
target = up;
type = BottomGhost;
},
{
horizontal = 1;
place = (690, -20);
target = down;
type = TopGhost;
},
{
horizontal = 1;
place = (735, 125);
place = (735, 125);
type = Stem;
},
{
place = (80, 180);
place = (80, 180);
type = Stem;
},
{
place = (560, 180);
place = (560, 180);
type = Stem;
}
);
layerId = m01;
shapes = (
{
closed = 1;
nodes = (
(447,735,l),
(602,860,l),
(442,860,l),
(351,735,l)
);
},
{
closed = 1;
nodes = (
(740,0,l),
(740,690,l),
(560,690,l),
(560,395,ls),
(560,355,o),
(561,284,o),
(566,214,c),
(304,690,l),
(80,690,l),
(80,0,l),
(260,0,l),
(260,285,ls),
(260,325,o),
(260,386,o),
(254,456,c),
(505,0,l)
);
}
);
width = 794;
}
);
note = Nacute;
unicode = 323;
},
{
glyphname = Ncaron;
layers = (
{
hints = (
{
horizontal = 1;
place = (0, 21);
target = up;
type = BottomGhost;
},
{
horizontal = 1;
place = (690, -20);
target = down;
type = TopGhost;
},
{
horizontal = 1;
place = (735, 125);
place = (735, 125);
type = Stem;
},
{
place = (80, 180);
place = (80, 180);
type = Stem;
},
{
place = (560, 180);
place = (560, 180);
type = Stem;
}
);
layerId = m01;
shapes = (
{
closed = 1;
nodes = (
(331,735,l),
(480,735,l),
(542,860,l),
(439,860,l),
(407,784,l),
(373,860,l),
(269,860,l)
);
},
{
closed = 1;
nodes = (
(740,690,l),
(560,690,l),
(560,395,ls),
(560,355,o),
(561,284,o),
(566,214,c),
(304,690,l),
(80,690,l),
(80,0,l),
(260,0,l),
(260,285,ls),
(260,325,o),
(260,386,o),
(254,456,c),
(505,0,l),
(740,0,l)
);
}
);
width = 794;
}
);
note = Ncaron;
unicode = 327;
},
{
glyphname = Ncommaaccent;
layers = (
{
hints = (
{
horizontal = 1;
place = (-216, 179);
place = (-216, 179);
type = Stem;
},
{
horizontal = 1;
place = (0, 21);
target = up;
type = BottomGhost;
},
{
horizontal = 1;
place = (690, -20);
target = down;
type = TopGhost;
},
{
place = (80, 180);
place = (80, 180);
type = Stem;
},
{
place = (560, 180);
place = (560, 180);
type = Stem;
}
);
layerId = m01;
shapes = (
{
closed = 1;
nodes = (
(740,0,l),
(740,690,l),
(560,690,l),
(560,395,ls),
(560,355,o),
(561,284,o),
(566,214,c),
(304,690,l),
(80,690,l),
(80,0,l),
(260,0,l),
(260,285,ls),
(260,325,o),
(260,386,o),
(254,456,c),
(505,0,l)
);
},
{
closed = 1;
nodes = (
(479,-47,l),
(479,-37,l),
(365,-37,l),
(281,-216,l),
(378,-216,l)
);
}
);
width = 794;
}
);
note = Ncommaaccent;
unicode = 325;
},
{
glyphname = Eng;
layers = (
{
hints = (
{
horizontal = 1;
place = (-223, 132);
place = (-223, 132);
type = Stem;
},
{
horizontal = 1;
place = (0, 21);
target = up;
type = BottomGhost;
},
{
horizontal = 1;
place = (690, -20);
target = down;
type = TopGhost;
},
{
place = (80, 180);
place = (80, 180);
type = Stem;
},
{
place = (560, 180);
place = (560, 180);
type = Stem;
}
);
layerId = m01;
shapes = (
{
closed = 1;
nodes = (
(740,690,l),
(560,690,l),
(560,435,ls),
(560,395,o),
(561,324,o),
(566,254,c),
(304,690,l),
(80,690,l),
(80,0,l),
(260,0,l),
(260,285,ls),
(260,325,o),
(260,386,o),
(254,456,c),
(560,-20,l),
(560,-33,ls),
(560,-66,o),
(545,-85,o),
(485,-91,c),
(485,-223,l),
(660,-223,o),
(730,-186,o),
(739,-98,cs),
(740,-84,o),
(740,-75,o),
(740,-57,cs)
);
}
);
width = 794;
}
);
note = Eng;
unicode = 330;
},
{
glyphname = Ntilde;
layers = (
{
hints = (
{
horizontal = 1;
place = (0, 21);
target = up;
type = BottomGhost;
},
{
horizontal = 1;
place = (690, -20);
target = down;
type = TopGhost;
},
{
horizontal = 1;
place = (742, 134);
place = (742, 134);
type = Stem;
},
{
place = (241, 96);
place = (241, 96);
type = Stem;
},
{
place = (560, 180);
place = (560, 180);
type = Stem;
},
{
horizontal = 1;
place = (739, 134);
place = (739, 134);
type = Stem;
},
{
place = (80, 180);
place = (80, 180);
type = Stem;
},
{
place = (473, 96);
place = (473, 96);
type = Stem;
}
);
layerId = m01;
shapes = (
{
closed = 1;
nodes = (
(269,876,o),
(241,835,o),
(241,742,c),
(337,742,l),
(337,764,o),
(341,773,o),
(352,773,cs),
(360,773,o),
(373,768,o),
(397,758,cs),
(434,742,o),
(450,739,o),
(479,739,cs),
(541,739,o),
(569,780,o),
(569,873,c),
(473,873,l),
(473,851,o),
(469,842,o),
(458,842,cs),
(450,842,o),
(437,846,o),
(413,857,cs),
(377,873,o),
(360,876,o),
(331,876,cs)
);
},
{
closed = 1;
nodes = (
(740,0,l),
(740,690,l),
(560,690,l),
(560,395,ls),
(560,355,o),
(561,284,o),
(566,214,c),
(304,690,l),
(80,690,l),
(80,0,l),
(260,0,l),
(260,285,ls),
(260,325,o),
(260,386,o),
(254,456,c),
(505,0,l)
);
}
);
width = 794;
}
);
note = Ntilde;
unicode = 209;
},
{
glyphname = O;
kernLeft = C;
kernRight = D;
layers = (
{
hints = (
{
horizontal = 1;
place = (-14, 132);
place = (-14, 132);
type = Stem;
},
{
horizontal = 1;
place = (572, 132);
place = (572, 132);
type = Stem;
},
{
place = (54, 184);
place = (54, 184);
type = Stem;
},
{
place = (576, 184);
place = (576, 184);
type = Stem;
}
);
layerId = m01;
shapes = (
{
closed = 1;
nodes = (
(192,704,o),
(54,567,o),
(54,345,cs),
(54,124,o),
(192,-14,o),
(407,-14,cs),
(622,-14,o),
(760,124,o),
(760,345,cs),
(760,567,o),
(622,704,o),
(407,704,cs)
);
},
{
closed = 1;
nodes = (
(303,118,o),
(238,199,o),
(238,345,cs),
(238,492,o),
(303,572,o),
(407,572,cs),
(511,572,o),
(576,492,o),
(576,345,cs),
(576,199,o),
(511,118,o),
(407,118,cs)
);
}
);
width = 788;
}
);
note = O;
unicode = 79;
},
{
glyphname = Oacute;
kernLeft = C;
kernRight = D;
layers = (
{
hints = (
{
horizontal = 1;
place = (-14, 132);
place = (-14, 132);
type = Stem;
},
{
horizontal = 1;
place = (572, 132);
place = (572, 132);
type = Stem;
},
{
horizontal = 1;
place = (735, 125);
place = (735, 125);
type = Stem;
},
{
place = (54, 184);
place = (54, 184);
type = Stem;
},
{
place = (576, 184);
place = (576, 184);
type = Stem;
}
);
layerId = m01;
shapes = (
{
closed = 1;
nodes = (
(449,735,l),
(604,860,l),
(444,860,l),
(353,735,l)
);
},
{
closed = 1;
nodes = (
(192,704,o),
(54,567,o),
(54,345,cs),
(54,124,o),
(192,-14,o),
(407,-14,cs),
(622,-14,o),
(760,124,o),
(760,345,cs),
(760,567,o),
(622,704,o),
(407,704,cs)
);
},
{
closed = 1;
nodes = (
(303,118,o),
(238,199,o),
(238,345,cs),
(238,492,o),
(303,572,o),
(407,572,cs),
(511,572,o),
(576,492,o),
(576,345,cs),
(576,199,o),
(511,118,o),
(407,118,cs)
);
}
);
width = 788;
}
);
note = Oacute;
unicode = 211;
},
{
glyphname = Ocircumflex;
kernLeft = C;
kernRight = D;
layers = (
{
hints = (
{
horizontal = 1;
place = (-14, 132);
place = (-14, 132);
type = Stem;
},
{
horizontal = 1;
place = (572, 132);
place = (572, 132);
type = Stem;
},
{
horizontal = 1;
place = (735, 125);
place = (735, 125);
type = Stem;
},
{
place = (54, 184);
place = (54, 184);
type = Stem;
},
{
place = (576, 184);
place = (576, 184);
type = Stem;
}
);
layerId = m01;
shapes = (
{
closed = 1;
nodes = (
(374,735,l),
(406,811,l),
(440,735,l),
(544,735,l),
(482,860,l),
(333,860,l),
(271,735,l)
);
},
{
closed = 1;
nodes = (
(192,704,o),
(54,567,o),
(54,345,cs),
(54,124,o),
(192,-14,o),
(407,-14,cs),
(622,-14,o),
(760,124,o),
(760,345,cs),
(760,567,o),
(622,704,o),
(407,704,cs)
);
},
{
closed = 1;
nodes = (
(303,118,o),
(238,199,o),
(238,345,cs),
(238,492,o),
(303,572,o),
(407,572,cs),
(511,572,o),
(576,492,o),
(576,345,cs),
(576,199,o),
(511,118,o),
(407,118,cs)
);
}
);
width = 788;
}
);
note = Ocircumflex;
unicode = 212;
},
{
glyphname = Odieresis;
kernLeft = C;
kernRight = D;
lastChange = "2022-11-29 10:01:14 +0000";
layers = (
{
hints = (
{
horizontal = 1;
place = (-14, 132);
place = (-14, 132);
type = Stem;
},
{
horizontal = 1;
place = (572, 132);
place = (572, 132);
type = Stem;
},
{
horizontal = 1;
place = (722, 146);
place = (722, 146);
type = Stem;
},
{
place = (232, 150);
place = (232, 150);
type = Stem;
},
{
place = (432, 150);
place = (432, 150);
type = Stem;
},
{
place = (54, 184);
place = (54, 184);
type = Stem;
},
{
place = (576, 184);
place = (576, 184);
type = Stem;
}
);
layerId = m01;
shapes = (
{
closed = 1;
nodes = (
(192,704,o),
(54,567,o),
(54,345,cs),
(54,124,o),
(192,-14,o),
(407,-14,cs),
(622,-14,o),
(760,124,o),
(760,345,cs),
(760,567,o),
(622,704,o),
(407,704,cs)
);
},
{
closed = 1;
nodes = (
(303,118,o),
(238,199,o),
(238,345,cs),
(238,492,o),
(303,572,o),
(407,572,cs),
(511,572,o),
(576,492,o),
(576,345,cs),
(576,199,o),
(511,118,o),
(407,118,cs)
);
},
{
closed = 1;
nodes = (
(233,724,l),
(383,724,l),
(383,871,l),
(233,871,l)
);
},
{
closed = 1;
nodes = (
(434,724,l),
(584,724,l),
(584,871,l),
(434,871,l)
);
}
);
width = 788;
}
);
note = Odieresis;
unicode = 214;
},
{
glyphname = Ograve;
kernLeft = C;
kernRight = D;
layers = (
{
hints = (
{
horizontal = 1;
place = (-14, 132);
place = (-14, 132);
type = Stem;
},
{
horizontal = 1;
place = (572, 132);
place = (572, 132);
type = Stem;
},
{
horizontal = 1;
place = (735, 125);
place = (735, 125);
type = Stem;
},
{
place = (54, 184);
place = (54, 184);
type = Stem;
},
{
place = (576, 184);
place = (576, 184);
type = Stem;
}
);
layerId = m01;
shapes = (
{
closed = 1;
nodes = (
(372,735,l),
(468,735,l),
(377,860,l),
(217,860,l)
);
},
{
closed = 1;
nodes = (
(192,704,o),
(54,567,o),
(54,345,cs),
(54,124,o),
(192,-14,o),
(407,-14,cs),
(622,-14,o),
(760,124,o),
(760,345,cs),
(760,567,o),
(622,704,o),
(407,704,cs)
);
},
{
closed = 1;
nodes = (
(303,118,o),
(238,199,o),
(238,345,cs),
(238,492,o),
(303,572,o),
(407,572,cs),
(511,572,o),
(576,492,o),
(576,345,cs),
(576,199,o),
(511,118,o),
(407,118,cs)
);
}
);
width = 788;
}
);
note = Ograve;
unicode = 210;
},
{
glyphname = Ohungarumlaut;
kernLeft = C;
kernRight = D;
layers = (
{
hints = (
{
horizontal = 1;
place = (-14, 132);
place = (-14, 132);
type = Stem;
},
{
horizontal = 1;
place = (572, 132);
place = (572, 132);
type = Stem;
},
{
horizontal = 1;
place = (736, 125);
place = (736, 125);
type = Stem;
},
{
place = (54, 184);
place = (54, 184);
type = Stem;
},
{
place = (576, 184);
place = (576, 184);
type = Stem;
}
);
layerId = m01;
shapes = (
{
closed = 1;
nodes = (
(326,736,l),
(481,861,l),
(321,861,l),
(230,736,l)
);
},
{
closed = 1;
nodes = (
(431,736,l),
(527,736,l),
(682,861,l),
(522,861,l)
);
},
{
closed = 1;
nodes = (
(192,704,o),
(54,567,o),
(54,345,cs),
(54,124,o),
(192,-14,o),
(407,-14,cs),
(622,-14,o),
(760,124,o),
(760,345,cs),
(760,567,o),
(622,704,o),
(407,704,cs)
);
},
{
closed = 1;
nodes = (
(303,118,o),
(238,199,o),
(238,345,cs),
(238,492,o),
(303,572,o),
(407,572,cs),
(511,572,o),
(576,492,o),
(576,345,cs),
(576,199,o),
(511,118,o),
(407,118,cs)
);
}
);
width = 788;
}
);
note = Ohungarumlaut;
unicode = 336;
},
{
glyphname = Omacron;
kernLeft = C;
kernRight = D;
layers = (
{
hints = (
{
horizontal = 1;
place = (-14, 132);
place = (-14, 132);
type = Stem;
},
{
horizontal = 1;
place = (572, 132);
place = (572, 132);
type = Stem;
},
{
horizontal = 1;
place = (760, 96);
place = (760, 96);
type = Stem;
},
{
place = (54, 184);
place = (54, 184);
type = Stem;
},
{
place = (257, 300);
place = (257, 300);
type = Stem;
},
{
place = (576, 184);
place = (576, 184);
type = Stem;
}
);
layerId = m01;
shapes = (
{
closed = 1;
nodes = (
(557,760,l),
(557,856,l),
(257,856,l),
(257,760,l)
);
},
{
closed = 1;
nodes = (
(192,704,o),
(54,567,o),
(54,345,cs),
(54,124,o),
(192,-14,o),
(407,-14,cs),
(622,-14,o),
(760,124,o),
(760,345,cs),
(760,567,o),
(622,704,o),
(407,704,cs)
);
},
{
closed = 1;
nodes = (
(303,118,o),
(238,199,o),
(238,345,cs),
(238,492,o),
(303,572,o),
(407,572,cs),
(511,572,o),
(576,492,o),
(576,345,cs),
(576,199,o),
(511,118,o),
(407,118,cs)
);
}
);
width = 788;
}
);
note = Omacron;
unicode = 332;
},
{
glyphname = Oslash;
kernLeft = C;
kernRight = D;
layers = (
{
hints = (
{
horizontal = 1;
place = (-14, 132);
place = (-14, 132);
type = Stem;
},
{
horizontal = 1;
place = (572, 132);
place = (572, 132);
type = Stem;
},
{
place = (55, 184);
place = (55, 184);
type = Stem;
},
{
place = (577, 184);
place = (577, 184);
type = Stem;
}
);
layerId = m01;
shapes = (
{
closed = 1;
nodes = (
(766,633,l),
(696,703,l),
(631,638,l),
(572,681,o),
(497,704,o),
(408,704,cs),
(193,704,o),
(55,567,o),
(55,345,cs),
(55,257,o),
(77,182,o),
(117,124,c),
(50,57,l),
(120,-13,l),
(186,53,l),
(244,9,o),
(319,-14,o),
(408,-14,cs),
(623,-14,o),
(761,124,o),
(761,345,cs),
(761,433,o),
(739,508,o),
(699,566,c)
);
},
{
closed = 1;
nodes = (
(239,492,o),
(304,572,o),
(408,572,cs),
(454,572,o),
(492,557,o),
(520,527,c),
(249,256,l),
(242,282,o),
(239,312,o),
(239,345,cs)
);
},
{
closed = 1;
nodes = (
(577,199,o),
(512,118,o),
(408,118,cs),
(362,118,o),
(324,133,o),
(296,163,c),
(567,434,l),
(574,408,o),
(577,378,o),
(577,345,cs)
);
}
);
width = 790;
}
);
note = Oslash;
unicode = 216;
},
{
glyphname = Otilde;
kernLeft = C;
kernRight = D;
layers = (
{
hints = (
{
horizontal = 1;
place = (-14, 132);
place = (-14, 132);
type = Stem;
},
{
horizontal = 1;
place = (572, 132);
place = (572, 132);
type = Stem;
},
{
horizontal = 1;
place = (742, 134);
place = (742, 134);
type = Stem;
},
{
place = (243, 96);
place = (243, 96);
type = Stem;
},
{
place = (576, 184);
place = (576, 184);
type = Stem;
},
{
horizontal = 1;
place = (739, 134);
place = (739, 134);
type = Stem;
},
{
place = (54, 184);
place = (54, 184);
type = Stem;
},
{
place = (475, 96);
place = (475, 96);
type = Stem;
}
);
layerId = m01;
shapes = (
{
closed = 1;
nodes = (
(362,773,o),
(375,768,o),
(399,758,cs),
(436,742,o),
(452,739,o),
(481,739,cs),
(543,739,o),
(571,780,o),
(571,873,c),
(475,873,l),
(475,851,o),
(471,842,o),
(460,842,cs),
(452,842,o),
(439,846,o),
(415,857,cs),
(379,873,o),
(362,876,o),
(333,876,cs),
(271,876,o),
(243,835,o),
(243,742,c),
(339,742,l),
(339,764,o),
(343,773,o),
(354,773,cs)
);
},
{
closed = 1;
nodes = (
(192,704,o),
(54,567,o),
(54,345,cs),
(54,124,o),
(192,-14,o),
(407,-14,cs),
(622,-14,o),
(760,124,o),
(760,345,cs),
(760,567,o),
(622,704,o),
(407,704,cs)
);
},
{
closed = 1;
nodes = (
(303,118,o),
(238,199,o),
(238,345,cs),
(238,492,o),
(303,572,o),
(407,572,cs),
(511,572,o),
(576,492,o),
(576,345,cs),
(576,199,o),
(511,118,o),
(407,118,cs)
);
}
);
width = 788;
}
);
note = Otilde;
unicode = 213;
},
{
glyphname = OE;
kernLeft = C;
layers = (
{
hints = (
{
horizontal = 1;
place = (0, 140);
place = (0, 140);
type = Stem;
},
{
horizontal = 1;
place = (276, 140);
place = (276, 140);
type = Stem;
},
{
horizontal = 1;
place = (550, 140);
place = (550, 140);
type = Stem;
},
{
place = (54, 184);
place = (54, 184);
type = Stem;
},
{
place = (576, 180);
place = (576, 180);
type = Stem;
},
{
horizontal = 1;
place = (-14, 132);
place = (-14, 132);
type = Stem;
},
{
horizontal = 1;
place = (572, 132);
place = (572, 132);
type = Stem;
}
);
layerId = m01;
shapes = (
{
closed = 1;
nodes = (
(1105,140,l),
(756,140,l),
(756,276,l),
(1075,276,l),
(1075,416,l),
(756,416,l),
(756,550,l),
(1095,550,l),
(1095,690,l),
(576,690,l),
(576,588,l),
(544,656,l),
(494,694,o),
(454,704,o),
(367,704,cs),
(192,704,o),
(54,567,o),
(54,345,cs),
(54,124,o),
(192,-14,o),
(367,-14,cs),
(456,-14,o),
(493,-4,o),
(544,36,c),
(576,103,l),
(576,0,l),
(1105,0,l)
);
},
{
closed = 1;
nodes = (
(303,118,o),
(238,199,o),
(238,345,cs),
(238,492,o),
(303,572,o),
(407,572,cs),
(511,572,o),
(576,492,o),
(576,345,cs),
(576,199,o),
(511,118,o),
(407,118,cs)
);
}
);
width = 1135;
}
);
note = OE;
unicode = 338;
},
{
glyphname = P;
kernRight = P;
layers = (
{
hints = (
{
horizontal = 1;
place = (0, 21);
target = up;
type = BottomGhost;
},
{
horizontal = 1;
place = (242, 140);
place = (242, 140);
type = Stem;
},
{
horizontal = 1;
place = (550, 140);
place = (550, 140);
type = Stem;
},
{
place = (80, 180);
place = (80, 180);
type = Stem;
},
{
place = (451, 188);
place = (451, 188);
type = Stem;
}
);
layerId = m01;
shapes = (
{
closed = 1;
nodes = (
(411,689,o),
(383,690,o),
(340,690,cs),
(80,690,l),
(80,0,l),
(260,0,l),
(260,242,l),
(340,242,ls),
(383,242,o),
(411,243,o),
(448,247,cs),
(548,259,o),
(639,330,o),
(639,466,cs),
(639,602,o),
(548,673,o),
(448,685,cs)
);
},
{
closed = 1;
nodes = (
(365,382,o),
(349,382,o),
(330,382,cs),
(260,382,l),
(260,550,l),
(330,550,ls),
(349,550,o),
(365,550,o),
(378,549,cs),
(424,545,o),
(451,518,o),
(451,466,cs),
(451,414,o),
(424,387,o),
(378,383,cs)
);
}
);
width = 644;
}
);
note = P;
unicode = 80;
},
{
glyphname = Thorn;
layers = (
{
hints = (
{
horizontal = 1;
place = (0, 21);
target = up;
type = BottomGhost;
},
{
horizontal = 1;
place = (174, 140);
place = (174, 140);
type = Stem;
},
{
horizontal = 1;
place = (462, 140);
place = (462, 140);
type = Stem;
},
{
horizontal = 1;
place = (690, -20);
target = down;
type = TopGhost;
},
{
place = (80, 180);
place = (80, 180);
type = Stem;
},
{
place = (451, 188);
place = (451, 188);
type = Stem;
}
);
layerId = m01;
shapes = (
{
closed = 1;
nodes = (
(420,601,o),
(392,602,o),
(349,602,cs),
(260,602,l),
(260,690,l),
(80,690,l),
(80,0,l),
(260,0,l),
(260,174,l),
(349,174,ls),
(392,174,o),
(420,175,o),
(457,179,cs),
(557,191,o),
(639,255,o),
(639,388,cs),
(639,521,o),
(557,585,o),
(457,597,cs)
);
},
{
closed = 1;
nodes = (
(365,314,o),
(349,314,o),
(330,314,cs),
(260,314,l),
(260,462,l),
(330,462,ls),
(349,462,o),
(365,462,o),
(378,461,cs),
(424,457,o),
(451,435,o),
(451,388,cs),
(451,341,o),
(424,319,o),
(378,315,cs)
);
}
);
width = 653;
}
);
note = Thorn;
unicode = 222;
},
{
glyphname = Q;
kernLeft = C;
layers = (
{
hints = (
{
horizontal = 1;
place = (-14, 132);
place = (-14, 132);
type = Stem;
},
{
horizontal = 1;
place = (573, 132);
place = (573, 132);
type = Stem;
},
{
place = (54, 184);
place = (54, 184);
type = Stem;
},
{
place = (576, 184);
place = (576, 184);
type = Stem;
},
{
horizontal = 1;
place = (2, 116);
place = (2, 116);
type = Stem;
}
);
layerId = m01;
shapes = (
{
closed = 1;
nodes = (
(731,182,o),
(760,261,o),
(760,345,cs),
(760,567,o),
(622,705,o),
(407,705,cs),
(192,705,o),
(54,567,o),
(54,345,cs),
(54,124,o),
(192,-14,o),
(407,-14,cs),
(433,-14,o),
(456,-12,o),
(478,-7,cs),
(506,-1,o),
(523,2,o),
(551,2,cs),
(598,2,o),
(629,-9,o),
(693,-48,c),
(779,66,l),
(742,97,o),
(709,116,o),
(672,127,c)
);
},
{
closed = 1;
nodes = (
(238,492,o),
(303,573,o),
(407,573,cs),
(511,573,o),
(576,492,o),
(576,345,cs),
(576,199,o),
(511,118,o),
(407,118,cs),
(303,118,o),
(238,199,o),
(238,345,cs)
);
}
);
width = 791;
}
);
note = Q;
unicode = 81;
},
{
glyphname = R;
layers = (
{
hints = (
{
horizontal = 1;
place = (0, 21);
target = up;
type = BottomGhost;
},
{
horizontal = 1;
place = (262, 130);
place = (262, 130);
type = Stem;
},
{
horizontal = 1;
place = (550, 140);
place = (550, 140);
type = Stem;
},
{
place = (80, 180);
place = (80, 180);
type = Stem;
},
{
place = (461, 188);
place = (461, 188);
type = Stem;
}
);
layerId = m01;
shapes = (
{
closed = 1;
nodes = (
(608,251,o),
(582,304,o),
(510,330,c),
(602,357,o),
(649,415,o),
(649,502,cs),
(649,624,o),
(562,673,o),
(462,685,cs),
(425,689,o),
(397,690,o),
(354,690,cs),
(80,690,l),
(80,0,l),
(260,0,l),
(260,262,l),
(300,262,ls),
(320,262,o),
(337,262,o),
(357,261,cs),
(403,258,o),
(433,214,o),
(442,138,cs),
(448,89,o),
(458,49,o),
(474,0,c),
(670,0,l),
(643,41,o),
(627,90,o),
(618,168,cs)
);
},
{
closed = 1;
nodes = (
(260,392,l),
(260,550,l),
(330,550,ls),
(349,550,o),
(365,550,o),
(378,549,cs),
(424,545,o),
(461,529,o),
(461,471,cs),
(461,413,o),
(419,397,o),
(373,393,cs),
(360,392,o),
(344,392,o),
(325,392,cs)
);
}
);
width = 682;
}
);
note = R;
unicode = 82;
},
{
glyphname = Racute;
layers = (
{
hints = (
{
horizontal = 1;
place = (0, 21);
target = up;
type = BottomGhost;
},
{
horizontal = 1;
place = (262, 130);
place = (262, 130);
type = Stem;
},
{
horizontal = 1;
place = (550, 140);
place = (550, 140);
type = Stem;
},
{
horizontal = 1;
place = (735, 125);
place = (735, 125);
type = Stem;
},
{
place = (80, 180);
place = (80, 180);
type = Stem;
},
{
place = (461, 188);
place = (461, 188);
type = Stem;
}
);
layerId = m01;
shapes = (
{
closed = 1;
nodes = (
(402,735,l),
(557,860,l),
(397,860,l),
(306,735,l)
);
},
{
closed = 1;
nodes = (
(608,251,o),
(582,304,o),
(510,330,c),
(602,357,o),
(649,415,o),
(649,502,cs),
(649,624,o),
(562,673,o),
(462,685,cs),
(425,689,o),
(397,690,o),
(354,690,cs),
(80,690,l),
(80,0,l),
(260,0,l),
(260,262,l),
(300,262,ls),
(320,262,o),
(337,262,o),
(357,261,cs),
(403,258,o),
(433,214,o),
(442,138,cs),
(448,89,o),
(458,49,o),
(474,0,c),
(670,0,l),
(643,41,o),
(627,90,o),
(618,168,cs)
);
},
{
closed = 1;
nodes = (
(260,392,l),
(260,550,l),
(330,550,ls),
(349,550,o),
(365,550,o),
(378,549,cs),
(424,545,o),
(461,529,o),
(461,471,cs),
(461,413,o),
(419,397,o),
(373,393,cs),
(360,392,o),
(344,392,o),
(325,392,cs)
);
}
);
width = 682;
}
);
note = Racute;
unicode = 340;
},
{
glyphname = Rcaron;
layers = (
{
hints = (
{
horizontal = 1;
place = (0, 21);
target = up;
type = BottomGhost;
},
{
horizontal = 1;
place = (262, 130);
place = (262, 130);
type = Stem;
},
{
horizontal = 1;
place = (550, 140);
place = (550, 140);
type = Stem;
},
{
horizontal = 1;
place = (735, 125);
place = (735, 125);
type = Stem;
},
{
place = (80, 180);
place = (80, 180);
type = Stem;
},
{
place = (461, 188);
place = (461, 188);
type = Stem;
}
);
layerId = m01;
shapes = (
{
closed = 1;
nodes = (
(286,735,l),
(435,735,l),
(497,860,l),
(394,860,l),
(362,784,l),
(328,860,l),
(224,860,l)
);
},
{
closed = 1;
nodes = (
(608,251,o),
(582,304,o),
(510,330,c),
(602,357,o),
(649,415,o),
(649,502,cs),
(649,624,o),
(562,673,o),
(462,685,cs),
(425,689,o),
(397,690,o),
(354,690,cs),
(80,690,l),
(80,0,l),
(260,0,l),
(260,262,l),
(300,262,ls),
(320,262,o),
(337,262,o),
(357,261,cs),
(403,258,o),
(433,214,o),
(442,138,cs),
(448,89,o),
(458,49,o),
(474,0,c),
(670,0,l),
(643,41,o),
(627,90,o),
(618,168,cs)
);
},
{
closed = 1;
nodes = (
(260,392,l),
(260,550,l),
(330,550,ls),
(349,550,o),
(365,550,o),
(378,549,cs),
(424,545,o),
(461,529,o),
(461,471,cs),
(461,413,o),
(419,397,o),
(373,393,cs),
(360,392,o),
(344,392,o),
(325,392,cs)
);
}
);
width = 682;
}
);
note = Rcaron;
unicode = 344;
},
{
glyphname = Rcommaaccent;
layers = (
{
hints = (
{
horizontal = 1;
place = (-216, 179);
place = (-216, 179);
type = Stem;
},
{
horizontal = 1;
place = (0, 21);
target = up;
type = BottomGhost;
},
{
horizontal = 1;
place = (262, 130);
place = (262, 130);
type = Stem;
},
{
horizontal = 1;
place = (550, 140);
place = (550, 140);
type = Stem;
},
{
place = (80, 180);
place = (80, 180);
type = Stem;
},
{
place = (461, 188);
place = (461, 188);
type = Stem;
}
);
layerId = m01;
shapes = (
{
closed = 1;
nodes = (
(608,251,o),
(582,304,o),
(510,330,c),
(602,357,o),
(649,415,o),
(649,502,cs),
(649,624,o),
(562,673,o),
(462,685,cs),
(425,689,o),
(397,690,o),
(354,690,cs),
(80,690,l),
(80,0,l),
(260,0,l),
(260,262,l),
(300,262,ls),
(320,262,o),
(337,262,o),
(357,261,cs),
(403,258,o),
(433,214,o),
(442,138,cs),
(448,89,o),
(458,49,o),
(474,0,c),
(670,0,l),
(643,41,o),
(627,90,o),
(618,168,cs)
);
},
{
closed = 1;
nodes = (
(260,392,l),
(260,550,l),
(330,550,ls),
(349,550,o),
(365,550,o),
(378,549,cs),
(424,545,o),
(461,529,o),
(461,471,cs),
(461,413,o),
(419,397,o),
(373,393,cs),
(360,392,o),
(344,392,o),
(325,392,cs)
);
},
{
closed = 1;
nodes = (
(313,-37,l),
(229,-216,l),
(326,-216,l),
(427,-47,l),
(427,-37,l)
);
}
);
width = 682;
}
);
note = Rcommaaccent;
unicode = 342;
},
{
glyphname = S;
kernLeft = S;
kernRight = S;
layers = (
{
hints = (
{
horizontal = 1;
place = (-14, 132);
place = (-14, 132);
type = Stem;
},
{
horizontal = 1;
place = (572, 132);
place = (572, 132);
type = Stem;
},
{
place = (61, 188);
place = (61, 188);
type = Stem;
},
{
place = (421, 188);
place = (421, 188);
type = Stem;
}
);
layerId = m01;
shapes = (
{
closed = 1;
nodes = (
(185,704,o),
(61,629,o),
(61,496,cs),
(61,358,o),
(153,309,o),
(310,270,cs),
(395,249,o),
(421,218,o),
(421,182,cs),
(421,144,o),
(383,118,o),
(333,118,cs),
(279,118,o),
(226,146,o),
(214,211,c),
(34,211,l),
(45,56,o),
(163,-14,o),
(338,-14,cs),
(477,-14,o),
(609,56,o),
(609,194,cs),
(609,300,o),
(547,376,o),
(395,412,cs),
(281,439,o),
(249,466,o),
(249,510,cs),
(249,552,o),
(277,572,o),
(318,572,cs),
(377,572,o),
(407,534,o),
(415,477,c),
(595,477,l),
(580,605,o),
(504,704,o),
(322,704,cs)
);
}
);
width = 626;
}
);
note = S;
unicode = 83;
},
{
glyphname = Sacute;
kernLeft = S;
kernRight = S;
layers = (
{
hints = (
{
horizontal = 1;
place = (-14, 132);
place = (-14, 132);
type = Stem;
},
{
horizontal = 1;
place = (572, 132);
place = (572, 132);
type = Stem;
},
{
horizontal = 1;
place = (735, 125);
place = (735, 125);
type = Stem;
},
{
place = (61, 188);
place = (61, 188);
type = Stem;
},
{
place = (421, 188);
place = (421, 188);
type = Stem;
}
);
layerId = m01;
shapes = (
{
closed = 1;
nodes = (
(368,735,l),
(523,860,l),
(363,860,l),
(272,735,l)
);
},
{
closed = 1;
nodes = (
(185,704,o),
(61,629,o),
(61,496,cs),
(61,358,o),
(153,309,o),
(310,270,cs),
(395,249,o),
(421,218,o),
(421,182,cs),
(421,144,o),
(383,118,o),
(333,118,cs),
(279,118,o),
(226,146,o),
(214,211,c),
(34,211,l),
(45,56,o),
(163,-14,o),
(338,-14,cs),
(477,-14,o),
(609,56,o),
(609,194,cs),
(609,300,o),
(547,376,o),
(395,412,cs),
(281,439,o),
(249,466,o),
(249,510,cs),
(249,552,o),
(277,572,o),
(318,572,cs),
(377,572,o),
(407,534,o),
(415,477,c),
(595,477,l),
(580,605,o),
(504,704,o),
(322,704,cs)
);
}
);
width = 626;
}
);
note = Sacute;
unicode = 346;
},
{
glyphname = Scaron;
kernLeft = S;
kernRight = S;
layers = (
{
hints = (
{
horizontal = 1;
place = (-14, 132);
place = (-14, 132);
type = Stem;
},
{
horizontal = 1;
place = (572, 132);
place = (572, 132);
type = Stem;
},
{
horizontal = 1;
place = (735, 125);
place = (735, 125);
type = Stem;
},
{
place = (61, 188);
place = (61, 188);
type = Stem;
},
{
place = (421, 188);
place = (421, 188);
type = Stem;
}
);
layerId = m01;
shapes = (
{
closed = 1;
nodes = (
(252,735,l),
(401,735,l),
(463,860,l),
(360,860,l),
(328,784,l),
(294,860,l),
(190,860,l)
);
},
{
closed = 1;
nodes = (
(281,439,o),
(249,466,o),
(249,510,cs),
(249,552,o),
(277,572,o),
(318,572,cs),
(377,572,o),
(407,534,o),
(415,477,c),
(595,477,l),
(580,605,o),
(504,704,o),
(322,704,cs),
(185,704,o),
(61,629,o),
(61,496,cs),
(61,358,o),
(153,309,o),
(310,270,cs),
(395,249,o),
(421,218,o),
(421,182,cs),
(421,144,o),
(383,118,o),
(333,118,cs),
(279,118,o),
(226,146,o),
(214,211,c),
(34,211,l),
(45,56,o),
(163,-14,o),
(338,-14,cs),
(477,-14,o),
(609,56,o),
(609,194,cs),
(609,300,o),
(547,376,o),
(395,412,cs)
);
}
);
width = 626;
}
);
note = Scaron;
unicode = 352;
},
{
glyphname = Scedilla;
kernLeft = S;
kernRight = S;
layers = (
{
hints = (
{
horizontal = 1;
place = (-210, 69);
place = (-210, 69);
type = Stem;
},
{
horizontal = 1;
place = (-9, 21);
target = up;
type = BottomGhost;
},
{
horizontal = 1;
place = (572, 132);
place = (572, 132);
type = Stem;
},
{
place = (61, 188);
place = (61, 188);
type = Stem;
},
{
place = (421, 188);
place = (421, 188);
type = Stem;
},
{
place = (318, 108);
place = (318, 108);
type = Stem;
}
);
layerId = m01;
shapes = (
{
closed = 1;
nodes = (
(609,300,o),
(547,376,o),
(395,412,cs),
(281,439,o),
(249,466,o),
(249,510,cs),
(249,552,o),
(277,572,o),
(318,572,cs),
(377,572,o),
(407,534,o),
(415,477,c),
(595,477,l),
(580,605,o),
(504,704,o),
(322,704,cs),
(185,704,o),
(61,629,o),
(61,496,cs),
(61,358,o),
(153,309,o),
(310,270,cs),
(395,249,o),
(421,218,o),
(421,182,cs),
(421,144,o),
(383,118,o),
(333,118,cs),
(279,118,o),
(226,146,o),
(214,211,c),
(34,211,l),
(43,81,o),
(128,10,o),
(259,-9,c),
(221,-88,l),
(296,-83,o),
(318,-94,o),
(318,-114,cs),
(318,-132,o),
(301,-141,o),
(258,-141,cs),
(245,-141,o),
(225,-140,o),
(200,-134,c),
(200,-204,l),
(219,-209,o),
(237,-210,o),
(257,-210,cs),
(349,-210,o),
(426,-188,o),
(426,-119,cs),
(426,-74,o),
(394,-49,o),
(331,-42,c),
(345,-14,l),
(481,-12,o),
(609,58,o),
(609,194,cs)
);
}
);
width = 626;
}
);
note = Scedilla;
unicode = 350;
},
{
glyphname = Scommaaccent;
kernLeft = S;
kernRight = S;
layers = (
{
hints = (
{
horizontal = 1;
place = (-14, 132);
place = (-14, 132);
type = Stem;
},
{
horizontal = 1;
place = (572, 132);
place = (572, 132);
type = Stem;
},
{
place = (61, 188);
place = (61, 188);
type = Stem;
},
{
place = (421, 188);
place = (421, 188);
type = Stem;
},
{
horizontal = 1;
place = (-216, 179);
place = (-216, 179);
type = Stem;
}
);
layerId = m01;
shapes = (
{
closed = 1;
nodes = (
(185,704,o),
(61,629,o),
(61,496,cs),
(61,358,o),
(153,309,o),
(310,270,cs),
(395,249,o),
(421,218,o),
(421,182,cs),
(421,144,o),
(383,118,o),
(333,118,cs),
(279,118,o),
(226,146,o),
(214,211,c),
(34,211,l),
(45,56,o),
(163,-14,o),
(338,-14,cs),
(477,-14,o),
(609,56,o),
(609,194,cs),
(609,300,o),
(547,376,o),
(395,412,cs),
(281,439,o),
(249,466,o),
(249,510,cs),
(249,552,o),
(277,572,o),
(318,572,cs),
(377,572,o),
(407,534,o),
(415,477,c),
(595,477,l),
(580,605,o),
(504,704,o),
(322,704,cs)
);
},
{
closed = 1;
nodes = (
(386,-47,l),
(386,-37,l),
(272,-37,l),
(188,-216,l),
(285,-216,l)
);
}
);
width = 626;
}
);
note = Scommaaccent;
unicode = 536;
},
{
glyphname = T;
kernLeft = T;
kernRight = T;
layers = (
{
hints = (
{
horizontal = 1;
place = (0, 21);
target = up;
type = BottomGhost;
},
{
horizontal = 1;
place = (550, 140);
place = (550, 140);
type = Stem;
},
{
place = (238, 180);
place = (238, 180);
type = Stem;
}
);
layerId = m01;
shapes = (
{
closed = 1;
nodes = (
(642,550,l),
(642,690,l),
(14,690,l),
(14,550,l),
(238,550,l),
(238,0,l),
(418,0,l),
(418,550,l)
);
}
);
width = 632;
}
);
note = T;
unicode = 84;
},
{
glyphname = Tbar;
kernLeft = T;
kernRight = T;
layers = (
{
hints = (
{
horizontal = 1;
place = (0, 21);
target = up;
type = BottomGhost;
},
{
horizontal = 1;
place = (293, 96);
place = (293, 96);
type = Stem;
},
{
horizontal = 1;
place = (550, 140);
place = (550, 140);
type = Stem;
},
{
place = (238, 180);
place = (238, 180);
type = Stem;
}
);
layerId = m01;
shapes = (
{
closed = 1;
nodes = (
(418,550,l),
(642,550,l),
(642,690,l),
(14,690,l),
(14,550,l),
(238,550,l),
(238,389,l),
(148,389,l),
(148,293,l),
(238,293,l),
(238,0,l),
(418,0,l),
(418,293,l),
(508,293,l),
(508,389,l),
(418,389,l)
);
}
);
width = 632;
}
);
note = Tbar;
unicode = 358;
},
{
glyphname = Tcaron;
kernLeft = T;
kernRight = T;
layers = (
{
hints = (
{
horizontal = 1;
place = (0, 21);
target = up;
type = BottomGhost;
},
{
horizontal = 1;
place = (550, 140);
place = (550, 140);
type = Stem;
},
{
horizontal = 1;
place = (735, 125);
place = (735, 125);
type = Stem;
},
{
place = (238, 180);
place = (238, 180);
type = Stem;
}
);
layerId = m01;
shapes = (
{
closed = 1;
nodes = (
(254,735,l),
(403,735,l),
(465,860,l),
(362,860,l),
(330,784,l),
(296,860,l),
(192,860,l)
);
},
{
closed = 1;
nodes = (
(642,550,l),
(642,690,l),
(14,690,l),
(14,550,l),
(238,550,l),
(238,0,l),
(418,0,l),
(418,550,l)
);
}
);
width = 632;
}
);
note = Tcaron;
unicode = 356;
},
{
glyphname = Tcedilla;
kernLeft = T;
kernRight = T;
layers = (
{
hints = (
{
horizontal = 1;
place = (-210, 69);
place = (-210, 69);
type = Stem;
},
{
horizontal = 1;
place = (0, 21);
target = up;
type = BottomGhost;
},
{
horizontal = 1;
place = (550, 140);
place = (550, 140);
type = Stem;
},
{
place = (238, 180);
place = (238, 180);
type = Stem;
},
{
place = (334, 108);
place = (334, 108);
type = Stem;
}
);
layerId = m01;
shapes = (
{
closed = 1;
nodes = (
(367,0,l),
(418,0,l),
(418,550,l),
(642,550,l),
(642,690,l),
(14,690,l),
(14,550,l),
(238,550,l),
(238,0,l),
(280,0,l),
(237,-88,l),
(312,-83,o),
(334,-94,o),
(334,-114,cs),
(334,-132,o),
(317,-141,o),
(274,-141,cs),
(261,-141,o),
(241,-140,o),
(216,-134,c),
(216,-204,l),
(235,-209,o),
(253,-210,o),
(273,-210,cs),
(365,-210,o),
(442,-188,o),
(442,-119,cs),
(442,-74,o),
(410,-49,o),
(347,-42,c)
);
}
);
width = 632;
}
);
note = Tcedilla;
unicode = 354;
},
{
glyphname = uni021A;
kernLeft = T;
kernRight = T;
layers = (
{
hints = (
{
horizontal = 1;
place = (-216, 179);
place = (-216, 179);
type = Stem;
},
{
horizontal = 1;
place = (0, 21);
target = up;
type = BottomGhost;
},
{
horizontal = 1;
place = (550, 140);
place = (550, 140);
type = Stem;
},
{
place = (238, 180);
place = (238, 180);
type = Stem;
}
);
layerId = m01;
shapes = (
{
closed = 1;
nodes = (
(642,550,l),
(642,690,l),
(14,690,l),
(14,550,l),
(238,550,l),
(238,0,l),
(418,0,l),
(418,550,l)
);
},
{
closed = 1;
nodes = (
(288,-37,l),
(204,-216,l),
(301,-216,l),
(402,-47,l),
(402,-37,l)
);
}
);
width = 632;
}
);
note = uni021A;
unicode = 538;
},
{
glyphname = U;
kernLeft = U;
kernRight = U;
layers = (
{
hints = (
{
horizontal = 1;
place = (-14, 132);
place = (-14, 132);
type = Stem;
},
{
horizontal = 1;
place = (690, -20);
target = down;
type = TopGhost;
},
{
place = (68, 180);
place = (68, 180);
type = Stem;
},
{
place = (500, 180);
place = (500, 180);
type = Stem;
}
);
layerId = m01;
shapes = (
{
closed = 1;
nodes = (
(680,690,l),
(500,690,l),
(500,270,ls),
(500,251,o),
(500,241,o),
(499,229,cs),
(494,157,o),
(453,118,o),
(374,118,cs),
(295,118,o),
(254,157,o),
(249,229,cs),
(248,241,o),
(248,251,o),
(248,270,cs),
(248,690,l),
(68,690,l),
(68,303,ls),
(68,268,o),
(68,247,o),
(71,206,cs),
(79,90,o),
(161,-14,o),
(374,-14,cs),
(587,-14,o),
(669,90,o),
(677,206,cs),
(680,247,o),
(680,268,o),
(680,303,cs)
);
}
);
width = 718;
}
);
note = U;
unicode = 85;
},
{
glyphname = Uacute;
kernLeft = U;
kernRight = U;
layers = (
{
hints = (
{
horizontal = 1;
place = (-14, 132);
place = (-14, 132);
type = Stem;
},
{
horizontal = 1;
place = (690, -20);
target = down;
type = TopGhost;
},
{
horizontal = 1;
place = (735, 125);
place = (735, 125);
type = Stem;
},
{
place = (68, 180);
place = (68, 180);
type = Stem;
},
{
place = (500, 180);
place = (500, 180);
type = Stem;
}
);
layerId = m01;
shapes = (
{
closed = 1;
nodes = (
(416,735,l),
(571,860,l),
(411,860,l),
(320,735,l)
);
},
{
closed = 1;
nodes = (
(680,690,l),
(500,690,l),
(500,270,ls),
(500,251,o),
(500,241,o),
(499,229,cs),
(494,157,o),
(453,118,o),
(374,118,cs),
(295,118,o),
(254,157,o),
(249,229,cs),
(248,241,o),
(248,251,o),
(248,270,cs),
(248,690,l),
(68,690,l),
(68,303,ls),
(68,268,o),
(68,247,o),
(71,206,cs),
(79,90,o),
(161,-14,o),
(374,-14,cs),
(587,-14,o),
(669,90,o),
(677,206,cs),
(680,247,o),
(680,268,o),
(680,303,cs)
);
}
);
width = 718;
}
);
note = Uacute;
unicode = 218;
},
{
glyphname = Ucircumflex;
kernLeft = U;
kernRight = U;
layers = (
{
hints = (
{
horizontal = 1;
place = (-14, 132);
place = (-14, 132);
type = Stem;
},
{
horizontal = 1;
place = (690, -20);
target = down;
type = TopGhost;
},
{
horizontal = 1;
place = (735, 125);
place = (735, 125);
type = Stem;
},
{
place = (68, 180);
place = (68, 180);
type = Stem;
},
{
place = (500, 180);
place = (500, 180);
type = Stem;
}
);
layerId = m01;
shapes = (
{
closed = 1;
nodes = (
(341,735,l),
(373,811,l),
(407,735,l),
(511,735,l),
(449,860,l),
(300,860,l),
(238,735,l)
);
},
{
closed = 1;
nodes = (
(680,690,l),
(500,690,l),
(500,270,ls),
(500,251,o),
(500,241,o),
(499,229,cs),
(494,157,o),
(453,118,o),
(374,118,cs),
(295,118,o),
(254,157,o),
(249,229,cs),
(248,241,o),
(248,251,o),
(248,270,cs),
(248,690,l),
(68,690,l),
(68,303,ls),
(68,268,o),
(68,247,o),
(71,206,cs),
(79,90,o),
(161,-14,o),
(374,-14,cs),
(587,-14,o),
(669,90,o),
(677,206,cs),
(680,247,o),
(680,268,o),
(680,303,cs)
);
}
);
width = 718;
}
);
note = Ucircumflex;
unicode = 219;
},
{
glyphname = Udieresis;
kernLeft = U;
kernRight = U;
lastChange = "2022-11-29 10:01:14 +0000";
layers = (
{
hints = (
{
horizontal = 1;
place = (-14, 132);
place = (-14, 132);
type = Stem;
},
{
horizontal = 1;
place = (690, -20);
target = down;
type = TopGhost;
},
{
horizontal = 1;
place = (722, 146);
place = (722, 146);
type = Stem;
},
{
place = (68, 180);
place = (68, 180);
type = Stem;
},
{
place = (500, 180);
place = (500, 180);
type = Stem;
},
{
place = (199, 150);
place = (199, 150);
type = Stem;
},
{
place = (399, 150);
place = (399, 150);
type = Stem;
}
);
layerId = m01;
shapes = (
{
closed = 1;
nodes = (
(680,690,l),
(500,690,l),
(500,270,ls),
(500,251,o),
(500,241,o),
(499,229,cs),
(494,157,o),
(453,118,o),
(374,118,cs),
(295,118,o),
(254,157,o),
(249,229,cs),
(248,241,o),
(248,251,o),
(248,270,cs),
(248,690,l),
(68,690,l),
(68,303,ls),
(68,268,o),
(68,247,o),
(71,206,cs),
(79,90,o),
(161,-14,o),
(374,-14,cs),
(587,-14,o),
(669,90,o),
(677,206,cs),
(680,247,o),
(680,268,o),
(680,303,cs)
);
},
{
closed = 1;
nodes = (
(197,723,l),
(347,723,l),
(347,870,l),
(197,870,l)
);
},
{
closed = 1;
nodes = (
(398,723,l),
(548,723,l),
(548,870,l),
(398,870,l)
);
}
);
width = 718;
}
);
note = Udieresis;
unicode = 220;
},
{
glyphname = Ugrave;
kernLeft = U;
kernRight = U;
layers = (
{
hints = (
{
horizontal = 1;
place = (-14, 132);
place = (-14, 132);
type = Stem;
},
{
horizontal = 1;
place = (690, -20);
target = down;
type = TopGhost;
},
{
horizontal = 1;
place = (735, 125);
place = (735, 125);
type = Stem;
},
{
place = (68, 180);
place = (68, 180);
type = Stem;
},
{
place = (500, 180);
place = (500, 180);
type = Stem;
}
);
layerId = m01;
shapes = (
{
closed = 1;
nodes = (
(435,735,l),
(344,860,l),
(184,860,l),
(339,735,l)
);
},
{
closed = 1;
nodes = (
(680,690,l),
(500,690,l),
(500,270,ls),
(500,251,o),
(500,241,o),
(499,229,cs),
(494,157,o),
(453,118,o),
(374,118,cs),
(295,118,o),
(254,157,o),
(249,229,cs),
(248,241,o),
(248,251,o),
(248,270,cs),
(248,690,l),
(68,690,l),
(68,303,ls),
(68,268,o),
(68,247,o),
(71,206,cs),
(79,90,o),
(161,-14,o),
(374,-14,cs),
(587,-14,o),
(669,90,o),
(677,206,cs),
(680,247,o),
(680,268,o),
(680,303,cs)
);
}
);
width = 718;
}
);
note = Ugrave;
unicode = 217;
},
{
glyphname = Uhungarumlaut;
kernLeft = U;
kernRight = U;
layers = (
{
hints = (
{
horizontal = 1;
place = (-14, 132);
place = (-14, 132);
type = Stem;
},
{
horizontal = 1;
place = (690, -20);
target = down;
type = TopGhost;
},
{
horizontal = 1;
place = (736, 125);
place = (736, 125);
type = Stem;
},
{
place = (68, 180);
place = (68, 180);
type = Stem;
},
{
place = (500, 180);
place = (500, 180);
type = Stem;
}
);
layerId = m01;
shapes = (
{
closed = 1;
nodes = (
(293,736,l),
(448,861,l),
(288,861,l),
(197,736,l)
);
},
{
closed = 1;
nodes = (
(494,736,l),
(649,861,l),
(489,861,l),
(398,736,l)
);
},
{
closed = 1;
nodes = (
(680,690,l),
(500,690,l),
(500,270,ls),
(500,251,o),
(500,241,o),
(499,229,cs),
(494,157,o),
(453,118,o),
(374,118,cs),
(295,118,o),
(254,157,o),
(249,229,cs),
(248,241,o),
(248,251,o),
(248,270,cs),
(248,690,l),
(68,690,l),
(68,303,ls),
(68,268,o),
(68,247,o),
(71,206,cs),
(79,90,o),
(161,-14,o),
(374,-14,cs),
(587,-14,o),
(669,90,o),
(677,206,cs),
(680,247,o),
(680,268,o),
(680,303,cs)
);
}
);
width = 718;
}
);
note = Uhungarumlaut;
unicode = 368;
},
{
glyphname = Umacron;
kernLeft = U;
kernRight = U;
layers = (
{
hints = (
{
horizontal = 1;
place = (-14, 132);
place = (-14, 132);
type = Stem;
},
{
horizontal = 1;
place = (690, -20);
target = down;
type = TopGhost;
},
{
horizontal = 1;
place = (760, 96);
place = (760, 96);
type = Stem;
},
{
place = (68, 180);
place = (68, 180);
type = Stem;
},
{
place = (500, 180);
place = (500, 180);
type = Stem;
}
);
layerId = m01;
shapes = (
{
closed = 1;
nodes = (
(524,760,l),
(524,856,l),
(224,856,l),
(224,760,l)
);
},
{
closed = 1;
nodes = (
(680,690,l),
(500,690,l),
(500,270,ls),
(500,251,o),
(500,241,o),
(499,229,cs),
(494,157,o),
(453,118,o),
(374,118,cs),
(295,118,o),
(254,157,o),
(249,229,cs),
(248,241,o),
(248,251,o),
(248,270,cs),
(248,690,l),
(68,690,l),
(68,303,ls),
(68,268,o),
(68,247,o),
(71,206,cs),
(79,90,o),
(161,-14,o),
(374,-14,cs),
(587,-14,o),
(669,90,o),
(677,206,cs),
(680,247,o),
(680,268,o),
(680,303,cs)
);
}
);
width = 718;
}
);
note = Umacron;
unicode = 362;
},
{
glyphname = Uogonek;
kernLeft = U;
kernRight = U;
layers = (
{
hints = (
{
horizontal = 1;
place = (-3, 21);
target = up;
type = BottomGhost;
},
{
horizontal = 1;
place = (690, -20);
target = down;
type = TopGhost;
},
{
place = (68, 180);
place = (68, 180);
type = Stem;
},
{
place = (500, 180);
place = (500, 180);
type = Stem;
},
{
horizontal = 1;
place = (-13, 131);
place = (-13, 131);
type = Stem;
},
{
horizontal = 1;
place = (-223, 102);
place = (-223, 102);
type = Stem;
},
{
place = (287, 249);
place = (287, 249);
type = Stem;
}
);
layerId = m01;
shapes = (
{
closed = 1;
nodes = (
(680,690,l),
(500,690,l),
(500,270,ls),
(500,251,o),
(500,241,o),
(499,229,cs),
(494,157,o),
(453,118,o),
(374,118,cs),
(295,118,o),
(254,157,o),
(249,229,cs),
(248,241,o),
(248,251,o),
(248,270,cs),
(248,690,l),
(68,690,l),
(68,303,ls),
(68,268,o),
(68,247,o),
(71,206,cs),
(79,95,o),
(154,-5,o),
(347,-13,c),
(313,-43,o),
(287,-89,o),
(287,-137,cs),
(287,-201,o),
(335,-223,o),
(401,-223,cs),
(465,-223,o),
(507,-202,o),
(536,-173,c),
(536,-100,l),
(520,-115,o),
(506,-121,o),
(492,-121,cs),
(472,-121,o),
(451,-108,o),
(451,-70,cs),
(451,-39,o),
(464,-12,o),
(483,-3,c),
(487,-2,o),
(491,-1,o),
(496,0,cs),
(619,32,o),
(671,115,o),
(677,206,cs),
(680,247,o),
(680,268,o),
(680,303,cs)
);
}
);
width = 718;
}
);
note = Uogonek;
unicode = 370;
},
{
glyphname = Uring;
kernLeft = U;
kernRight = U;
layers = (
{
hints = (
{
horizontal = 1;
place = (-14, 132);
place = (-14, 132);
type = Stem;
},
{
horizontal = 1;
place = (690, -20);
target = down;
type = TopGhost;
},
{
horizontal = 1;
place = (722, 66);
place = (722, 66);
type = Stem;
},
{
horizontal = 1;
place = (866, 66);
place = (866, 66);
type = Stem;
},
{
place = (255, 83);
place = (255, 83);
type = Stem;
},
{
place = (410, 83);
place = (410, 83);
type = Stem;
},
{
place = (68, 180);
place = (68, 180);
type = Stem;
},
{
place = (500, 180);
place = (500, 180);
type = Stem;
}
);
layerId = m01;
shapes = (
{
closed = 1;
nodes = (
(304,932,o),
(255,889,o),
(255,827,cs),
(255,765,o),
(304,722,o),
(374,722,cs),
(444,722,o),
(493,765,o),
(493,827,cs),
(493,889,o),
(444,932,o),
(374,932,cs)
);
},
{
closed = 1;
nodes = (
(395,866,o),
(410,850,o),
(410,827,cs),
(410,804,o),
(395,788,o),
(374,788,cs),
(353,788,o),
(338,804,o),
(338,827,cs),
(338,850,o),
(353,866,o),
(374,866,cs)
);
},
{
closed = 1;
nodes = (
(680,690,l),
(500,690,l),
(500,270,ls),
(500,251,o),
(500,241,o),
(499,229,cs),
(494,157,o),
(453,118,o),
(374,118,cs),
(295,118,o),
(254,157,o),
(249,229,cs),
(248,241,o),
(248,251,o),
(248,270,cs),
(248,690,l),
(68,690,l),
(68,303,ls),
(68,268,o),
(68,247,o),
(71,206,cs),
(79,90,o),
(161,-14,o),
(374,-14,cs),
(587,-14,o),
(669,90,o),
(677,206,cs),
(680,247,o),
(680,268,o),
(680,303,cs)
);
}
);
width = 718;
}
);
note = Uring;
unicode = 366;
},
{
glyphname = V;
kernLeft = V;
kernRight = V;
layers = (
{
hints = (
{
horizontal = 1;
place = (0, 21);
target = up;
type = BottomGhost;
},
{
horizontal = 1;
place = (690, -20);
target = down;
type = TopGhost;
},
{
place = (32, 718);
place = (32, 718);
type = Stem;
},
{
horizontal = 1;
place = (0, 139);
place = (0, 139);
type = Stem;
}
);
layerId = m01;
shapes = (
{
closed = 1;
nodes = (
(501,0,l),
(750,690,l),
(559,690,l),
(393,139,l),
(228,690,l),
(32,690,l),
(281,0,l)
);
}
);
width = 742;
}
);
note = V;
unicode = 86;
},
{
glyphname = W;
kernLeft = W;
kernRight = W;
layers = (
{
hints = (
{
horizontal = 1;
place = (0, 21);
target = up;
type = BottomGhost;
},
{
horizontal = 1;
place = (690, -20);
target = down;
type = TopGhost;
},
{
place = (26, 1003);
place = (26, 1003);
type = Stem;
},
{
horizontal = 1;
place = (0, 138);
place = (0, 138);
type = Stem;
}
);
layerId = m01;
shapes = (
{
closed = 1;
nodes = (
(1029,690,l),
(845,690,l),
(745,138,l),
(658,680,l),
(400,680,l),
(309,140,l),
(217,690,l),
(26,690,l),
(192,0,l),
(433,0,l),
(526,537,l),
(613,0,l),
(853,0,l)
);
}
);
width = 1016;
}
);
note = W;
unicode = 87;
},
{
glyphname = Wacute;
kernLeft = W;
kernRight = W;
layers = (
{
hints = (
{
horizontal = 1;
place = (0, 21);
target = up;
type = BottomGhost;
},
{
horizontal = 1;
place = (690, -20);
target = down;
type = TopGhost;
},
{
horizontal = 1;
place = (735, 125);
place = (735, 125);
type = Stem;
},
{
place = (26, 1003);
place = (26, 1003);
type = Stem;
},
{
horizontal = 1;
place = (0, 138);
place = (0, 138);
type = Stem;
}
);
layerId = m01;
shapes = (
{
closed = 1;
nodes = (
(570,735,l),
(725,860,l),
(565,860,l),
(474,735,l)
);
},
{
closed = 1;
nodes = (
(1029,690,l),
(845,690,l),
(745,138,l),
(658,680,l),
(400,680,l),
(309,140,l),
(217,690,l),
(26,690,l),
(192,0,l),
(433,0,l),
(526,537,l),
(613,0,l),
(853,0,l)
);
}
);
width = 1016;
}
);
note = Wacute;
unicode = 7810;
},
{
glyphname = Wcircumflex;
kernLeft = W;
kernRight = W;
layers = (
{
hints = (
{
horizontal = 1;
place = (0, 21);
target = up;
type = BottomGhost;
},
{
horizontal = 1;
place = (690, -20);
target = down;
type = TopGhost;
},
{
horizontal = 1;
place = (735, 125);
place = (735, 125);
type = Stem;
},
{
place = (26, 1003);
place = (26, 1003);
type = Stem;
},
{
horizontal = 1;
place = (0, 138);
place = (0, 138);
type = Stem;
}
);
layerId = m01;
shapes = (
{
closed = 1;
nodes = (
(495,735,l),
(527,811,l),
(561,735,l),
(665,735,l),
(603,860,l),
(454,860,l),
(392,735,l)
);
},
{
closed = 1;
nodes = (
(1029,690,l),
(845,690,l),
(745,138,l),
(658,680,l),
(400,680,l),
(309,140,l),
(217,690,l),
(26,690,l),
(192,0,l),
(433,0,l),
(526,537,l),
(613,0,l),
(853,0,l)
);
}
);
width = 1016;
}
);
note = Wcircumflex;
unicode = 372;
},
{
glyphname = Wdieresis;
kernLeft = W;
kernRight = W;
lastChange = "2022-11-29 10:01:14 +0000";
layers = (
{
hints = (
{
horizontal = 1;
place = (0, 21);
target = up;
type = BottomGhost;
},
{
horizontal = 1;
place = (690, -20);
target = down;
type = TopGhost;
},
{
horizontal = 1;
place = (722, 146);
place = (722, 146);
type = Stem;
},
{
place = (353, 150);
place = (353, 150);
type = Stem;
},
{
place = (553, 150);
place = (553, 150);
type = Stem;
},
{
horizontal = 1;
place = (0, 138);
place = (0, 138);
type = Stem;
}
);
layerId = m01;
shapes = (
{
closed = 1;
nodes = (
(1029,690,l),
(845,690,l),
(745,138,l),
(658,680,l),
(400,680,l),
(309,140,l),
(217,690,l),
(26,690,l),
(192,0,l),
(433,0,l),
(526,537,l),
(613,0,l),
(853,0,l)
);
},
{
closed = 1;
nodes = (
(353,719,l),
(503,719,l),
(503,866,l),
(353,866,l)
);
},
{
closed = 1;
nodes = (
(554,719,l),
(704,719,l),
(704,866,l),
(554,866,l)
);
}
);
width = 1016;
}
);
note = Wdieresis;
unicode = 7812;
},
{
glyphname = Wgrave;
kernLeft = W;
kernRight = W;
layers = (
{
hints = (
{
horizontal = 1;
place = (0, 21);
target = up;
type = BottomGhost;
},
{
horizontal = 1;
place = (690, -20);
target = down;
type = TopGhost;
},
{
horizontal = 1;
place = (735, 125);
place = (735, 125);
type = Stem;
},
{
place = (26, 1003);
place = (26, 1003);
type = Stem;
},
{
horizontal = 1;
place = (0, 138);
place = (0, 138);
type = Stem;
}
);
layerId = m01;
shapes = (
{
closed = 1;
nodes = (
(493,735,l),
(589,735,l),
(498,860,l),
(338,860,l)
);
},
{
closed = 1;
nodes = (
(1029,690,l),
(845,690,l),
(745,138,l),
(658,680,l),
(400,680,l),
(309,140,l),
(217,690,l),
(26,690,l),
(192,0,l),
(433,0,l),
(526,537,l),
(613,0,l),
(853,0,l)
);
}
);
width = 1016;
}
);
note = Wgrave;
unicode = 7808;
},
{
glyphname = X;
layers = (
{
hints = (
{
horizontal = 1;
place = (0, 21);
target = up;
type = BottomGhost;
},
{
horizontal = 1;
place = (690, -20);
target = down;
type = TopGhost;
},
{
place = (14, 706);
place = (14, 706);
type = Stem;
}
);
layerId = m01;
shapes = (
{
closed = 1;
nodes = (
(510,0,l),
(720,0,l),
(477,351,l),
(718,690,l),
(511,690,l),
(371,460,l),
(241,690,l),
(31,690,l),
(261,348,l),
(14,0,l),
(231,0,l),
(365,233,l)
);
}
);
width = 717;
}
);
note = X;
unicode = 88;
},
{
glyphname = Y;
kernLeft = Y;
kernRight = Y;
layers = (
{
hints = (
{
horizontal = 1;
place = (0, 21);
target = up;
type = BottomGhost;
},
{
horizontal = 1;
place = (690, -20);
target = down;
type = TopGhost;
},
{
place = (257, 180);
place = (257, 180);
type = Stem;
}
);
layerId = m01;
shapes = (
{
closed = 1;
nodes = (
(437,264,l),
(680,690,l),
(483,690,l),
(352,417,l),
(216,690,l),
(14,690,l),
(257,264,l),
(257,0,l),
(437,0,l)
);
}
);
width = 663;
}
);
note = Y;
unicode = 89;
},
{
glyphname = Yacute;
kernLeft = Y;
kernRight = Y;
layers = (
{
hints = (
{
horizontal = 1;
place = (0, 21);
target = up;
type = BottomGhost;
},
{
horizontal = 1;
place = (690, -20);
target = down;
type = TopGhost;
},
{
horizontal = 1;
place = (735, 125);
place = (735, 125);
type = Stem;
},
{
place = (257, 180);
place = (257, 180);
type = Stem;
}
);
layerId = m01;
shapes = (
{
closed = 1;
nodes = (
(389,735,l),
(544,860,l),
(384,860,l),
(293,735,l)
);
},
{
closed = 1;
nodes = (
(437,264,l),
(680,690,l),
(483,690,l),
(352,417,l),
(216,690,l),
(14,690,l),
(257,264,l),
(257,0,l),
(437,0,l)
);
}
);
width = 663;
}
);
note = Yacute;
unicode = 221;
},
{
glyphname = Ycircumflex;
kernLeft = Y;
kernRight = Y;
layers = (
{
hints = (
{
horizontal = 1;
place = (0, 21);
target = up;
type = BottomGhost;
},
{
horizontal = 1;
place = (690, -20);
target = down;
type = TopGhost;
},
{
horizontal = 1;
place = (735, 125);
place = (735, 125);
type = Stem;
},
{
place = (257, 180);
place = (257, 180);
type = Stem;
}
);
layerId = m01;
shapes = (
{
closed = 1;
nodes = (
(314,735,l),
(346,811,l),
(380,735,l),
(484,735,l),
(422,860,l),
(273,860,l),
(211,735,l)
);
},
{
closed = 1;
nodes = (
(437,264,l),
(680,690,l),
(483,690,l),
(352,417,l),
(216,690,l),
(14,690,l),
(257,264,l),
(257,0,l),
(437,0,l)
);
}
);
width = 663;
}
);
note = Ycircumflex;
unicode = 374;
},
{
glyphname = Ydieresis;
kernLeft = Y;
kernRight = Y;
lastChange = "2022-11-29 10:01:14 +0000";
layers = (
{
hints = (
{
horizontal = 1;
place = (0, 21);
target = up;
type = BottomGhost;
},
{
horizontal = 1;
place = (690, -20);
target = down;
type = TopGhost;
},
{
horizontal = 1;
place = (722, 146);
place = (722, 146);
type = Stem;
},
{
place = (172, 150);
place = (172, 150);
type = Stem;
},
{
place = (372, 150);
place = (372, 150);
type = Stem;
},
{
place = (257, 180);
place = (257, 180);
type = Stem;
}
);
layerId = m01;
shapes = (
{
closed = 1;
nodes = (
(437,264,l),
(680,690,l),
(483,690,l),
(352,417,l),
(216,690,l),
(14,690,l),
(257,264,l),
(257,0,l),
(437,0,l)
);
},
{
closed = 1;
nodes = (
(173,717,l),
(323,717,l),
(323,864,l),
(173,864,l)
);
},
{
closed = 1;
nodes = (
(374,717,l),
(524,717,l),
(524,864,l),
(374,864,l)
);
}
);
width = 663;
}
);
note = Ydieresis;
unicode = 376;
},
{
glyphname = Ygrave;
kernLeft = Y;
kernRight = Y;
layers = (
{
hints = (
{
horizontal = 1;
place = (0, 21);
target = up;
type = BottomGhost;
},
{
horizontal = 1;
place = (690, -20);
target = down;
type = TopGhost;
},
{
horizontal = 1;
place = (735, 125);
place = (735, 125);
type = Stem;
},
{
place = (257, 180);
place = (257, 180);
type = Stem;
}
);
layerId = m01;
shapes = (
{
closed = 1;
nodes = (
(312,735,l),
(408,735,l),
(317,860,l),
(157,860,l)
);
},
{
closed = 1;
nodes = (
(437,264,l),
(680,690,l),
(483,690,l),
(352,417,l),
(216,690,l),
(14,690,l),
(257,264,l),
(257,0,l),
(437,0,l)
);
}
);
width = 663;
}
);
note = Ygrave;
unicode = 7922;
},
{
glyphname = Z;
kernLeft = Z;
kernRight = Z;
layers = (
{
hints = (
{
horizontal = 1;
place = (0, 140);
place = (0, 140);
type = Stem;
},
{
horizontal = 1;
place = (550, 140);
place = (550, 140);
type = Stem;
},
{
place = (53, 565);
place = (53, 565);
type = Stem;
}
);
layerId = m01;
shapes = (
{
closed = 1;
nodes = (
(618,140,l),
(276,140,l),
(614,551,l),
(614,690,l),
(81,690,l),
(81,550,l),
(394,550,l),
(53,136,l),
(53,0,l),
(618,0,l)
);
}
);
width = 648;
}
);
note = Z;
unicode = 90;
},
{
glyphname = Zacute;
kernLeft = Z;
kernRight = Z;
layers = (
{
hints = (
{
horizontal = 1;
place = (0, 140);
place = (0, 140);
type = Stem;
},
{
horizontal = 1;
place = (550, 140);
place = (550, 140);
type = Stem;
},
{
horizontal = 1;
place = (735, 125);
place = (735, 125);
type = Stem;
},
{
place = (53, 565);
place = (53, 565);
type = Stem;
}
);
layerId = m01;
shapes = (
{
closed = 1;
nodes = (
(383,735,l),
(538,860,l),
(378,860,l),
(287,735,l)
);
},
{
closed = 1;
nodes = (
(618,140,l),
(276,140,l),
(614,551,l),
(614,690,l),
(81,690,l),
(81,550,l),
(394,550,l),
(53,136,l),
(53,0,l),
(618,0,l)
);
}
);
width = 648;
}
);
note = Zacute;
unicode = 377;
},
{
glyphname = Zcaron;
kernLeft = Z;
kernRight = Z;
layers = (
{
hints = (
{
horizontal = 1;
place = (0, 140);
place = (0, 140);
type = Stem;
},
{
horizontal = 1;
place = (550, 140);
place = (550, 140);
type = Stem;
},
{
horizontal = 1;
place = (735, 125);
place = (735, 125);
type = Stem;
},
{
place = (53, 565);
place = (53, 565);
type = Stem;
}
);
layerId = m01;
shapes = (
{
closed = 1;
nodes = (
(267,735,l),
(416,735,l),
(478,860,l),
(375,860,l),
(343,784,l),
(309,860,l),
(205,860,l)
);
},
{
closed = 1;
nodes = (
(618,140,l),
(276,140,l),
(614,551,l),
(614,690,l),
(81,690,l),
(81,550,l),
(394,550,l),
(53,136,l),
(53,0,l),
(618,0,l)
);
}
);
width = 648;
}
);
note = Zcaron;
unicode = 381;
},
{
glyphname = Zdotaccent;
kernLeft = Z;
kernRight = Z;
layers = (
{
hints = (
{
horizontal = 1;
place = (0, 140);
place = (0, 140);
type = Stem;
},
{
horizontal = 1;
place = (550, 140);
place = (550, 140);
type = Stem;
},
{
horizontal = 1;
place = (725, 176);
place = (725, 176);
type = Stem;
},
{
place = (248, 186);
place = (248, 186);
type = Stem;
}
);
layerId = m01;
shapes = (
{
closed = 1;
nodes = (
(397,725,o),
(434,759,o),
(434,813,cs),
(434,867,o),
(397,901,o),
(341,901,cs),
(285,901,o),
(248,867,o),
(248,813,cs),
(248,759,o),
(285,725,o),
(341,725,cs)
);
},
{
closed = 1;
nodes = (
(618,140,l),
(276,140,l),
(614,551,l),
(614,690,l),
(81,690,l),
(81,550,l),
(394,550,l),
(53,136,l),
(53,0,l),
(618,0,l)
);
}
);
width = 648;
}
);
note = Zdotaccent;
unicode = 379;
},
{
glyphname = a;
kernLeft = a;
layers = (
{
hints = (
{
horizontal = 1;
place = (0, 108);
place = (0, 108);
type = Stem;
},
{
horizontal = 1;
place = (226, 102);
place = (226, 102);
type = Stem;
},
{
horizontal = 1;
place = (426, 122);
place = (426, 122);
type = Stem;
},
{
place = (48, 170);
place = (48, 170);
type = Stem;
},
{
place = (353, 180);
place = (353, 180);
type = Stem;
},
{
horizontal = 1;
place = (-14, 21);
target = up;
type = BottomGhost;
},
{
place = (30, 184);
place = (30, 184);
type = Stem;
}
);
layerId = m01;
shapes = (
{
closed = 1;
nodes = (
(367,0,l),
(543,0,l),
(535,59,o),
(533,95,o),
(533,135,cs),
(533,285,ls),
(533,318,o),
(532,349,o),
(530,376,cs),
(522,473,o),
(464,548,o),
(295,548,cs),
(160,548,o),
(49,477,o),
(48,352,c),
(218,353,l),
(221,399,o),
(245,426,o),
(287,426,cs),
(326,426,o),
(348,402,o),
(351,375,cs),
(353,358,o),
(353,347,o),
(353,336,cs),
(353,328,l),
(319,328,ls),
(138,328,o),
(30,258,o),
(30,144,cs),
(30,41,o),
(113,-14,o),
(201,-14,cs),
(250,-14,o),
(295,-2,o),
(333,22,c),
(355,78,l)
);
},
{
closed = 1;
nodes = (
(239,108,o),
(214,126,o),
(214,158,cs),
(214,211,o),
(272,232,o),
(353,226,c),
(353,191,ls),
(353,135,o),
(311,108,o),
(275,108,cs)
);
}
);
width = 587;
}
);
note = a;
unicode = 97;
},
{
glyphname = aacute;
kernLeft = a;
layers = (
{
hints = (
{
horizontal = 1;
place = (-14, 21);
target = up;
type = BottomGhost;
},
{
horizontal = 1;
place = (226, 102);
place = (226, 102);
type = Stem;
},
{
horizontal = 1;
place = (571, 125);
place = (571, 125);
type = Stem;
},
{
place = (30, 184);
place = (30, 184);
type = Stem;
},
{
place = (353, 180);
place = (353, 180);
type = Stem;
},
{
horizontal = 1;
place = (0, 108);
place = (0, 108);
type = Stem;
},
{
horizontal = 1;
place = (426, 122);
place = (426, 122);
type = Stem;
},
{
place = (48, 170);
place = (48, 170);
type = Stem;
}
);
layerId = m01;
shapes = (
{
closed = 1;
nodes = (
(335,571,l),
(490,696,l),
(330,696,l),
(239,571,l)
);
},
{
closed = 1;
nodes = (
(367,0,l),
(543,0,l),
(535,59,o),
(533,95,o),
(533,135,cs),
(533,285,ls),
(533,318,o),
(532,349,o),
(530,376,cs),
(522,473,o),
(464,548,o),
(295,548,cs),
(160,548,o),
(49,477,o),
(48,352,c),
(218,353,l),
(221,399,o),
(245,426,o),
(287,426,cs),
(326,426,o),
(348,402,o),
(351,375,cs),
(353,358,o),
(353,347,o),
(353,336,cs),
(353,328,l),
(319,328,ls),
(138,328,o),
(30,258,o),
(30,144,cs),
(30,41,o),
(113,-14,o),
(201,-14,cs),
(250,-14,o),
(295,-2,o),
(333,22,c),
(355,78,l)
);
},
{
closed = 1;
nodes = (
(239,108,o),
(214,126,o),
(214,158,cs),
(214,211,o),
(272,232,o),
(353,226,c),
(353,191,ls),
(353,135,o),
(311,108,o),
(275,108,cs)
);
}
);
width = 587;
}
);
note = aacute;
unicode = 225;
},
{
glyphname = abreve;
kernLeft = a;
layers = (
{
hints = (
{
horizontal = 1;
place = (-14, 21);
target = up;
type = BottomGhost;
},
{
horizontal = 1;
place = (226, 102);
place = (226, 102);
type = Stem;
},
{
horizontal = 1;
place = (568, 128);
place = (568, 128);
type = Stem;
},
{
place = (30, 184);
place = (30, 184);
type = Stem;
},
{
place = (353, 180);
place = (353, 180);
type = Stem;
},
{
horizontal = 1;
place = (568, 85);
place = (568, 85);
type = Stem;
},
{
horizontal = 1;
place = (0, 108);
place = (0, 108);
type = Stem;
},
{
horizontal = 1;
place = (426, 122);
place = (426, 122);
type = Stem;
},
{
place = (48, 170);
place = (48, 170);
type = Stem;
}
);
layerId = m01;
shapes = (
{
closed = 1;
nodes = (
(364,568,o),
(428,597,o),
(428,696,c),
(338,696,l),
(336,669,o),
(322,653,o),
(293,653,cs),
(264,653,o),
(250,669,o),
(248,696,c),
(158,696,l),
(158,597,o),
(221,568,o),
(293,568,cs)
);
},
{
closed = 1;
nodes = (
(367,0,l),
(543,0,l),
(535,59,o),
(533,95,o),
(533,135,cs),
(533,285,ls),
(533,318,o),
(532,349,o),
(530,376,cs),
(522,473,o),
(464,548,o),
(295,548,cs),
(160,548,o),
(49,477,o),
(48,352,c),
(218,353,l),
(221,399,o),
(245,426,o),
(287,426,cs),
(326,426,o),
(348,402,o),
(351,375,cs),
(353,358,o),
(353,347,o),
(353,336,cs),
(353,328,l),
(319,328,ls),
(138,328,o),
(30,258,o),
(30,144,cs),
(30,41,o),
(113,-14,o),
(201,-14,cs),
(250,-14,o),
(295,-2,o),
(333,22,c),
(355,78,l)
);
},
{
closed = 1;
nodes = (
(239,108,o),
(214,126,o),
(214,158,cs),
(214,211,o),
(272,232,o),
(353,226,c),
(353,191,ls),
(353,135,o),
(311,108,o),
(275,108,cs)
);
}
);
width = 587;
}
);
note = abreve;
unicode = 259;
},
{
glyphname = acircumflex;
kernLeft = a;
layers = (
{
hints = (
{
horizontal = 1;
place = (-14, 21);
target = up;
type = BottomGhost;
},
{
horizontal = 1;
place = (226, 102);
place = (226, 102);
type = Stem;
},
{
horizontal = 1;
place = (571, 125);
place = (571, 125);
type = Stem;
},
{
place = (30, 184);
place = (30, 184);
type = Stem;
},
{
place = (353, 180);
place = (353, 180);
type = Stem;
},
{
horizontal = 1;
place = (647, 49);
place = (647, 49);
type = Stem;
},
{
horizontal = 1;
place = (0, 108);
place = (0, 108);
type = Stem;
},
{
horizontal = 1;
place = (426, 122);
place = (426, 122);
type = Stem;
},
{
place = (48, 170);
place = (48, 170);
type = Stem;
}
);
layerId = m01;
shapes = (
{
closed = 1;
nodes = (
(260,571,l),
(292,647,l),
(326,571,l),
(430,571,l),
(368,696,l),
(219,696,l),
(157,571,l)
);
},
{
closed = 1;
nodes = (
(367,0,l),
(543,0,l),
(535,59,o),
(533,95,o),
(533,135,cs),
(533,285,ls),
(533,318,o),
(532,349,o),
(530,376,cs),
(522,473,o),
(464,548,o),
(295,548,cs),
(160,548,o),
(49,477,o),
(48,352,c),
(218,353,l),
(221,399,o),
(245,426,o),
(287,426,cs),
(326,426,o),
(348,402,o),
(351,375,cs),
(353,358,o),
(353,347,o),
(353,336,cs),
(353,328,l),
(319,328,ls),
(138,328,o),
(30,258,o),
(30,144,cs),
(30,41,o),
(113,-14,o),
(201,-14,cs),
(250,-14,o),
(295,-2,o),
(333,22,c),
(355,78,l)
);
},
{
closed = 1;
nodes = (
(239,108,o),
(214,126,o),
(214,158,cs),
(214,211,o),
(272,232,o),
(353,226,c),
(353,191,ls),
(353,135,o),
(311,108,o),
(275,108,cs)
);
}
);
width = 587;
}
);
note = acircumflex;
unicode = 226;
},
{
glyphname = adieresis;
kernLeft = a;
lastChange = "2022-11-29 10:01:14 +0000";
layers = (
{
hints = (
{
horizontal = 1;
place = (0, 108);
place = (0, 108);
type = Stem;
},
{
horizontal = 1;
place = (226, 102);
place = (226, 102);
type = Stem;
},
{
horizontal = 1;
place = (426, 122);
place = (426, 122);
type = Stem;
},
{
horizontal = 1;
place = (569, 146);
place = (569, 146);
type = Stem;
},
{
place = (118, 150);
place = (118, 150);
type = Stem;
},
{
place = (318, 150);
place = (318, 150);
type = Stem;
},
{
place = (48, 170);
place = (48, 170);
type = Stem;
},
{
place = (353, 180);
place = (353, 180);
type = Stem;
},
{
horizontal = 1;
place = (-14, 21);
target = up;
type = BottomGhost;
},
{
place = (30, 184);
place = (30, 184);
type = Stem;
}
);
layerId = m01;
shapes = (
{
closed = 1;
nodes = (
(367,0,l),
(543,0,l),
(535,59,o),
(533,95,o),
(533,135,cs),
(533,285,ls),
(533,318,o),
(532,349,o),
(530,376,cs),
(522,473,o),
(464,548,o),
(295,548,cs),
(160,548,o),
(49,477,o),
(48,352,c),
(218,353,l),
(221,399,o),
(245,426,o),
(287,426,cs),
(326,426,o),
(348,402,o),
(351,375,cs),
(353,358,o),
(353,347,o),
(353,336,cs),
(353,328,l),
(319,328,ls),
(138,328,o),
(30,258,o),
(30,144,cs),
(30,41,o),
(113,-14,o),
(201,-14,cs),
(250,-14,o),
(295,-2,o),
(333,22,c),
(355,78,l)
);
},
{
closed = 1;
nodes = (
(239,108,o),
(214,126,o),
(214,158,cs),
(214,211,o),
(272,232,o),
(353,226,c),
(353,191,ls),
(353,135,o),
(311,108,o),
(275,108,cs)
);
},
{
closed = 1;
nodes = (
(120,572,l),
(270,572,l),
(270,719,l),
(120,719,l)
);
},
{
closed = 1;
nodes = (
(321,572,l),
(471,572,l),
(471,719,l),
(321,719,l)
);
}
);
width = 587;
}
);
note = adieresis;
unicode = 228;
},
{
glyphname = agrave;
kernLeft = a;
layers = (
{
hints = (
{
horizontal = 1;
place = (-14, 21);
target = up;
type = BottomGhost;
},
{
horizontal = 1;
place = (226, 102);
place = (226, 102);
type = Stem;
},
{
horizontal = 1;
place = (571, 125);
place = (571, 125);
type = Stem;
},
{
place = (30, 184);
place = (30, 184);
type = Stem;
},
{
place = (353, 180);
place = (353, 180);
type = Stem;
},
{
horizontal = 1;
place = (0, 108);
place = (0, 108);
type = Stem;
},
{
horizontal = 1;
place = (426, 122);
place = (426, 122);
type = Stem;
},
{
place = (48, 170);
place = (48, 170);
type = Stem;
}
);
layerId = m01;
shapes = (
{
closed = 1;
nodes = (
(266,571,l),
(362,571,l),
(271,696,l),
(111,696,l)
);
},
{
closed = 1;
nodes = (
(367,0,l),
(543,0,l),
(535,59,o),
(533,95,o),
(533,135,cs),
(533,285,ls),
(533,318,o),
(532,349,o),
(530,376,cs),
(522,473,o),
(464,548,o),
(295,548,cs),
(160,548,o),
(49,477,o),
(48,352,c),
(218,353,l),
(221,399,o),
(245,426,o),
(287,426,cs),
(326,426,o),
(348,402,o),
(351,375,cs),
(353,358,o),
(353,347,o),
(353,336,cs),
(353,328,l),
(319,328,ls),
(138,328,o),
(30,258,o),
(30,144,cs),
(30,41,o),
(113,-14,o),
(201,-14,cs),
(250,-14,o),
(295,-2,o),
(333,22,c),
(355,78,l)
);
},
{
closed = 1;
nodes = (
(239,108,o),
(214,126,o),
(214,158,cs),
(214,211,o),
(272,232,o),
(353,226,c),
(353,191,ls),
(353,135,o),
(311,108,o),
(275,108,cs)
);
}
);
width = 587;
}
);
note = agrave;
unicode = 224;
},
{
glyphname = amacron;
kernLeft = a;
layers = (
{
hints = (
{
horizontal = 1;
place = (0, 108);
place = (0, 108);
type = Stem;
},
{
horizontal = 1;
place = (226, 102);
place = (226, 102);
type = Stem;
},
{
horizontal = 1;
place = (426, 122);
place = (426, 122);
type = Stem;
},
{
horizontal = 1;
place = (586, 96);
place = (586, 96);
type = Stem;
},
{
place = (143, 300);
place = (143, 300);
type = Stem;
},
{
place = (48, 170);
place = (48, 170);
type = Stem;
},
{
place = (353, 180);
place = (353, 180);
type = Stem;
},
{
horizontal = 1;
place = (-14, 21);
target = up;
type = BottomGhost;
},
{
place = (30, 184);
place = (30, 184);
type = Stem;
}
);
layerId = m01;
shapes = (
{
closed = 1;
nodes = (
(443,586,l),
(443,682,l),
(143,682,l),
(143,586,l)
);
},
{
closed = 1;
nodes = (
(367,0,l),
(543,0,l),
(535,59,o),
(533,95,o),
(533,135,cs),
(533,285,ls),
(533,318,o),
(532,349,o),
(530,376,cs),
(522,473,o),
(464,548,o),
(295,548,cs),
(160,548,o),
(49,477,o),
(48,352,c),
(218,353,l),
(221,399,o),
(245,426,o),
(287,426,cs),
(326,426,o),
(348,402,o),
(351,375,cs),
(353,358,o),
(353,347,o),
(353,336,cs),
(353,328,l),
(319,328,ls),
(138,328,o),
(30,258,o),
(30,144,cs),
(30,41,o),
(113,-14,o),
(201,-14,cs),
(250,-14,o),
(295,-2,o),
(333,22,c),
(355,78,l)
);
},
{
closed = 1;
nodes = (
(239,108,o),
(214,126,o),
(214,158,cs),
(214,211,o),
(272,232,o),
(353,226,c),
(353,191,ls),
(353,135,o),
(311,108,o),
(275,108,cs)
);
}
);
width = 587;
}
);
note = amacron;
unicode = 257;
},
{
glyphname = aogonek;
kernLeft = a;
layers = (
{
hints = (
{
horizontal = 1;
place = (-223, 102);
place = (-223, 102);
type = Stem;
},
{
horizontal = 1;
place = (0, 21);
target = up;
type = BottomGhost;
},
{
horizontal = 1;
place = (226, 102);
place = (226, 102);
type = Stem;
},
{
horizontal = 1;
place = (426, 122);
place = (426, 122);
type = Stem;
},
{
place = (30, 184);
place = (30, 184);
type = Stem;
},
{
place = (281, 249);
place = (281, 249);
type = Stem;
},
{
place = (48, 170);
place = (48, 170);
type = Stem;
},
{
place = (353, 180);
place = (353, 180);
type = Stem;
},
{
horizontal = 1;
place = (-14, 21);
target = up;
type = BottomGhost;
},
{
horizontal = 1;
place = (-14, 122);
place = (-14, 122);
type = Stem;
}
);
layerId = m01;
shapes = (
{
closed = 1;
nodes = (
(445,-32,o),
(465,0,o),
(490,0,cs),
(543,0,l),
(535,59,o),
(533,95,o),
(533,135,cs),
(533,285,ls),
(533,318,o),
(532,349,o),
(530,376,cs),
(522,473,o),
(464,548,o),
(295,548,cs),
(160,548,o),
(49,477,o),
(48,352,c),
(218,353,l),
(221,399,o),
(245,426,o),
(287,426,cs),
(326,426,o),
(348,402,o),
(351,375,cs),
(353,358,o),
(353,347,o),
(353,336,cs),
(353,328,l),
(319,328,ls),
(138,328,o),
(30,258,o),
(30,144,cs),
(30,41,o),
(113,-14,o),
(201,-14,cs),
(250,-14,o),
(295,-2,o),
(333,22,c),
(355,78,l),
(366,5,l),
(322,-21,o),
(281,-77,o),
(281,-137,cs),
(281,-201,o),
(329,-223,o),
(395,-223,cs),
(459,-223,o),
(501,-202,o),
(530,-173,c),
(530,-100,l),
(514,-115,o),
(500,-121,o),
(486,-121,cs),
(466,-121,o),
(445,-108,o),
(445,-70,cs)
);
},
{
closed = 1;
nodes = (
(239,108,o),
(214,126,o),
(214,158,cs),
(214,211,o),
(272,232,o),
(353,226,c),
(353,191,ls),
(353,135,o),
(311,108,o),
(275,108,cs)
);
}
);
width = 587;
}
);
note = aogonek;
unicode = 261;
},
{
glyphname = aring;
kernLeft = a;
layers = (
{
hints = (
{
horizontal = 1;
place = (0, 108);
place = (0, 108);
type = Stem;
},
{
horizontal = 1;
place = (226, 102);
place = (226, 102);
type = Stem;
},
{
horizontal = 1;
place = (426, 122);
place = (426, 122);
type = Stem;
},
{
horizontal = 1;
place = (567, 66);
place = (567, 66);
type = Stem;
},
{
horizontal = 1;
place = (715, 66);
place = (715, 66);
type = Stem;
},
{
place = (174, 83);
place = (174, 83);
type = Stem;
},
{
place = (329, 83);
place = (329, 83);
type = Stem;
},
{
place = (48, 170);
place = (48, 170);
type = Stem;
},
{
place = (353, 180);
place = (353, 180);
type = Stem;
},
{
horizontal = 1;
place = (-14, 21);
target = up;
type = BottomGhost;
},
{
place = (30, 184);
place = (30, 184);
type = Stem;
}
);
layerId = m01;
shapes = (
{
closed = 1;
nodes = (
(363,567,o),
(412,610,o),
(412,674,cs),
(412,738,o),
(363,781,o),
(293,781,cs),
(223,781,o),
(174,738,o),
(174,674,cs),
(174,610,o),
(223,567,o),
(293,567,cs)
);
},
{
closed = 1;
nodes = (
(314,715,o),
(329,700,o),
(329,674,cs),
(329,648,o),
(314,633,o),
(293,633,cs),
(272,633,o),
(257,648,o),
(257,674,cs),
(257,700,o),
(272,715,o),
(293,715,cs)
);
},
{
closed = 1;
nodes = (
(367,0,l),
(543,0,l),
(535,59,o),
(533,95,o),
(533,135,cs),
(533,285,ls),
(533,318,o),
(532,349,o),
(530,376,cs),
(522,473,o),
(464,548,o),
(295,548,cs),
(160,548,o),
(49,477,o),
(48,352,c),
(218,353,l),
(221,399,o),
(245,426,o),
(287,426,cs),
(326,426,o),
(348,402,o),
(351,375,cs),
(353,358,o),
(353,347,o),
(353,336,cs),
(353,328,l),
(319,328,ls),
(138,328,o),
(30,258,o),
(30,144,cs),
(30,41,o),
(113,-14,o),
(201,-14,cs),
(250,-14,o),
(295,-2,o),
(333,22,c),
(355,78,l)
);
},
{
closed = 1;
nodes = (
(239,108,o),
(214,126,o),
(214,158,cs),
(214,211,o),
(272,232,o),
(353,226,c),
(353,191,ls),
(353,135,o),
(311,108,o),
(275,108,cs)
);
}
);
width = 587;
}
);
note = aring;
unicode = 229;
},
{
glyphname = atilde;
kernLeft = a;
layers = (
{
hints = (
{
horizontal = 1;
place = (-14, 21);
target = up;
type = BottomGhost;
},
{
horizontal = 1;
place = (226, 102);
place = (226, 102);
type = Stem;
},
{
horizontal = 1;
place = (426, 122);
place = (426, 122);
type = Stem;
},
{
horizontal = 1;
place = (574, 134);
place = (574, 134);
type = Stem;
},
{
place = (129, 96);
place = (129, 96);
type = Stem;
},
{
place = (353, 180);
place = (353, 180);
type = Stem;
},
{
horizontal = 1;
place = (571, 134);
place = (571, 134);
type = Stem;
},
{
place = (30, 184);
place = (30, 184);
type = Stem;
},
{
place = (361, 96);
place = (361, 96);
type = Stem;
},
{
horizontal = 1;
place = (571, 103);
place = (571, 103);
type = Stem;
},
{
horizontal = 1;
place = (0, 108);
place = (0, 108);
type = Stem;
},
{
place = (48, 170);
place = (48, 170);
type = Stem;
}
);
layerId = m01;
shapes = (
{
closed = 1;
nodes = (
(248,605,o),
(261,600,o),
(285,590,cs),
(322,574,o),
(338,571,o),
(367,571,cs),
(429,571,o),
(457,612,o),
(457,705,c),
(361,705,l),
(361,683,o),
(357,674,o),
(346,674,cs),
(338,674,o),
(325,678,o),
(301,689,cs),
(265,705,o),
(248,708,o),
(219,708,cs),
(157,708,o),
(129,667,o),
(129,574,c),
(225,574,l),
(225,596,o),
(229,605,o),
(240,605,cs)
);
},
{
closed = 1;
nodes = (
(367,0,l),
(543,0,l),
(535,59,o),
(533,95,o),
(533,135,cs),
(533,285,ls),
(533,318,o),
(532,349,o),
(530,376,cs),
(522,473,o),
(464,548,o),
(295,548,cs),
(160,548,o),
(49,477,o),
(48,352,c),
(218,353,l),
(221,399,o),
(245,426,o),
(287,426,cs),
(326,426,o),
(348,402,o),
(351,375,cs),
(353,358,o),
(353,347,o),
(353,336,cs),
(353,328,l),
(319,328,ls),
(138,328,o),
(30,258,o),
(30,144,cs),
(30,41,o),
(113,-14,o),
(201,-14,cs),
(250,-14,o),
(295,-2,o),
(333,22,c),
(355,78,l)
);
},
{
closed = 1;
nodes = (
(239,108,o),
(214,126,o),
(214,158,cs),
(214,211,o),
(272,232,o),
(353,226,c),
(353,191,ls),
(353,135,o),
(311,108,o),
(275,108,cs)
);
}
);
width = 587;
}
);
note = atilde;
unicode = 227;
},
{
glyphname = ae;
kernLeft = a;
kernRight = ae;
layers = (
{
hints = (
{
horizontal = 1;
place = (-14, 122);
place = (-14, 122);
type = Stem;
},
{
horizontal = 1;
place = (222, 110);
place = (222, 110);
type = Stem;
},
{
horizontal = 1;
place = (426, 122);
place = (426, 122);
type = Stem;
},
{
place = (30, 184);
place = (30, 184);
type = Stem;
}
);
layerId = m01;
shapes = (
{
closed = 1;
nodes = (
(950,412,o),
(860,548,o),
(692,548,cs),
(605,548,o),
(530,517,o),
(486,455,c),
(456,514,o),
(392,548,o),
(295,548,cs),
(160,548,o),
(49,477,o),
(48,352,c),
(218,352,l),
(221,399,o),
(255,426,o),
(297,426,cs),
(351,426,o),
(377,397,o),
(377,338,cs),
(377,332,l),
(319,332,ls),
(148,332,o),
(30,271,o),
(30,149,cs),
(30,41,o),
(113,-14,o),
(241,-14,cs),
(290,-14,o),
(345,-2,o),
(383,22,c),
(449,100,l),
(496,23,o),
(574,-14,o),
(672,-14,cs),
(809,-14,o),
(909,54,o),
(940,175,c),
(763,175,l),
(756,134,o),
(725,108,o),
(674,108,cs),
(623,108,o),
(584,133,o),
(575,222,c),
(947,222,l),
(949,240,o),
(950,258,o),
(950,274,cs)
);
},
{
closed = 1;
nodes = (
(581,332,l),
(594,397,o),
(627,426,o),
(673,426,cs),
(722,426,o),
(753,394,o),
(762,332,c)
);
},
{
closed = 1;
nodes = (
(378,214,ls),
(378,146,o),
(341,108,o),
(286,108,cs),
(239,108,o),
(214,126,o),
(214,163,cs),
(214,210,o),
(264,228,o),
(378,222,c)
);
}
);
width = 974;
}
);
note = ae;
unicode = 230;
},
{
glyphname = b;
kernRight = b;
layers = (
{
hints = (
{
horizontal = 1;
place = (-14, 122);
place = (-14, 122);
type = Stem;
},
{
horizontal = 1;
place = (426, 122);
place = (426, 122);
type = Stem;
},
{
horizontal = 1;
place = (735, -20);
target = down;
type = TopGhost;
},
{
place = (54, 180);
place = (54, 180);
type = Stem;
},
{
place = (461, 184);
place = (461, 184);
type = Stem;
},
{
horizontal = 1;
place = (0, 108);
place = (0, 108);
type = Stem;
}
);
layerId = m01;
shapes = (
{
closed = 1;
nodes = (
(356,548,o),
(304,537,o),
(274,515,c),
(234,456,l),
(234,735,l),
(54,735,l),
(54,0,l),
(234,0,l),
(234,69,l),
(269,12,l),
(296,-4,o),
(348,-14,o),
(392,-14,cs),
(529,-14,o),
(645,89,o),
(645,279,cs),
(645,437,o),
(555,548,o),
(410,548,cs)
);
},
{
closed = 1;
nodes = (
(289,108,o),
(234,144,o),
(234,251,cs),
(234,274,ls),
(234,386,o),
(282,426,o),
(348,426,cs),
(411,426,o),
(461,370,o),
(461,270,cs),
(461,161,o),
(413,108,o),
(343,108,cs)
);
}
);
width = 669;
}
);
note = b;
unicode = 98;
},
{
glyphname = c;
kernLeft = c;
layers = (
{
hints = (
{
horizontal = 1;
place = (-14, 122);
place = (-14, 122);
type = Stem;
},
{
horizontal = 1;
place = (426, 122);
place = (426, 122);
type = Stem;
},
{
place = (24, 184);
place = (24, 184);
type = Stem;
},
{
place = (389, 174);
place = (389, 174);
type = Stem;
}
);
layerId = m01;
shapes = (
{
closed = 1;
nodes = (
(148,548,o),
(24,445,o),
(24,261,cs),
(24,85,o),
(140,-14,o),
(293,-14,cs),
(438,-14,o),
(545,58,o),
(565,196,c),
(388,196,l),
(378,138,o),
(344,108,o),
(303,108,cs),
(242,108,o),
(208,158,o),
(208,272,cs),
(208,375,o),
(241,426,o),
(301,426,cs),
(346,426,o),
(381,400,o),
(389,330,c),
(563,330,l),
(558,450,o),
(462,548,o),
(305,548,cs)
);
}
);
width = 587;
}
);
note = c;
unicode = 99;
},
{
glyphname = cacute;
kernLeft = c;
layers = (
{
hints = (
{
horizontal = 1;
place = (-14, 122);
place = (-14, 122);
type = Stem;
},
{
horizontal = 1;
place = (571, 125);
place = (571, 125);
type = Stem;
},
{
place = (24, 184);
place = (24, 184);
type = Stem;
},
{
horizontal = 1;
place = (426, 122);
place = (426, 122);
type = Stem;
},
{
place = (389, 174);
place = (389, 174);
type = Stem;
}
);
layerId = m01;
shapes = (
{
closed = 1;
nodes = (
(335,571,l),
(490,696,l),
(330,696,l),
(239,571,l)
);
},
{
closed = 1;
nodes = (
(148,548,o),
(24,445,o),
(24,261,cs),
(24,85,o),
(140,-14,o),
(293,-14,cs),
(438,-14,o),
(545,58,o),
(565,196,c),
(388,196,l),
(378,138,o),
(344,108,o),
(303,108,cs),
(242,108,o),
(208,158,o),
(208,272,cs),
(208,375,o),
(241,426,o),
(301,426,cs),
(346,426,o),
(381,400,o),
(389,330,c),
(563,330,l),
(558,450,o),
(462,548,o),
(305,548,cs)
);
}
);
width = 587;
}
);
note = cacute;
unicode = 263;
},
{
glyphname = ccaron;
kernLeft = c;
layers = (
{
hints = (
{
horizontal = 1;
place = (-14, 122);
place = (-14, 122);
type = Stem;
},
{
horizontal = 1;
place = (571, 125);
place = (571, 125);
type = Stem;
},
{
place = (24, 184);
place = (24, 184);
type = Stem;
},
{
horizontal = 1;
place = (426, 122);
place = (426, 122);
type = Stem;
},
{
place = (389, 174);
place = (389, 174);
type = Stem;
}
);
layerId = m01;
shapes = (
{
closed = 1;
nodes = (
(219,571,l),
(368,571,l),
(430,696,l),
(327,696,l),
(295,620,l),
(261,696,l),
(157,696,l)
);
},
{
closed = 1;
nodes = (
(388,196,l),
(378,138,o),
(344,108,o),
(303,108,cs),
(242,108,o),
(208,158,o),
(208,272,cs),
(208,375,o),
(241,426,o),
(301,426,cs),
(346,426,o),
(381,400,o),
(389,330,c),
(563,330,l),
(558,450,o),
(462,548,o),
(305,548,cs),
(148,548,o),
(24,445,o),
(24,261,cs),
(24,85,o),
(140,-14,o),
(293,-14,cs),
(438,-14,o),
(545,58,o),
(565,196,c)
);
}
);
width = 587;
}
);
note = ccaron;
unicode = 269;
},
{
glyphname = ccedilla;
kernLeft = c;
layers = (
{
hints = (
{
horizontal = 1;
place = (-210, 69);
place = (-210, 69);
type = Stem;
},
{
horizontal = 1;
place = (-10, 21);
target = up;
type = BottomGhost;
},
{
horizontal = 1;
place = (426, 122);
place = (426, 122);
type = Stem;
},
{
place = (24, 184);
place = (24, 184);
type = Stem;
},
{
place = (299, 108);
place = (299, 108);
type = Stem;
},
{
place = (389, 174);
place = (389, 174);
type = Stem;
}
);
layerId = m01;
shapes = (
{
closed = 1;
nodes = (
(388,196,l),
(378,138,o),
(344,108,o),
(303,108,cs),
(242,108,o),
(208,158,o),
(208,272,cs),
(208,375,o),
(241,426,o),
(301,426,cs),
(346,426,o),
(381,400,o),
(389,330,c),
(563,330,l),
(558,450,o),
(462,548,o),
(305,548,cs),
(148,548,o),
(24,445,o),
(24,261,cs),
(24,106,o),
(114,11,o),
(240,-10,c),
(202,-88,l),
(277,-83,o),
(299,-94,o),
(299,-114,cs),
(299,-132,o),
(282,-141,o),
(239,-141,cs),
(226,-141,o),
(206,-140,o),
(181,-134,c),
(181,-204,l),
(200,-209,o),
(218,-210,o),
(238,-210,cs),
(330,-210,o),
(407,-188,o),
(407,-119,cs),
(407,-74,o),
(375,-49,o),
(312,-42,c),
(326,-13,l),
(454,-2,o),
(547,69,o),
(565,196,c)
);
}
);
width = 587;
}
);
note = ccedilla;
unicode = 231;
},
{
glyphname = cdotaccent;
kernLeft = c;
layers = (
{
hints = (
{
horizontal = 1;
place = (-14, 122);
place = (-14, 122);
type = Stem;
},
{
horizontal = 1;
place = (426, 122);
place = (426, 122);
type = Stem;
},
{
horizontal = 1;
place = (575, 176);
place = (575, 176);
type = Stem;
},
{
place = (200, 186);
place = (200, 186);
type = Stem;
},
{
place = (24, 184);
place = (24, 184);
type = Stem;
},
{
place = (389, 174);
place = (389, 174);
type = Stem;
}
);
layerId = m01;
shapes = (
{
closed = 1;
nodes = (
(237,751,o),
(200,717,o),
(200,663,cs),
(200,609,o),
(237,575,o),
(293,575,cs),
(349,575,o),
(386,609,o),
(386,663,cs),
(386,717,o),
(349,751,o),
(293,751,cs)
);
},
{
closed = 1;
nodes = (
(148,548,o),
(24,445,o),
(24,261,cs),
(24,85,o),
(140,-14,o),
(293,-14,cs),
(438,-14,o),
(545,58,o),
(565,196,c),
(388,196,l),
(378,138,o),
(344,108,o),
(303,108,cs),
(242,108,o),
(208,158,o),
(208,272,cs),
(208,375,o),
(241,426,o),
(301,426,cs),
(346,426,o),
(381,400,o),
(389,330,c),
(563,330,l),
(558,450,o),
(462,548,o),
(305,548,cs)
);
}
);
width = 587;
}
);
note = cdotaccent;
unicode = 267;
},
{
glyphname = d;
kernLeft = c;
layers = (
{
hints = (
{
horizontal = 1;
place = (-14, 122);
place = (-14, 122);
type = Stem;
},
{
horizontal = 1;
place = (426, 122);
place = (426, 122);
type = Stem;
},
{
horizontal = 1;
place = (735, -20);
target = down;
type = TopGhost;
},
{
place = (24, 184);
place = (24, 184);
type = Stem;
},
{
place = (435, 180);
place = (435, 180);
type = Stem;
},
{
horizontal = 1;
place = (0, 108);
place = (0, 108);
type = Stem;
}
);
layerId = m01;
shapes = (
{
closed = 1;
nodes = (
(615,735,l),
(435,735,l),
(435,465,l),
(400,522,l),
(373,538,o),
(321,548,o),
(277,548,cs),
(140,548,o),
(24,445,o),
(24,255,cs),
(24,97,o),
(114,-14,o),
(259,-14,cs),
(313,-14,o),
(365,-3,o),
(395,19,c),
(435,78,l),
(435,0,l),
(615,0,l)
);
},
{
closed = 1;
nodes = (
(258,108,o),
(208,164,o),
(208,264,cs),
(208,373,o),
(256,426,o),
(326,426,cs),
(380,426,o),
(435,390,o),
(435,283,cs),
(435,260,ls),
(435,148,o),
(387,108,o),
(321,108,cs)
);
}
);
width = 669;
}
);
note = d;
unicode = 100;
},
{
glyphname = eth;
kernLeft = c;
layers = (
{
hints = (
{
horizontal = 1;
place = (-14, 132);
place = (-14, 132);
type = Stem;
},
{
horizontal = 1;
place = (416, 132);
place = (416, 132);
type = Stem;
},
{
horizontal = 1;
place = (696, -20);
target = down;
type = TopGhost;
},
{
horizontal = 1;
place = (745, -20);
target = down;
type = TopGhost;
},
{
place = (24, 188);
place = (24, 188);
type = Stem;
},
{
place = (435, 184);
place = (435, 184);
type = Stem;
}
);
layerId = m01;
shapes = (
{
closed = 1;
nodes = (
(593,623,l),
(581,696,l),
(495,680,l),
(466,705,o),
(431,727,o),
(391,745,c),
(236,679,l),
(261,668,o),
(283,657,o),
(302,644,c),
(237,632,l),
(249,559,l),
(373,582,l),
(402,546,o),
(418,506,o),
(423,465,c),
(380,519,l),
(343,541,o),
(317,548,o),
(288,548,cs),
(141,548,o),
(24,450,o),
(24,267,cs),
(24,102,o),
(123,-14,o),
(327,-14,cs),
(464,-14,o),
(619,67,o),
(619,307,cs),
(619,447,o),
(597,544,o),
(551,615,c)
);
},
{
closed = 1;
nodes = (
(435,260,ls),
(435,178,o),
(403,118,o),
(327,118,cs),
(256,118,o),
(212,163,o),
(212,267,cs),
(212,359,o),
(250,416,o),
(328,416,cs),
(394,416,o),
(435,364,o),
(435,289,cs)
);
}
);
width = 662;
}
);
note = eth;
unicode = 240;
},
{
glyphname = dcaron;
kernLeft = c;
layers = (
{
hints = (
{
horizontal = 1;
place = (-14, 122);
place = (-14, 122);
type = Stem;
},
{
horizontal = 1;
place = (556, 179);
place = (556, 179);
type = Stem;
},
{
place = (24, 184);
place = (24, 184);
type = Stem;
},
{
place = (435, 180);
place = (435, 180);
type = Stem;
},
{
horizontal = 1;
place = (426, 122);
place = (426, 122);
type = Stem;
},
{
horizontal = 1;
place = (0, 108);
place = (0, 108);
type = Stem;
}
);
layerId = m01;
shapes = (
{
closed = 1;
nodes = (
(435,735,l),
(435,465,l),
(400,522,l),
(373,538,o),
(321,548,o),
(277,548,cs),
(140,548,o),
(24,445,o),
(24,255,cs),
(24,97,o),
(114,-14,o),
(259,-14,cs),
(313,-14,o),
(365,-3,o),
(395,19,c),
(435,78,l),
(435,0,l),
(615,0,l),
(615,735,l)
);
},
{
closed = 1;
nodes = (
(836,735,l),
(722,735,l),
(638,556,l),
(735,556,l),
(836,725,l)
);
},
{
closed = 1;
nodes = (
(258,108,o),
(208,164,o),
(208,264,cs),
(208,373,o),
(256,426,o),
(326,426,cs),
(380,426,o),
(435,390,o),
(435,283,cs),
(435,260,ls),
(435,148,o),
(387,108,o),
(321,108,cs)
);
}
);
width = 661;
}
);
note = dcaron;
unicode = 271;
},
{
glyphname = dcroat;
kernLeft = c;
layers = (
{
hints = (
{
horizontal = 1;
place = (-14, 122);
place = (-14, 122);
type = Stem;
},
{
horizontal = 1;
place = (575, 160);
place = (575, 160);
type = Stem;
},
{
place = (24, 184);
place = (24, 184);
type = Stem;
},
{
place = (435, 180);
place = (435, 180);
type = Stem;
},
{
horizontal = 1;
place = (575, 96);
place = (575, 96);
type = Stem;
},
{
horizontal = 1;
place = (426, 122);
place = (426, 122);
type = Stem;
},
{
horizontal = 1;
place = (0, 108);
place = (0, 108);
type = Stem;
}
);
layerId = m01;
shapes = (
{
closed = 1;
nodes = (
(655,575,l),
(655,671,l),
(615,671,l),
(615,735,l),
(435,735,l),
(435,671,l),
(315,671,l),
(315,575,l),
(435,575,l),
(435,465,l),
(400,522,l),
(373,538,o),
(321,548,o),
(277,548,cs),
(140,548,o),
(24,445,o),
(24,255,cs),
(24,97,o),
(114,-14,o),
(259,-14,cs),
(313,-14,o),
(365,-3,o),
(395,19,c),
(435,78,l),
(435,0,l),
(615,0,l),
(615,575,l)
);
},
{
closed = 1;
nodes = (
(258,108,o),
(208,164,o),
(208,264,cs),
(208,373,o),
(256,426,o),
(326,426,cs),
(380,426,o),
(435,390,o),
(435,283,cs),
(435,260,ls),
(435,148,o),
(387,108,o),
(321,108,cs)
);
}
);
width = 669;
}
);
note = dcroat;
unicode = 273;
},
{
glyphname = e;
kernLeft = c;
kernRight = ae;
layers = (
{
hints = (
{
horizontal = 1;
place = (-14, 122);
place = (-14, 122);
type = Stem;
},
{
horizontal = 1;
place = (222, 110);
place = (222, 110);
type = Stem;
},
{
horizontal = 1;
place = (426, 122);
place = (426, 122);
type = Stem;
},
{
place = (24, 178);
place = (24, 178);
type = Stem;
}
);
layerId = m01;
shapes = (
{
closed = 1;
nodes = (
(577,412,o),
(487,548,o),
(309,548,cs),
(131,548,o),
(24,421,o),
(24,265,cs),
(24,77,o),
(146,-14,o),
(299,-14,cs),
(436,-14,o),
(536,54,o),
(567,175,c),
(390,175,l),
(383,134,o),
(352,108,o),
(301,108,cs),
(250,108,o),
(211,133,o),
(202,222,c),
(574,222,l),
(576,240,o),
(577,258,o),
(577,274,cs)
);
},
{
closed = 1;
nodes = (
(348,426,o),
(379,395,o),
(389,332,c),
(208,332,l),
(220,398,o),
(253,426,o),
(300,426,cs)
);
}
);
width = 601;
}
);
note = e;
unicode = 101;
},
{
glyphname = eacute;
kernLeft = c;
kernRight = ae;
layers = (
{
hints = (
{
horizontal = 1;
place = (-14, 122);
place = (-14, 122);
type = Stem;
},
{
horizontal = 1;
place = (222, 110);
place = (222, 110);
type = Stem;
},
{
horizontal = 1;
place = (571, 125);
place = (571, 125);
type = Stem;
},
{
place = (24, 178);
place = (24, 178);
type = Stem;
},
{
horizontal = 1;
place = (426, 122);
place = (426, 122);
type = Stem;
}
);
layerId = m01;
shapes = (
{
closed = 1;
nodes = (
(344,571,l),
(499,696,l),
(339,696,l),
(248,571,l)
);
},
{
closed = 1;
nodes = (
(577,412,o),
(487,548,o),
(309,548,cs),
(131,548,o),
(24,421,o),
(24,265,cs),
(24,77,o),
(146,-14,o),
(299,-14,cs),
(436,-14,o),
(536,54,o),
(567,175,c),
(390,175,l),
(383,134,o),
(352,108,o),
(301,108,cs),
(250,108,o),
(211,133,o),
(202,222,c),
(574,222,l),
(576,240,o),
(577,258,o),
(577,274,cs)
);
},
{
closed = 1;
nodes = (
(348,426,o),
(379,395,o),
(389,332,c),
(208,332,l),
(220,398,o),
(253,426,o),
(300,426,cs)
);
}
);
width = 601;
}
);
note = eacute;
unicode = 233;
},
{
glyphname = ecaron;
kernLeft = c;
kernRight = ae;
layers = (
{
hints = (
{
horizontal = 1;
place = (-14, 122);
place = (-14, 122);
type = Stem;
},
{
horizontal = 1;
place = (222, 110);
place = (222, 110);
type = Stem;
},
{
horizontal = 1;
place = (571, 125);
place = (571, 125);
type = Stem;
},
{
place = (24, 178);
place = (24, 178);
type = Stem;
},
{
horizontal = 1;
place = (426, 122);
place = (426, 122);
type = Stem;
}
);
layerId = m01;
shapes = (
{
closed = 1;
nodes = (
(228,571,l),
(377,571,l),
(439,696,l),
(336,696,l),
(304,620,l),
(270,696,l),
(166,696,l)
);
},
{
closed = 1;
nodes = (
(577,412,o),
(487,548,o),
(309,548,cs),
(131,548,o),
(24,421,o),
(24,265,cs),
(24,77,o),
(146,-14,o),
(299,-14,cs),
(436,-14,o),
(536,54,o),
(567,175,c),
(390,175,l),
(383,134,o),
(352,108,o),
(301,108,cs),
(250,108,o),
(211,133,o),
(202,222,c),
(574,222,l),
(576,240,o),
(577,258,o),
(577,274,cs)
);
},
{
closed = 1;
nodes = (
(348,426,o),
(379,395,o),
(389,332,c),
(208,332,l),
(220,398,o),
(253,426,o),
(300,426,cs)
);
}
);
width = 601;
}
);
note = ecaron;
unicode = 283;
},
{
glyphname = ecircumflex;
kernLeft = c;
kernRight = ae;
layers = (
{
hints = (
{
horizontal = 1;
place = (-14, 122);
place = (-14, 122);
type = Stem;
},
{
horizontal = 1;
place = (222, 110);
place = (222, 110);
type = Stem;
},
{
horizontal = 1;
place = (571, 125);
place = (571, 125);
type = Stem;
},
{
place = (24, 178);
place = (24, 178);
type = Stem;
},
{
horizontal = 1;
place = (647, 49);
place = (647, 49);
type = Stem;
},
{
horizontal = 1;
place = (426, 122);
place = (426, 122);
type = Stem;
}
);
layerId = m01;
shapes = (
{
closed = 1;
nodes = (
(269,571,l),
(301,647,l),
(335,571,l),
(439,571,l),
(377,696,l),
(228,696,l),
(166,571,l)
);
},
{
closed = 1;
nodes = (
(577,412,o),
(487,548,o),
(309,548,cs),
(131,548,o),
(24,421,o),
(24,265,cs),
(24,77,o),
(146,-14,o),
(299,-14,cs),
(436,-14,o),
(536,54,o),
(567,175,c),
(390,175,l),
(383,134,o),
(352,108,o),
(301,108,cs),
(250,108,o),
(211,133,o),
(202,222,c),
(574,222,l),
(576,240,o),
(577,258,o),
(577,274,cs)
);
},
{
closed = 1;
nodes = (
(348,426,o),
(379,395,o),
(389,332,c),
(208,332,l),
(220,398,o),
(253,426,o),
(300,426,cs)
);
}
);
width = 601;
}
);
note = ecircumflex;
unicode = 234;
},
{
glyphname = edieresis;
kernLeft = c;
kernRight = ae;
lastChange = "2022-11-29 10:01:14 +0000";
layers = (
{
hints = (
{
horizontal = 1;
place = (-14, 122);
place = (-14, 122);
type = Stem;
},
{
horizontal = 1;
place = (222, 110);
place = (222, 110);
type = Stem;
},
{
horizontal = 1;
place = (426, 122);
place = (426, 122);
type = Stem;
},
{
horizontal = 1;
place = (569, 146);
place = (569, 146);
type = Stem;
},
{
place = (127, 150);
place = (127, 150);
type = Stem;
},
{
place = (327, 150);
place = (327, 150);
type = Stem;
},
{
place = (24, 178);
place = (24, 178);
type = Stem;
}
);
layerId = m01;
shapes = (
{
closed = 1;
nodes = (
(577,412,o),
(487,548,o),
(309,548,cs),
(131,548,o),
(24,421,o),
(24,265,cs),
(24,77,o),
(146,-14,o),
(299,-14,cs),
(436,-14,o),
(536,54,o),
(567,175,c),
(390,175,l),
(383,134,o),
(352,108,o),
(301,108,cs),
(250,108,o),
(211,133,o),
(202,222,c),
(574,222,l),
(576,240,o),
(577,258,o),
(577,274,cs)
);
},
{
closed = 1;
nodes = (
(348,426,o),
(379,395,o),
(389,332,c),
(208,332,l),
(220,398,o),
(253,426,o),
(300,426,cs)
);
},
{
closed = 1;
nodes = (
(128,567,l),
(278,567,l),
(278,714,l),
(128,714,l)
);
},
{
closed = 1;
nodes = (
(329,567,l),
(479,567,l),
(479,714,l),
(329,714,l)
);
}
);
width = 601;
}
);
note = edieresis;
unicode = 235;
},
{
glyphname = edotaccent;
kernLeft = c;
kernRight = ae;
layers = (
{
hints = (
{
horizontal = 1;
place = (-14, 122);
place = (-14, 122);
type = Stem;
},
{
horizontal = 1;
place = (222, 110);
place = (222, 110);
type = Stem;
},
{
horizontal = 1;
place = (426, 122);
place = (426, 122);
type = Stem;
},
{
horizontal = 1;
place = (575, 176);
place = (575, 176);
type = Stem;
},
{
place = (209, 186);
place = (209, 186);
type = Stem;
},
{
place = (24, 178);
place = (24, 178);
type = Stem;
}
);
layerId = m01;
shapes = (
{
closed = 1;
nodes = (
(358,575,o),
(395,609,o),
(395,663,cs),
(395,717,o),
(358,751,o),
(302,751,cs),
(246,751,o),
(209,717,o),
(209,663,cs),
(209,609,o),
(246,575,o),
(302,575,cs)
);
},
{
closed = 1;
nodes = (
(577,412,o),
(487,548,o),
(309,548,cs),
(131,548,o),
(24,421,o),
(24,265,cs),
(24,77,o),
(146,-14,o),
(299,-14,cs),
(436,-14,o),
(536,54,o),
(567,175,c),
(390,175,l),
(383,134,o),
(352,108,o),
(301,108,cs),
(250,108,o),
(211,133,o),
(202,222,c),
(574,222,l),
(576,240,o),
(577,258,o),
(577,274,cs)
);
},
{
closed = 1;
nodes = (
(348,426,o),
(379,395,o),
(389,332,c),
(208,332,l),
(220,398,o),
(253,426,o),
(300,426,cs)
);
}
);
width = 601;
}
);
note = edotaccent;
unicode = 279;
},
{
glyphname = egrave;
kernLeft = c;
kernRight = ae;
layers = (
{
hints = (
{
horizontal = 1;
place = (-14, 122);
place = (-14, 122);
type = Stem;
},
{
horizontal = 1;
place = (222, 110);
place = (222, 110);
type = Stem;
},
{
horizontal = 1;
place = (571, 125);
place = (571, 125);
type = Stem;
},
{
place = (24, 178);
place = (24, 178);
type = Stem;
},
{
horizontal = 1;
place = (426, 122);
place = (426, 122);
type = Stem;
}
);
layerId = m01;
shapes = (
{
closed = 1;
nodes = (
(275,571,l),
(371,571,l),
(280,696,l),
(120,696,l)
);
},
{
closed = 1;
nodes = (
(577,412,o),
(487,548,o),
(309,548,cs),
(131,548,o),
(24,421,o),
(24,265,cs),
(24,77,o),
(146,-14,o),
(299,-14,cs),
(436,-14,o),
(536,54,o),
(567,175,c),
(390,175,l),
(383,134,o),
(352,108,o),
(301,108,cs),
(250,108,o),
(211,133,o),
(202,222,c),
(574,222,l),
(576,240,o),
(577,258,o),
(577,274,cs)
);
},
{
closed = 1;
nodes = (
(348,426,o),
(379,395,o),
(389,332,c),
(208,332,l),
(220,398,o),
(253,426,o),
(300,426,cs)
);
}
);
width = 601;
}
);
note = egrave;
unicode = 232;
},
{
glyphname = emacron;
kernLeft = c;
kernRight = ae;
layers = (
{
hints = (
{
horizontal = 1;
place = (-14, 122);
place = (-14, 122);
type = Stem;
},
{
horizontal = 1;
place = (222, 110);
place = (222, 110);
type = Stem;
},
{
horizontal = 1;
place = (426, 122);
place = (426, 122);
type = Stem;
},
{
horizontal = 1;
place = (586, 96);
place = (586, 96);
type = Stem;
},
{
place = (152, 300);
place = (152, 300);
type = Stem;
},
{
place = (24, 178);
place = (24, 178);
type = Stem;
}
);
layerId = m01;
shapes = (
{
closed = 1;
nodes = (
(452,586,l),
(452,682,l),
(152,682,l),
(152,586,l)
);
},
{
closed = 1;
nodes = (
(577,412,o),
(487,548,o),
(309,548,cs),
(131,548,o),
(24,421,o),
(24,265,cs),
(24,77,o),
(146,-14,o),
(299,-14,cs),
(436,-14,o),
(536,54,o),
(567,175,c),
(390,175,l),
(383,134,o),
(352,108,o),
(301,108,cs),
(250,108,o),
(211,133,o),
(202,222,c),
(574,222,l),
(576,240,o),
(577,258,o),
(577,274,cs)
);
},
{
closed = 1;
nodes = (
(348,426,o),
(379,395,o),
(389,332,c),
(208,332,l),
(220,398,o),
(253,426,o),
(300,426,cs)
);
}
);
width = 601;
}
);
note = emacron;
unicode = 275;
},
{
glyphname = eogonek;
kernLeft = c;
kernRight = ae;
layers = (
{
hints = (
{
horizontal = 1;
place = (-4, 21);
target = up;
type = BottomGhost;
},
{
horizontal = 1;
place = (222, 110);
place = (222, 110);
type = Stem;
},
{
horizontal = 1;
place = (426, 122);
place = (426, 122);
type = Stem;
},
{
place = (24, 178);
place = (24, 178);
type = Stem;
},
{
horizontal = 1;
place = (-11, 21);
target = up;
type = BottomGhost;
},
{
horizontal = 1;
place = (-223, 102);
place = (-223, 102);
type = Stem;
},
{
place = (191, 249);
place = (191, 249);
type = Stem;
}
);
layerId = m01;
shapes = (
{
closed = 1;
nodes = (
(577,412,o),
(487,548,o),
(309,548,cs),
(131,548,o),
(24,421,o),
(24,265,cs),
(24,96,o),
(123,5,o),
(254,-11,c),
(219,-40,o),
(191,-88,o),
(191,-137,cs),
(191,-201,o),
(239,-223,o),
(305,-223,cs),
(369,-223,o),
(411,-202,o),
(440,-173,c),
(440,-100,l),
(424,-115,o),
(410,-121,o),
(396,-121,cs),
(376,-121,o),
(355,-108,o),
(355,-70,cs),
(355,-40,o),
(368,-14,o),
(385,-4,c),
(390,-3,o),
(395,-1,o),
(399,0,cs),
(484,26,o),
(544,86,o),
(567,175,c),
(390,175,l),
(383,134,o),
(352,108,o),
(301,108,cs),
(250,108,o),
(211,133,o),
(202,222,c),
(574,222,l),
(576,240,o),
(577,258,o),
(577,274,cs)
);
},
{
closed = 1;
nodes = (
(348,426,o),
(379,395,o),
(389,332,c),
(208,332,l),
(220,398,o),
(253,426,o),
(300,426,cs)
);
}
);
width = 601;
}
);
note = eogonek;
unicode = 281;
},
{
glyphname = f;
layers = (
{
hints = (
{
horizontal = 1;
place = (0, 21);
target = up;
type = BottomGhost;
},
{
horizontal = 1;
place = (418, 112);
place = (418, 112);
type = Stem;
},
{
horizontal = 1;
place = (631.73, 122.27);
place = (631.73, 122.27);
type = Stem;
},
{
place = (76, 180);
place = (76, 180);
type = Stem;
},
{
horizontal = 1;
place = (746, -20);
target = down;
type = TopGhost;
}
);
layerId = m01;
shapes = (
{
closed = 1;
nodes = (
(262,621,o),
(309,640,o),
(374,629,c),
(374,746,l),
(356,751,o),
(335,754,o),
(314,754,cs),
(149,754,o),
(85,692,o),
(77,592,cs),
(76,574,o),
(76,550,o),
(76,534,cs),
(76,530,l),
(19,530,l),
(19,418,l),
(76,418,l),
(76,0,l),
(256,0,l),
(256,418,l),
(365,418,l),
(365,530,l),
(256,530,l),
(256,534,ls),
(256,547,o),
(256,560,o),
(257,574,cs)
);
}
);
width = 378;
}
);
note = f;
unicode = 102;
},
{
glyphname = g;
kernLeft = c;
layers = (
{
hints = (
{
horizontal = 1;
place = (-220, 132);
place = (-220, 132);
type = Stem;
},
{
horizontal = 1;
place = (6, 122);
place = (6, 122);
type = Stem;
},
{
horizontal = 1;
place = (426, 108);
place = (426, 108);
type = Stem;
},
{
place = (24, 184);
place = (24, 184);
type = Stem;
},
{
place = (435, 180);
place = (435, 180);
type = Stem;
},
{
horizontal = 1;
place = (426, 122);
place = (426, 122);
type = Stem;
},
{
place = (37, 174);
place = (37, 174);
type = Stem;
}
);
layerId = m01;
shapes = (
{
closed = 1;
nodes = (
(615,534,l),
(435,534,l),
(435,465,l),
(400,522,l),
(373,538,o),
(321,548,o),
(277,548,cs),
(140,548,o),
(24,453,o),
(24,263,cs),
(24,105,o),
(124,6,o),
(269,6,cs),
(323,6,o),
(365,17,o),
(395,39,c),
(435,98,l),
(435,83,ls),
(435,54,o),
(434,29,o),
(433,13,cs),
(428,-59,o),
(379,-88,o),
(312,-88,cs),
(256,-88,o),
(215,-68,o),
(211,-33,cs),
(210,-23,l),
(36,-23,l),
(37,-33,ls),
(50,-155,o),
(147,-220,o),
(307,-220,cs),
(488,-220,o),
(608,-142,o),
(614,33,cs),
(615,62,o),
(615,103,o),
(615,136,cs)
);
},
{
closed = 1;
nodes = (
(258,128,o),
(208,176,o),
(208,276,cs),
(208,385,o),
(256,426,o),
(326,426,cs),
(380,426,o),
(435,390,o),
(435,283,cs),
(435,280,ls),
(435,168,o),
(387,128,o),
(321,128,cs)
);
}
);
width = 669;
}
);
note = g;
unicode = 103;
},
{
glyphname = gbreve;
kernLeft = c;
layers = (
{
hints = (
{
horizontal = 1;
place = (-220, 132);
place = (-220, 132);
type = Stem;
},
{
horizontal = 1;
place = (6, 122);
place = (6, 122);
type = Stem;
},
{
horizontal = 1;
place = (426, 108);
place = (426, 108);
type = Stem;
},
{
horizontal = 1;
place = (568, 128);
place = (568, 128);
type = Stem;
},
{
place = (24, 184);
place = (24, 184);
type = Stem;
},
{
place = (435, 180);
place = (435, 180);
type = Stem;
},
{
horizontal = 1;
place = (568, 85);
place = (568, 85);
type = Stem;
},
{
horizontal = 1;
place = (426, 122);
place = (426, 122);
type = Stem;
},
{
place = (37, 174);
place = (37, 174);
type = Stem;
}
);
layerId = m01;
shapes = (
{
closed = 1;
nodes = (
(401,568,o),
(465,597,o),
(465,696,c),
(375,696,l),
(373,669,o),
(359,653,o),
(330,653,cs),
(301,653,o),
(287,669,o),
(285,696,c),
(195,696,l),
(195,597,o),
(258,568,o),
(330,568,cs)
);
},
{
closed = 1;
nodes = (
(615,534,l),
(435,534,l),
(435,465,l),
(400,522,l),
(373,538,o),
(321,548,o),
(277,548,cs),
(140,548,o),
(24,453,o),
(24,263,cs),
(24,105,o),
(124,6,o),
(269,6,cs),
(323,6,o),
(365,17,o),
(395,39,c),
(435,98,l),
(435,83,ls),
(435,54,o),
(434,29,o),
(433,13,cs),
(428,-59,o),
(379,-88,o),
(312,-88,cs),
(256,-88,o),
(215,-68,o),
(211,-33,cs),
(210,-23,l),
(36,-23,l),
(37,-33,ls),
(50,-155,o),
(147,-220,o),
(307,-220,cs),
(488,-220,o),
(608,-142,o),
(614,33,cs),
(615,62,o),
(615,103,o),
(615,136,cs)
);
},
{
closed = 1;
nodes = (
(258,128,o),
(208,176,o),
(208,276,cs),
(208,385,o),
(256,426,o),
(326,426,cs),
(380,426,o),
(435,390,o),
(435,283,cs),
(435,280,ls),
(435,168,o),
(387,128,o),
(321,128,cs)
);
}
);
width = 669;
}
);
note = gbreve;
unicode = 287;
},
{
glyphname = gcommaaccent;
kernLeft = c;
layers = (
{
hints = (
{
horizontal = 1;
place = (-220, 132);
place = (-220, 132);
type = Stem;
},
{
horizontal = 1;
place = (6, 122);
place = (6, 122);
type = Stem;
},
{
horizontal = 1;
place = (426, 108);
place = (426, 108);
type = Stem;
},
{
horizontal = 1;
place = (567, 179);
place = (567, 179);
type = Stem;
},
{
place = (24, 184);
place = (24, 184);
type = Stem;
},
{
place = (435, 180);
place = (435, 180);
type = Stem;
},
{
horizontal = 1;
place = (426, 122);
place = (426, 122);
type = Stem;
},
{
place = (37, 174);
place = (37, 174);
type = Stem;
}
);
layerId = m01;
shapes = (
{
closed = 1;
nodes = (
(370,567,l),
(454,746,l),
(357,746,l),
(256,577,l),
(256,567,l)
);
},
{
closed = 1;
nodes = (
(615,534,l),
(435,534,l),
(435,465,l),
(400,522,l),
(373,538,o),
(321,548,o),
(277,548,cs),
(140,548,o),
(24,453,o),
(24,263,cs),
(24,105,o),
(124,6,o),
(269,6,cs),
(323,6,o),
(365,17,o),
(395,39,c),
(435,98,l),
(435,83,ls),
(435,54,o),
(434,29,o),
(433,13,cs),
(428,-59,o),
(379,-88,o),
(312,-88,cs),
(256,-88,o),
(215,-68,o),
(211,-33,cs),
(210,-23,l),
(36,-23,l),
(37,-33,ls),
(50,-155,o),
(147,-220,o),
(307,-220,cs),
(488,-220,o),
(608,-142,o),
(614,33,cs),
(615,62,o),
(615,103,o),
(615,136,cs)
);
},
{
closed = 1;
nodes = (
(258,128,o),
(208,176,o),
(208,276,cs),
(208,385,o),
(256,426,o),
(326,426,cs),
(380,426,o),
(435,390,o),
(435,283,cs),
(435,280,ls),
(435,168,o),
(387,128,o),
(321,128,cs)
);
}
);
width = 661;
}
);
note = gcommaaccent;
unicode = 291;
},
{
glyphname = gdotaccent;
kernLeft = c;
layers = (
{
hints = (
{
horizontal = 1;
place = (-220, 132);
place = (-220, 132);
type = Stem;
},
{
horizontal = 1;
place = (6, 122);
place = (6, 122);
type = Stem;
},
{
horizontal = 1;
place = (426, 122);
place = (426, 122);
type = Stem;
},
{
horizontal = 1;
place = (575, 176);
place = (575, 176);
type = Stem;
},
{
place = (24, 184);
place = (24, 184);
type = Stem;
},
{
place = (237, 186);
place = (237, 186);
type = Stem;
},
{
place = (435, 180);
place = (435, 180);
type = Stem;
},
{
horizontal = 1;
place = (426, 108);
place = (426, 108);
type = Stem;
},
{
place = (37, 174);
place = (37, 174);
type = Stem;
}
);
layerId = m01;
shapes = (
{
closed = 1;
nodes = (
(386,575,o),
(423,609,o),
(423,663,cs),
(423,717,o),
(386,751,o),
(330,751,cs),
(274,751,o),
(237,717,o),
(237,663,cs),
(237,609,o),
(274,575,o),
(330,575,cs)
);
},
{
closed = 1;
nodes = (
(615,534,l),
(435,534,l),
(435,465,l),
(400,522,l),
(373,538,o),
(321,548,o),
(277,548,cs),
(140,548,o),
(24,453,o),
(24,263,cs),
(24,105,o),
(124,6,o),
(269,6,cs),
(323,6,o),
(365,17,o),
(395,39,c),
(435,98,l),
(435,83,ls),
(435,54,o),
(434,29,o),
(433,13,cs),
(428,-59,o),
(379,-88,o),
(312,-88,cs),
(256,-88,o),
(215,-68,o),
(211,-33,cs),
(210,-23,l),
(36,-23,l),
(37,-33,ls),
(50,-155,o),
(147,-220,o),
(307,-220,cs),
(488,-220,o),
(608,-142,o),
(614,33,cs),
(615,62,o),
(615,103,o),
(615,136,cs)
);
},
{
closed = 1;
nodes = (
(258,128,o),
(208,176,o),
(208,276,cs),
(208,385,o),
(256,426,o),
(326,426,cs),
(380,426,o),
(435,390,o),
(435,283,cs),
(435,280,ls),
(435,168,o),
(387,128,o),
(321,128,cs)
);
}
);
width = 669;
}
);
note = gdotaccent;
unicode = 289;
},
{
glyphname = h;
layers = (
{
hints = (
{
horizontal = 1;
place = (0, 21);
target = up;
type = BottomGhost;
},
{
horizontal = 1;
place = (426, 122);
place = (426, 122);
type = Stem;
},
{
horizontal = 1;
place = (740, -20);
target = down;
type = TopGhost;
},
{
place = (54, 180);
place = (54, 180);
type = Stem;
},
{
place = (416, 180);
place = (416, 180);
type = Stem;
}
);
layerId = m01;
shapes = (
{
closed = 1;
nodes = (
(577,496,o),
(512,548,o),
(402,548,cs),
(353,548,o),
(315,537,o),
(282,517,c),
(234,451,l),
(234,740,l),
(54,740,l),
(54,0,l),
(234,0,l),
(234,252,ls),
(234,373,o),
(273,426,o),
(328,426,cs),
(382,426,o),
(410,396,o),
(414,345,cs),
(416,318,o),
(416,289,o),
(416,272,cs),
(416,0,l),
(596,0,l),
(596,302,ls),
(596,345,o),
(595,376,o),
(591,403,cs)
);
}
);
width = 644;
}
);
note = h;
unicode = 104;
},
{
glyphname = hbar;
layers = (
{
hints = (
{
horizontal = 1;
place = (0, 21);
target = up;
type = BottomGhost;
},
{
horizontal = 1;
place = (575, 165);
place = (575, 165);
type = Stem;
},
{
place = (66, 180);
place = (66, 180);
type = Stem;
},
{
place = (428, 180);
place = (428, 180);
type = Stem;
},
{
horizontal = 1;
place = (426, 122);
place = (426, 122);
type = Stem;
},
{
horizontal = 1;
place = (575, 96);
place = (575, 96);
type = Stem;
}
);
layerId = m01;
shapes = (
{
closed = 1;
nodes = (
(589,496,o),
(524,548,o),
(414,548,cs),
(365,548,o),
(327,537,o),
(294,517,c),
(246,451,l),
(246,575,l),
(354,575,l),
(354,671,l),
(246,671,l),
(246,740,l),
(66,740,l),
(66,671,l),
(14,671,l),
(14,575,l),
(66,575,l),
(66,0,l),
(246,0,l),
(246,252,ls),
(246,373,o),
(285,426,o),
(340,426,cs),
(394,426,o),
(422,396,o),
(426,345,cs),
(428,318,o),
(428,289,o),
(428,272,cs),
(428,0,l),
(608,0,l),
(608,302,ls),
(608,345,o),
(607,376,o),
(603,403,cs)
);
}
);
width = 656;
}
);
note = hbar;
unicode = 295;
},
{
glyphname = i;
kernLeft = i;
lastChange = "2022-11-29 10:01:14 +0000";
layers = (
{
hints = (
{
horizontal = 1;
place = (0, 21);
target = up;
type = BottomGhost;
},
{
horizontal = 1;
place = (534, -20);
target = down;
type = TopGhost;
},
{
horizontal = 1;
place = (575, 176);
place = (575, 176);
type = Stem;
},
{
place = (51, 186);
place = (51, 186);
type = Stem;
},
{
place = (54, 180);
place = (54, 180);
type = Stem;
}
);
layerId = m01;
shapes = (
{
closed = 1;
nodes = (
(234,0,l),
(234,534,l),
(54,534,l),
(54,0,l)
);
},
{
closed = 1;
nodes = (
(53,572,l),
(236,572,l),
(236,748,l),
(53,748,l)
);
}
);
width = 288;
}
);
note = i;
unicode = 105;
},
{
glyphname = dotlessi;
kernLeft = i;
layers = (
{
hints = (
{
horizontal = 1;
place = (0, 21);
target = up;
type = BottomGhost;
},
{
horizontal = 1;
place = (534, -20);
target = down;
type = TopGhost;
},
{
place = (54, 180);
place = (54, 180);
type = Stem;
}
);
layerId = m01;
shapes = (
{
closed = 1;
nodes = (
(234,0,l),
(234,534,l),
(54,534,l),
(54,0,l)
);
}
);
width = 288;
}
);
note = dotlessi;
unicode = 305;
},
{
glyphname = iacute;
kernLeft = i;
layers = (
{
hints = (
{
horizontal = 1;
place = (0, 21);
target = up;
type = BottomGhost;
},
{
horizontal = 1;
place = (534, -20);
target = down;
type = TopGhost;
},
{
horizontal = 1;
place = (571, 125);
place = (571, 125);
type = Stem;
},
{
place = (54, 180);
place = (54, 180);
type = Stem;
}
);
layerId = m01;
shapes = (
{
closed = 1;
nodes = (
(186,571,l),
(341,696,l),
(181,696,l),
(90,571,l)
);
},
{
closed = 1;
nodes = (
(234,0,l),
(234,534,l),
(54,534,l),
(54,0,l)
);
}
);
width = 288;
}
);
note = iacute;
unicode = 237;
},
{
glyphname = icircumflex;
kernLeft = i;
layers = (
{
hints = (
{
horizontal = 1;
place = (0, 21);
target = up;
type = BottomGhost;
},
{
horizontal = 1;
place = (534, -20);
target = down;
type = TopGhost;
},
{
horizontal = 1;
place = (571, 125);
place = (571, 125);
type = Stem;
},
{
place = (54, 180);
place = (54, 180);
type = Stem;
},
{
horizontal = 1;
place = (647, 49);
place = (647, 49);
type = Stem;
}
);
layerId = m01;
shapes = (
{
closed = 1;
nodes = (
(111,571,l),
(143,647,l),
(177,571,l),
(281,571,l),
(219,696,l),
(70,696,l),
(8,571,l)
);
},
{
closed = 1;
nodes = (
(54,534,l),
(54,0,l),
(234,0,l),
(234,534,l)
);
}
);
width = 288;
}
);
note = icircumflex;
unicode = 238;
},
{
glyphname = idieresis;
kernLeft = i;
lastChange = "2022-11-29 10:01:14 +0000";
layers = (
{
hints = (
{
horizontal = 1;
place = (0, 21);
target = up;
type = BottomGhost;
},
{
horizontal = 1;
place = (534, -20);
target = down;
type = TopGhost;
},
{
horizontal = 1;
place = (569, 146);
place = (569, 146);
type = Stem;
},
{
place = (54, 180);
place = (54, 180);
type = Stem;
},
{
place = (-31, 150);
place = (-31, 150);
type = Stem;
},
{
place = (169, 150);
place = (169, 150);
type = Stem;
}
);
layerId = m01;
shapes = (
{
closed = 1;
nodes = (
(234,0,l),
(234,534,l),
(54,534,l),
(54,0,l)
);
},
{
closed = 1;
nodes = (
(-29,569,l),
(121,569,l),
(121,716,l),
(-29,716,l)
);
},
{
closed = 1;
nodes = (
(172,569,l),
(322,569,l),
(322,716,l),
(172,716,l)
);
}
);
width = 288;
}
);
note = idieresis;
unicode = 239;
},
{
glyphname = igrave;
kernLeft = i;
layers = (
{
hints = (
{
horizontal = 1;
place = (0, 21);
target = up;
type = BottomGhost;
},
{
horizontal = 1;
place = (534, -20);
target = down;
type = TopGhost;
},
{
horizontal = 1;
place = (571, 125);
place = (571, 125);
type = Stem;
},
{
place = (54, 180);
place = (54, 180);
type = Stem;
}
);
layerId = m01;
shapes = (
{
closed = 1;
nodes = (
(213,571,l),
(122,696,l),
(-38,696,l),
(117,571,l)
);
},
{
closed = 1;
nodes = (
(234,0,l),
(234,534,l),
(54,534,l),
(54,0,l)
);
}
);
width = 288;
}
);
note = igrave;
unicode = 236;
},
{
glyphname = ij;
kernLeft = i;
lastChange = "2022-11-29 10:01:14 +0000";
layers = (
{
hints = (
{
horizontal = 1;
place = (-210, 125);
place = (-210, 125);
type = Stem;
},
{
horizontal = 1;
place = (0, 21);
target = up;
type = BottomGhost;
},
{
horizontal = 1;
place = (534, -20);
target = down;
type = TopGhost;
},
{
horizontal = 1;
place = (575, 176);
place = (575, 176);
type = Stem;
},
{
place = (51, 186);
place = (51, 186);
type = Stem;
},
{
place = (337, 186);
place = (337, 186);
type = Stem;
},
{
place = (54, 180);
place = (54, 180);
type = Stem;
},
{
place = (340, 180);
place = (340, 180);
type = Stem;
}
);
layerId = m01;
shapes = (
{
closed = 1;
nodes = (
(234,0,l),
(234,534,l),
(54,534,l),
(54,0,l)
);
},
{
closed = 1;
nodes = (
(520,534,l),
(340,534,l),
(340,15,ls),
(340,0,o),
(339,-19,o),
(338,-33,cs),
(333,-80,o),
(303,-91,o),
(238,-85,c),
(238,-206,l),
(256,-209,o),
(277,-210,o),
(298,-210,cs),
(453,-210,o),
(511,-148,o),
(518,-48,cs),
(519,-30,o),
(520,-4,o),
(520,16,cs)
);
},
{
closed = 1;
nodes = (
(55,574,l),
(237,574,l),
(237,753,l),
(55,753,l)
);
},
{
closed = 1;
nodes = (
(338,575,l),
(523,575,l),
(523,751,l),
(338,751,l)
);
}
);
width = 570;
}
);
note = ij;
unicode = 307;
},
{
glyphname = imacron;
kernLeft = i;
layers = (
{
hints = (
{
horizontal = 1;
place = (0, 21);
target = up;
type = BottomGhost;
},
{
horizontal = 1;
place = (534, -20);
target = down;
type = TopGhost;
},
{
horizontal = 1;
place = (586, 96);
place = (586, 96);
type = Stem;
},
{
place = (54, 180);
place = (54, 180);
type = Stem;
}
);
layerId = m01;
shapes = (
{
closed = 1;
nodes = (
(294,586,l),
(294,682,l),
(-6,682,l),
(-6,586,l)
);
},
{
closed = 1;
nodes = (
(234,0,l),
(234,534,l),
(54,534,l),
(54,0,l)
);
}
);
width = 288;
}
);
note = imacron;
unicode = 299;
},
{
glyphname = iogonek;
kernLeft = i;
layers = (
{
hints = (
{
horizontal = 1;
place = (-223, 102);
place = (-223, 102);
type = Stem;
},
{
horizontal = 1;
place = (0, 21);
target = up;
type = BottomGhost;
},
{
horizontal = 1;
place = (534, -20);
target = down;
type = TopGhost;
},
{
horizontal = 1;
place = (575, 176);
place = (575, 176);
type = Stem;
},
{
place = (51, 186);
place = (51, 186);
type = Stem;
},
{
place = (54, 180);
place = (54, 180);
type = Stem;
}
);
layerId = m01;
shapes = (
{
closed = 1;
nodes = (
(200,575,o),
(237,609,o),
(237,663,cs),
(237,717,o),
(200,751,o),
(144,751,cs),
(88,751,o),
(51,717,o),
(51,663,cs),
(51,609,o),
(88,575,o),
(144,575,cs)
);
},
{
closed = 1;
nodes = (
(54,534,l),
(54,5,l),
(9,-20,o),
(-32,-77,o),
(-32,-137,cs),
(-32,-201,o),
(16,-223,o),
(82,-223,cs),
(146,-223,o),
(188,-202,o),
(217,-173,c),
(217,-100,l),
(201,-115,o),
(187,-121,o),
(173,-121,cs),
(153,-121,o),
(132,-108,o),
(132,-70,cs),
(132,-32,o),
(152,0,o),
(177,0,cs),
(234,0,l),
(234,534,l)
);
}
);
width = 288;
}
);
note = iogonek;
unicode = 303;
},
{
glyphname = j;
lastChange = "2022-11-29 10:01:14 +0000";
layers = (
{
hints = (
{
horizontal = 1;
place = (-210, 125);
place = (-210, 125);
type = Stem;
},
{
horizontal = 1;
place = (534, -20);
target = down;
type = TopGhost;
},
{
horizontal = 1;
place = (575, 176);
place = (575, 176);
type = Stem;
},
{
place = (49, 186);
place = (49, 186);
type = Stem;
},
{
place = (52, 180);
place = (52, 180);
type = Stem;
}
);
layerId = m01;
shapes = (
{
closed = 1;
nodes = (
(232,534,l),
(52,534,l),
(52,15,ls),
(52,0,o),
(51,-19,o),
(50,-33,cs),
(45,-80,o),
(15,-91,o),
(-50,-85,c),
(-50,-206,l),
(-32,-209,o),
(-11,-210,o),
(10,-210,cs),
(165,-210,o),
(223,-148,o),
(230,-48,cs),
(231,-30,o),
(232,-4,o),
(232,16,cs)
);
},
{
closed = 1;
nodes = (
(52,575,l),
(232,575,l),
(232,750,l),
(52,750,l)
);
}
);
width = 282;
}
);
note = j;
unicode = 106;
},
{
glyphname = k;
kernRight = k;
layers = (
{
hints = (
{
horizontal = 1;
place = (0, 21);
target = up;
type = BottomGhost;
},
{
horizontal = 1;
place = (534, -20);
target = down;
type = TopGhost;
},
{
horizontal = 1;
place = (735, -20);
target = down;
type = TopGhost;
},
{
place = (54, 180);
place = (54, 180);
type = Stem;
}
);
layerId = m01;
shapes = (
{
closed = 1;
nodes = (
(272,198,l),
(415,0,l),
(636,0,l),
(407,289,l),
(633,534,l),
(422,534,l),
(234,310,l),
(234,735,l),
(54,735,l),
(54,0,l),
(234,0,l),
(234,156,l)
);
}
);
width = 632;
}
);
note = k;
unicode = 107;
},
{
glyphname = kcommaaccent;
kernRight = k;
layers = (
{
hints = (
{
horizontal = 1;
place = (-216, 179);
place = (-216, 179);
type = Stem;
},
{
horizontal = 1;
place = (0, 21);
target = up;
type = BottomGhost;
},
{
horizontal = 1;
place = (534, -20);
target = down;
type = TopGhost;
},
{
horizontal = 1;
place = (735, -20);
target = down;
type = TopGhost;
},
{
place = (54, 180);
place = (54, 180);
type = Stem;
}
);
layerId = m01;
shapes = (
{
closed = 1;
nodes = (
(636,0,l),
(407,289,l),
(633,534,l),
(422,534,l),
(234,310,l),
(234,735,l),
(54,735,l),
(54,0,l),
(234,0,l),
(234,156,l),
(272,198,l),
(415,0,l)
);
},
{
closed = 1;
nodes = (
(282,-37,l),
(198,-216,l),
(295,-216,l),
(396,-47,l),
(396,-37,l)
);
}
);
width = 632;
}
);
note = kcommaaccent;
unicode = 311;
},
{
glyphname = l;
kernRight = l;
layers = (
{
hints = (
{
horizontal = 1;
place = (-5, 21);
target = up;
type = BottomGhost;
},
{
horizontal = 1;
place = (735, -20);
target = down;
type = TopGhost;
},
{
place = (50, 180);
place = (50, 180);
type = Stem;
},
{
horizontal = 1;
place = (-10, 127);
place = (-10, 127);
type = Stem;
}
);
layerId = m01;
shapes = (
{
closed = 1;
nodes = (
(230,735,l),
(50,735,l),
(50,189,ls),
(50,149,o),
(50,122,o),
(52,94,cs),
(56,23,o),
(103,-10,o),
(186,-10,cs),
(226,-10,o),
(258,-8,o),
(291,-5,c),
(291,117,l),
(244,115,o),
(235,122,o),
(232,143,cs),
(230,156,o),
(230,167,o),
(230,192,cs)
);
}
);
width = 305;
}
);
note = l;
unicode = 108;
},
{
glyphname = lacute;
kernRight = l;
layers = (
{
hints = (
{
horizontal = 1;
place = (-5, 21);
target = up;
type = BottomGhost;
},
{
horizontal = 1;
place = (735, -20);
target = down;
type = TopGhost;
},
{
horizontal = 1;
place = (779, 125);
place = (779, 125);
type = Stem;
},
{
place = (50, 180);
place = (50, 180);
type = Stem;
},
{
horizontal = 1;
place = (-10, 127);
place = (-10, 127);
type = Stem;
}
);
layerId = m01;
shapes = (
{
closed = 1;
nodes = (
(175,779,l),
(330,904,l),
(170,904,l),
(79,779,l)
);
},
{
closed = 1;
nodes = (
(230,735,l),
(50,735,l),
(50,189,ls),
(50,149,o),
(50,122,o),
(52,94,cs),
(56,23,o),
(103,-10,o),
(186,-10,cs),
(226,-10,o),
(258,-8,o),
(291,-5,c),
(291,117,l),
(244,115,o),
(235,122,o),
(232,143,cs),
(230,156,o),
(230,167,o),
(230,192,cs)
);
}
);
width = 305;
}
);
note = lacute;
unicode = 314;
},
{
glyphname = lcaron;
kernRight = l;
layers = (
{
hints = (
{
horizontal = 1;
place = (-5, 21);
target = up;
type = BottomGhost;
},
{
horizontal = 1;
place = (735, -20);
target = down;
type = TopGhost;
},
{
place = (50, 180);
place = (50, 180);
type = Stem;
},
{
horizontal = 1;
place = (-10, 127);
place = (-10, 127);
type = Stem;
}
);
layerId = m01;
shapes = (
{
closed = 1;
nodes = (
(230,735,l),
(50,735,l),
(50,189,ls),
(50,149,o),
(50,122,o),
(52,94,cs),
(56,23,o),
(103,-10,o),
(186,-10,cs),
(226,-10,o),
(258,-8,o),
(291,-5,c),
(291,117,l),
(244,115,o),
(235,122,o),
(232,143,cs),
(230,156,o),
(230,167,o),
(230,192,cs)
);
}
);
width = 305;
}
);
note = lcaron;
unicode = 318;
},
{
glyphname = lcommaaccent;
kernRight = l;
layers = (
{
hints = (
{
horizontal = 1;
place = (-216, 179);
place = (-216, 179);
type = Stem;
},
{
horizontal = 1;
place = (-5, 21);
target = up;
type = BottomGhost;
},
{
horizontal = 1;
place = (735, -20);
target = down;
type = TopGhost;
},
{
place = (50, 180);
place = (50, 180);
type = Stem;
},
{
horizontal = 1;
place = (-10, 127);
place = (-10, 127);
type = Stem;
}
);
layerId = m01;
shapes = (
{
closed = 1;
nodes = (
(230,735,l),
(50,735,l),
(50,189,ls),
(50,149,o),
(50,122,o),
(52,94,cs),
(56,23,o),
(103,-10,o),
(186,-10,cs),
(226,-10,o),
(258,-8,o),
(291,-5,c),
(291,117,l),
(244,115,o),
(235,122,o),
(232,143,cs),
(230,156,o),
(230,167,o),
(230,192,cs)
);
},
{
closed = 1;
nodes = (
(236,-47,l),
(236,-37,l),
(122,-37,l),
(38,-216,l),
(135,-216,l)
);
}
);
width = 305;
}
);
note = lcommaaccent;
unicode = 316;
},
{
glyphname = ldot;
kernRight = l;
layers = (
{
hints = (
{
horizontal = 1;
place = (-5, 21);
target = up;
type = BottomGhost;
},
{
horizontal = 1;
place = (312, 176);
place = (312, 176);
type = Stem;
},
{
horizontal = 1;
place = (735, -20);
target = down;
type = TopGhost;
},
{
place = (50, 180);
place = (50, 180);
type = Stem;
},
{
horizontal = 1;
place = (-10, 127);
place = (-10, 127);
type = Stem;
},
{
place = (287, 186);
place = (287, 186);
type = Stem;
}
);
layerId = m01;
shapes = (
{
closed = 1;
nodes = (
(230,735,l),
(50,735,l),
(50,189,ls),
(50,149,o),
(50,122,o),
(52,94,cs),
(56,23,o),
(103,-10,o),
(186,-10,cs),
(226,-10,o),
(258,-8,o),
(291,-5,c),
(291,117,l),
(244,115,o),
(235,122,o),
(232,143,cs),
(230,156,o),
(230,167,o),
(230,192,cs)
);
},
{
closed = 1;
nodes = (
(326,488,o),
(287,452,o),
(287,400,cs),
(287,348,o),
(326,312,o),
(380,312,cs),
(434,312,o),
(473,348,o),
(473,400,cs),
(473,452,o),
(434,488,o),
(380,488,cs)
);
}
);
width = 480;
}
);
note = ldot;
unicode = 320;
},
{
glyphname = lslash;
layers = (
{
hints = (
{
horizontal = 1;
place = (-10, 127);
place = (-10, 127);
type = Stem;
},
{
horizontal = 1;
place = (735, -20);
target = down;
type = TopGhost;
},
{
place = (72, 180);
place = (72, 180);
type = Stem;
}
);
layerId = m01;
shapes = (
{
closed = 1;
nodes = (
(252,156,o),
(252,167,o),
(252,192,cs),
(252,320,l),
(312,358,l),
(312,477,l),
(252,439,l),
(252,735,l),
(72,735,l),
(72,325,l),
(12,287,l),
(12,168,l),
(72,206,l),
(72,189,ls),
(72,149,o),
(72,122,o),
(74,94,cs),
(78,23,o),
(125,-10,o),
(208,-10,cs),
(248,-10,o),
(280,-8,o),
(313,-5,c),
(313,117,l),
(266,115,o),
(257,122,o),
(254,143,cs)
);
}
);
width = 337;
}
);
note = lslash;
unicode = 322;
},
{
glyphname = m;
kernLeft = m;
layers = (
{
hints = (
{
horizontal = 1;
place = (0, 21);
target = up;
type = BottomGhost;
},
{
horizontal = 1;
place = (426, 108);
place = (426, 108);
type = Stem;
},
{
place = (54, 180);
place = (54, 180);
type = Stem;
},
{
place = (396, 180);
place = (396, 180);
type = Stem;
},
{
place = (738, 180);
place = (738, 180);
type = Stem;
},
{
horizontal = 1;
place = (426, 122);
place = (426, 122);
type = Stem;
}
);
layerId = m01;
shapes = (
{
closed = 1;
nodes = (
(901,486,o),
(841,548,o),
(734,548,cs),
(685,548,o),
(652,537,o),
(619,517,c),
(563,444,l),
(540,503,o),
(483,548,o),
(392,548,cs),
(343,548,o),
(310,537,o),
(277,517,c),
(234,448,l),
(234,534,l),
(54,534,l),
(54,0,l),
(234,0,l),
(234,282,ls),
(234,373,o),
(257,426,o),
(315,426,cs),
(362,426,o),
(386,396,o),
(392,345,cs),
(395,318,o),
(396,289,o),
(396,272,cs),
(396,0,l),
(576,0,l),
(576,282,ls),
(576,373,o),
(599,426,o),
(657,426,cs),
(704,426,o),
(728,396,o),
(734,345,cs),
(737,318,o),
(738,289,o),
(738,272,cs),
(738,0,l),
(918,0,l),
(918,312,ls),
(918,355,o),
(917,386,o),
(913,413,cs)
);
}
);
width = 966;
}
);
note = m;
unicode = 109;
},
{
glyphname = n;
kernLeft = m;
layers = (
{
hints = (
{
horizontal = 1;
place = (0, 21);
target = up;
type = BottomGhost;
},
{
horizontal = 1;
place = (426, 108);
place = (426, 108);
type = Stem;
},
{
place = (54, 180);
place = (54, 180);
type = Stem;
},
{
place = (416, 180);
place = (416, 180);
type = Stem;
},
{
horizontal = 1;
place = (426, 122);
place = (426, 122);
type = Stem;
}
);
layerId = m01;
shapes = (
{
closed = 1;
nodes = (
(577,496,o),
(512,548,o),
(402,548,cs),
(353,548,o),
(315,537,o),
(282,517,c),
(234,451,l),
(234,534,l),
(54,534,l),
(54,0,l),
(234,0,l),
(234,252,ls),
(234,373,o),
(273,426,o),
(328,426,cs),
(382,426,o),
(410,396,o),
(414,345,cs),
(416,318,o),
(416,289,o),
(416,272,cs),
(416,0,l),
(596,0,l),
(596,302,ls),
(596,345,o),
(595,376,o),
(591,403,cs)
);
}
);
width = 644;
}
);
note = n;
unicode = 110;
},
{
glyphname = nacute;
kernLeft = m;
layers = (
{
hints = (
{
horizontal = 1;
place = (0, 21);
target = up;
type = BottomGhost;
},
{
horizontal = 1;
place = (426, 108);
place = (426, 108);
type = Stem;
},
{
horizontal = 1;
place = (571, 125);
place = (571, 125);
type = Stem;
},
{
place = (54, 180);
place = (54, 180);
type = Stem;
},
{
place = (416, 180);
place = (416, 180);
type = Stem;
},
{
horizontal = 1;
place = (426, 122);
place = (426, 122);
type = Stem;
}
);
layerId = m01;
shapes = (
{
closed = 1;
nodes = (
(363,571,l),
(518,696,l),
(358,696,l),
(267,571,l)
);
},
{
closed = 1;
nodes = (
(577,496,o),
(512,548,o),
(402,548,cs),
(353,548,o),
(315,537,o),
(282,517,c),
(234,451,l),
(234,534,l),
(54,534,l),
(54,0,l),
(234,0,l),
(234,252,ls),
(234,373,o),
(273,426,o),
(328,426,cs),
(382,426,o),
(410,396,o),
(414,345,cs),
(416,318,o),
(416,289,o),
(416,272,cs),
(416,0,l),
(596,0,l),
(596,302,ls),
(596,345,o),
(595,376,o),
(591,403,cs)
);
}
);
width = 644;
}
);
note = nacute;
unicode = 324;
},
{
glyphname = ncaron;
kernLeft = m;
layers = (
{
hints = (
{
horizontal = 1;
place = (0, 21);
target = up;
type = BottomGhost;
},
{
horizontal = 1;
place = (426, 108);
place = (426, 108);
type = Stem;
},
{
horizontal = 1;
place = (571, 125);
place = (571, 125);
type = Stem;
},
{
place = (54, 180);
place = (54, 180);
type = Stem;
},
{
place = (416, 180);
place = (416, 180);
type = Stem;
},
{
horizontal = 1;
place = (426, 122);
place = (426, 122);
type = Stem;
}
);
layerId = m01;
shapes = (
{
closed = 1;
nodes = (
(247,571,l),
(396,571,l),
(458,696,l),
(355,696,l),
(323,620,l),
(289,696,l),
(185,696,l)
);
},
{
closed = 1;
nodes = (
(577,496,o),
(512,548,o),
(402,548,cs),
(353,548,o),
(315,537,o),
(282,517,c),
(234,451,l),
(234,534,l),
(54,534,l),
(54,0,l),
(234,0,l),
(234,252,ls),
(234,373,o),
(273,426,o),
(328,426,cs),
(382,426,o),
(410,396,o),
(414,345,cs),
(416,318,o),
(416,289,o),
(416,272,cs),
(416,0,l),
(596,0,l),
(596,302,ls),
(596,345,o),
(595,376,o),
(591,403,cs)
);
}
);
width = 644;
}
);
note = ncaron;
unicode = 328;
},
{
glyphname = ncommaaccent;
kernLeft = m;
layers = (
{
hints = (
{
horizontal = 1;
place = (-216, 179);
place = (-216, 179);
type = Stem;
},
{
horizontal = 1;
place = (0, 21);
target = up;
type = BottomGhost;
},
{
horizontal = 1;
place = (426, 108);
place = (426, 108);
type = Stem;
},
{
place = (54, 180);
place = (54, 180);
type = Stem;
},
{
place = (416, 180);
place = (416, 180);
type = Stem;
},
{
horizontal = 1;
place = (426, 122);
place = (426, 122);
type = Stem;
}
);
layerId = m01;
shapes = (
{
closed = 1;
nodes = (
(577,496,o),
(512,548,o),
(402,548,cs),
(353,548,o),
(315,537,o),
(282,517,c),
(234,451,l),
(234,534,l),
(54,534,l),
(54,0,l),
(234,0,l),
(234,252,ls),
(234,373,o),
(273,426,o),
(328,426,cs),
(382,426,o),
(410,396,o),
(414,345,cs),
(416,318,o),
(416,289,o),
(416,272,cs),
(416,0,l),
(596,0,l),
(596,302,ls),
(596,345,o),
(595,376,o),
(591,403,cs)
);
},
{
closed = 1;
nodes = (
(281,-37,l),
(197,-216,l),
(294,-216,l),
(395,-47,l),
(395,-37,l)
);
}
);
width = 644;
}
);
note = ncommaaccent;
unicode = 326;
},
{
glyphname = eng;
kernLeft = m;
layers = (
{
hints = (
{
horizontal = 1;
place = (-210, 132);
place = (-210, 132);
type = Stem;
},
{
horizontal = 1;
place = (0, 21);
target = up;
type = BottomGhost;
},
{
horizontal = 1;
place = (426, 108);
place = (426, 108);
type = Stem;
},
{
place = (54, 180);
place = (54, 180);
type = Stem;
},
{
place = (416, 180);
place = (416, 180);
type = Stem;
},
{
horizontal = 1;
place = (426, 122);
place = (426, 122);
type = Stem;
}
);
layerId = m01;
shapes = (
{
closed = 1;
nodes = (
(577,496,o),
(512,548,o),
(402,548,cs),
(353,548,o),
(315,537,o),
(282,517,c),
(234,451,l),
(234,534,l),
(54,534,l),
(54,0,l),
(234,0,l),
(234,252,ls),
(234,373,o),
(273,426,o),
(328,426,cs),
(382,426,o),
(410,396,o),
(414,345,cs),
(416,318,o),
(416,289,o),
(416,272,cs),
(416,-3,ls),
(416,-13,o),
(416,-26,o),
(415,-35,cs),
(411,-69,o),
(386,-78,o),
(341,-78,c),
(341,-210,l),
(537,-210,o),
(586,-163,o),
(595,-75,cs),
(596,-61,o),
(596,-52,o),
(596,-34,cs),
(596,302,ls),
(596,345,o),
(595,376,o),
(591,403,cs)
);
}
);
width = 644;
}
);
note = eng;
unicode = 331;
},
{
glyphname = ntilde;
kernLeft = m;
layers = (
{
hints = (
{
horizontal = 1;
place = (0, 21);
target = up;
type = BottomGhost;
},
{
horizontal = 1;
place = (426, 108);
place = (426, 108);
type = Stem;
},
{
horizontal = 1;
place = (574, 134);
place = (574, 134);
type = Stem;
},
{
place = (157, 96);
place = (157, 96);
type = Stem;
},
{
place = (416, 180);
place = (416, 180);
type = Stem;
},
{
horizontal = 1;
place = (571, 134);
place = (571, 134);
type = Stem;
},
{
place = (54, 180);
place = (54, 180);
type = Stem;
},
{
place = (389, 96);
place = (389, 96);
type = Stem;
},
{
horizontal = 1;
place = (571, 103);
place = (571, 103);
type = Stem;
},
{
horizontal = 1;
place = (426, 122);
place = (426, 122);
type = Stem;
}
);
layerId = m01;
shapes = (
{
closed = 1;
nodes = (
(276,605,o),
(289,600,o),
(313,590,cs),
(350,574,o),
(366,571,o),
(395,571,cs),
(457,571,o),
(485,612,o),
(485,705,c),
(389,705,l),
(389,683,o),
(385,674,o),
(374,674,cs),
(366,674,o),
(353,678,o),
(329,689,cs),
(293,705,o),
(276,708,o),
(247,708,cs),
(185,708,o),
(157,667,o),
(157,574,c),
(253,574,l),
(253,596,o),
(257,605,o),
(268,605,cs)
);
},
{
closed = 1;
nodes = (
(577,496,o),
(512,548,o),
(402,548,cs),
(353,548,o),
(315,537,o),
(282,517,c),
(234,451,l),
(234,534,l),
(54,534,l),
(54,0,l),
(234,0,l),
(234,252,ls),
(234,373,o),
(273,426,o),
(328,426,cs),
(382,426,o),
(410,396,o),
(414,345,cs),
(416,318,o),
(416,289,o),
(416,272,cs),
(416,0,l),
(596,0,l),
(596,302,ls),
(596,345,o),
(595,376,o),
(591,403,cs)
);
}
);
width = 644;
}
);
note = ntilde;
unicode = 241;
},
{
glyphname = o;
kernLeft = c;
kernRight = b;
layers = (
{
hints = (
{
horizontal = 1;
place = (-14, 122);
place = (-14, 122);
type = Stem;
},
{
horizontal = 1;
place = (426, 122);
place = (426, 122);
type = Stem;
},
{
place = (24, 184);
place = (24, 184);
type = Stem;
},
{
place = (414, 184);
place = (414, 184);
type = Stem;
}
);
layerId = m01;
shapes = (
{
closed = 1;
nodes = (
(136,548,o),
(24,439,o),
(24,267,cs),
(24,96,o),
(136,-14,o),
(311,-14,cs),
(486,-14,o),
(598,96,o),
(598,267,cs),
(598,439,o),
(486,548,o),
(311,548,cs)
);
},
{
closed = 1;
nodes = (
(247,108,o),
(208,161,o),
(208,267,cs),
(208,374,o),
(247,426,o),
(311,426,cs),
(375,426,o),
(414,374,o),
(414,267,cs),
(414,161,o),
(375,108,o),
(311,108,cs)
);
}
);
width = 622;
}
);
note = o;
unicode = 111;
},
{
glyphname = oacute;
kernLeft = c;
kernRight = b;
layers = (
{
hints = (
{
horizontal = 1;
place = (-14, 122);
place = (-14, 122);
type = Stem;
},
{
horizontal = 1;
place = (571, 125);
place = (571, 125);
type = Stem;
},
{
place = (24, 184);
place = (24, 184);
type = Stem;
},
{
place = (414, 184);
place = (414, 184);
type = Stem;
},
{
horizontal = 1;
place = (426, 122);
place = (426, 122);
type = Stem;
}
);
layerId = m01;
shapes = (
{
closed = 1;
nodes = (
(353,571,l),
(508,696,l),
(348,696,l),
(257,571,l)
);
},
{
closed = 1;
nodes = (
(136,548,o),
(24,439,o),
(24,267,cs),
(24,96,o),
(136,-14,o),
(311,-14,cs),
(486,-14,o),
(598,96,o),
(598,267,cs),
(598,439,o),
(486,548,o),
(311,548,cs)
);
},
{
closed = 1;
nodes = (
(247,108,o),
(208,161,o),
(208,267,cs),
(208,374,o),
(247,426,o),
(311,426,cs),
(375,426,o),
(414,374,o),
(414,267,cs),
(414,161,o),
(375,108,o),
(311,108,cs)
);
}
);
width = 622;
}
);
note = oacute;
unicode = 243;
},
{
glyphname = ocircumflex;
kernLeft = c;
kernRight = b;
layers = (
{
hints = (
{
horizontal = 1;
place = (-14, 122);
place = (-14, 122);
type = Stem;
},
{
horizontal = 1;
place = (571, 125);
place = (571, 125);
type = Stem;
},
{
place = (24, 184);
place = (24, 184);
type = Stem;
},
{
place = (414, 184);
place = (414, 184);
type = Stem;
},
{
horizontal = 1;
place = (647, 49);
place = (647, 49);
type = Stem;
},
{
horizontal = 1;
place = (426, 122);
place = (426, 122);
type = Stem;
}
);
layerId = m01;
shapes = (
{
closed = 1;
nodes = (
(278,571,l),
(310,647,l),
(344,571,l),
(448,571,l),
(386,696,l),
(237,696,l),
(175,571,l)
);
},
{
closed = 1;
nodes = (
(136,548,o),
(24,439,o),
(24,267,cs),
(24,96,o),
(136,-14,o),
(311,-14,cs),
(486,-14,o),
(598,96,o),
(598,267,cs),
(598,439,o),
(486,548,o),
(311,548,cs)
);
},
{
closed = 1;
nodes = (
(247,108,o),
(208,161,o),
(208,267,cs),
(208,374,o),
(247,426,o),
(311,426,cs),
(375,426,o),
(414,374,o),
(414,267,cs),
(414,161,o),
(375,108,o),
(311,108,cs)
);
}
);
width = 622;
}
);
note = ocircumflex;
unicode = 244;
},
{
glyphname = odieresis;
kernLeft = c;
kernRight = b;
lastChange = "2022-11-29 10:01:14 +0000";
layers = (
{
hints = (
{
horizontal = 1;
place = (-14, 122);
place = (-14, 122);
type = Stem;
},
{
horizontal = 1;
place = (426, 122);
place = (426, 122);
type = Stem;
},
{
horizontal = 1;
place = (569, 146);
place = (569, 146);
type = Stem;
},
{
place = (136, 150);
place = (136, 150);
type = Stem;
},
{
place = (336, 150);
place = (336, 150);
type = Stem;
},
{
place = (24, 184);
place = (24, 184);
type = Stem;
},
{
place = (414, 184);
place = (414, 184);
type = Stem;
}
);
layerId = m01;
shapes = (
{
closed = 1;
nodes = (
(136,548,o),
(24,439,o),
(24,267,cs),
(24,96,o),
(136,-14,o),
(311,-14,cs),
(486,-14,o),
(598,96,o),
(598,267,cs),
(598,439,o),
(486,548,o),
(311,548,cs)
);
},
{
closed = 1;
nodes = (
(247,108,o),
(208,161,o),
(208,267,cs),
(208,374,o),
(247,426,o),
(311,426,cs),
(375,426,o),
(414,374,o),
(414,267,cs),
(414,161,o),
(375,108,o),
(311,108,cs)
);
},
{
closed = 1;
nodes = (
(135,570,l),
(285,570,l),
(285,717,l),
(135,717,l)
);
},
{
closed = 1;
nodes = (
(336,570,l),
(486,570,l),
(486,717,l),
(336,717,l)
);
}
);
width = 622;
}
);
note = odieresis;
unicode = 246;
},
{
glyphname = ograve;
kernLeft = c;
kernRight = b;
layers = (
{
hints = (
{
horizontal = 1;
place = (-14, 122);
place = (-14, 122);
type = Stem;
},
{
horizontal = 1;
place = (571, 125);
place = (571, 125);
type = Stem;
},
{
place = (24, 184);
place = (24, 184);
type = Stem;
},
{
place = (414, 184);
place = (414, 184);
type = Stem;
},
{
horizontal = 1;
place = (426, 122);
place = (426, 122);
type = Stem;
}
);
layerId = m01;
shapes = (
{
closed = 1;
nodes = (
(284,571,l),
(380,571,l),
(289,696,l),
(129,696,l)
);
},
{
closed = 1;
nodes = (
(136,548,o),
(24,439,o),
(24,267,cs),
(24,96,o),
(136,-14,o),
(311,-14,cs),
(486,-14,o),
(598,96,o),
(598,267,cs),
(598,439,o),
(486,548,o),
(311,548,cs)
);
},
{
closed = 1;
nodes = (
(247,108,o),
(208,161,o),
(208,267,cs),
(208,374,o),
(247,426,o),
(311,426,cs),
(375,426,o),
(414,374,o),
(414,267,cs),
(414,161,o),
(375,108,o),
(311,108,cs)
);
}
);
width = 622;
}
);
note = ograve;
unicode = 242;
},
{
glyphname = ohungarumlaut;
kernLeft = c;
kernRight = b;
layers = (
{
hints = (
{
horizontal = 1;
place = (-14, 122);
place = (-14, 122);
type = Stem;
},
{
horizontal = 1;
place = (571, 125);
place = (571, 125);
type = Stem;
},
{
place = (24, 184);
place = (24, 184);
type = Stem;
},
{
place = (414, 184);
place = (414, 184);
type = Stem;
},
{
horizontal = 1;
place = (426, 122);
place = (426, 122);
type = Stem;
}
);
layerId = m01;
shapes = (
{
closed = 1;
nodes = (
(235,571,l),
(390,696,l),
(230,696,l),
(139,571,l)
);
},
{
closed = 1;
nodes = (
(330,571,l),
(426,571,l),
(581,696,l),
(421,696,l)
);
},
{
closed = 1;
nodes = (
(136,548,o),
(24,439,o),
(24,267,cs),
(24,96,o),
(136,-14,o),
(311,-14,cs),
(486,-14,o),
(598,96,o),
(598,267,cs),
(598,439,o),
(486,548,o),
(311,548,cs)
);
},
{
closed = 1;
nodes = (
(247,108,o),
(208,161,o),
(208,267,cs),
(208,374,o),
(247,426,o),
(311,426,cs),
(375,426,o),
(414,374,o),
(414,267,cs),
(414,161,o),
(375,108,o),
(311,108,cs)
);
}
);
width = 622;
}
);
note = ohungarumlaut;
unicode = 337;
},
{
glyphname = omacron;
kernLeft = c;
kernRight = b;
layers = (
{
hints = (
{
horizontal = 1;
place = (-14, 122);
place = (-14, 122);
type = Stem;
},
{
horizontal = 1;
place = (426, 122);
place = (426, 122);
type = Stem;
},
{
horizontal = 1;
place = (586, 96);
place = (586, 96);
type = Stem;
},
{
place = (161, 300);
place = (161, 300);
type = Stem;
},
{
place = (24, 184);
place = (24, 184);
type = Stem;
},
{
place = (414, 184);
place = (414, 184);
type = Stem;
}
);
layerId = m01;
shapes = (
{
closed = 1;
nodes = (
(461,586,l),
(461,682,l),
(161,682,l),
(161,586,l)
);
},
{
closed = 1;
nodes = (
(136,548,o),
(24,439,o),
(24,267,cs),
(24,96,o),
(136,-14,o),
(311,-14,cs),
(486,-14,o),
(598,96,o),
(598,267,cs),
(598,439,o),
(486,548,o),
(311,548,cs)
);
},
{
closed = 1;
nodes = (
(247,108,o),
(208,161,o),
(208,267,cs),
(208,374,o),
(247,426,o),
(311,426,cs),
(375,426,o),
(414,374,o),
(414,267,cs),
(414,161,o),
(375,108,o),
(311,108,cs)
);
}
);
width = 622;
}
);
note = omacron;
unicode = 333;
},
{
glyphname = oslash;
kernLeft = c;
kernRight = b;
layers = (
{
hints = (
{
horizontal = 1;
place = (-14, 122);
place = (-14, 122);
type = Stem;
},
{
horizontal = 1;
place = (426, 122);
place = (426, 122);
type = Stem;
},
{
place = (28, 184);
place = (28, 184);
type = Stem;
},
{
place = (418, 184);
place = (418, 184);
type = Stem;
}
);
layerId = m01;
shapes = (
{
closed = 1;
nodes = (
(618,495,l),
(547,566,l),
(484,503,l),
(439,532,o),
(381,548,o),
(315,548,cs),
(140,548,o),
(28,439,o),
(28,267,cs),
(28,200,o),
(45,142,o),
(77,96,c),
(20,39,l),
(91,-32,l),
(151,28,l),
(195,1,o),
(251,-14,o),
(315,-14,cs),
(490,-14,o),
(602,96,o),
(602,267,cs),
(602,332,o),
(586,389,o),
(556,433,c)
);
},
{
closed = 1;
nodes = (
(212,374,o),
(251,426,o),
(315,426,cs),
(341,426,o),
(363,417,o),
(380,399,c),
(214,233,l),
(213,243,o),
(212,255,o),
(212,267,cs)
);
},
{
closed = 1;
nodes = (
(418,161,o),
(379,108,o),
(315,108,cs),
(291,108,o),
(270,116,o),
(254,131,c),
(417,294,l),
(418,285,o),
(418,276,o),
(418,267,cs)
);
}
);
width = 638;
}
);
note = oslash;
unicode = 248;
},
{
glyphname = otilde;
kernLeft = c;
kernRight = b;
layers = (
{
hints = (
{
horizontal = 1;
place = (-14, 122);
place = (-14, 122);
type = Stem;
},
{
horizontal = 1;
place = (426, 122);
place = (426, 122);
type = Stem;
},
{
horizontal = 1;
place = (574, 134);
place = (574, 134);
type = Stem;
},
{
place = (147, 96);
place = (147, 96);
type = Stem;
},
{
place = (414, 184);
place = (414, 184);
type = Stem;
},
{
horizontal = 1;
place = (571, 134);
place = (571, 134);
type = Stem;
},
{
place = (24, 184);
place = (24, 184);
type = Stem;
},
{
place = (379, 96);
place = (379, 96);
type = Stem;
},
{
horizontal = 1;
place = (571, 103);
place = (571, 103);
type = Stem;
}
);
layerId = m01;
shapes = (
{
closed = 1;
nodes = (
(266,605,o),
(279,600,o),
(303,590,cs),
(340,574,o),
(356,571,o),
(385,571,cs),
(447,571,o),
(475,612,o),
(475,705,c),
(379,705,l),
(379,683,o),
(375,674,o),
(364,674,cs),
(356,674,o),
(343,678,o),
(319,689,cs),
(283,705,o),
(266,708,o),
(237,708,cs),
(175,708,o),
(147,667,o),
(147,574,c),
(243,574,l),
(243,596,o),
(247,605,o),
(258,605,cs)
);
},
{
closed = 1;
nodes = (
(136,548,o),
(24,439,o),
(24,267,cs),
(24,96,o),
(136,-14,o),
(311,-14,cs),
(486,-14,o),
(598,96,o),
(598,267,cs),
(598,439,o),
(486,548,o),
(311,548,cs)
);
},
{
closed = 1;
nodes = (
(247,108,o),
(208,161,o),
(208,267,cs),
(208,374,o),
(247,426,o),
(311,426,cs),
(375,426,o),
(414,374,o),
(414,267,cs),
(414,161,o),
(375,108,o),
(311,108,cs)
);
}
);
width = 622;
}
);
note = otilde;
unicode = 245;
},
{
glyphname = oe;
kernLeft = c;
kernRight = ae;
layers = (
{
hints = (
{
horizontal = 1;
place = (-14, 122);
place = (-14, 122);
type = Stem;
},
{
horizontal = 1;
place = (222, 110);
place = (222, 110);
type = Stem;
},
{
horizontal = 1;
place = (426, 122);
place = (426, 122);
type = Stem;
},
{
place = (24, 184);
place = (24, 184);
type = Stem;
},
{
place = (414, 178);
place = (414, 178);
type = Stem;
}
);
layerId = m01;
shapes = (
{
closed = 1;
nodes = (
(967,412,o),
(877,548,o),
(708,548,cs),
(625,548,o),
(554,517,o),
(508,447,c),
(461,518,o),
(389,548,o),
(311,548,cs),
(136,548,o),
(24,439,o),
(24,267,cs),
(24,96,o),
(136,-14,o),
(311,-14,cs),
(387,-14,o),
(457,13,o),
(503,79,c),
(550,11,o),
(620,-14,o),
(694,-14,cs),
(826,-14,o),
(926,54,o),
(957,175,c),
(780,175,l),
(773,134,o),
(742,108,o),
(691,108,cs),
(640,108,o),
(601,133,o),
(592,222,c),
(964,222,l),
(966,240,o),
(967,258,o),
(967,274,cs)
);
},
{
closed = 1;
nodes = (
(247,108,o),
(208,161,o),
(208,267,cs),
(208,374,o),
(247,426,o),
(311,426,cs),
(375,426,o),
(414,374,o),
(414,267,cs),
(414,161,o),
(375,108,o),
(311,108,cs)
);
},
{
closed = 1;
nodes = (
(598,332,l),
(611,397,o),
(644,426,o),
(690,426,cs),
(739,426,o),
(770,394,o),
(779,332,c)
);
}
);
width = 991;
}
);
note = oe;
unicode = 339;
},
{
glyphname = p;
kernLeft = m;
kernRight = b;
layers = (
{
hints = (
{
horizontal = 1;
place = (-14, 122);
place = (-14, 122);
type = Stem;
},
{
horizontal = 1;
place = (426, 122);
place = (426, 122);
type = Stem;
},
{
place = (54, 180);
place = (54, 180);
type = Stem;
},
{
place = (461, 184);
place = (461, 184);
type = Stem;
},
{
horizontal = 1;
place = (426, 108);
place = (426, 108);
type = Stem;
}
);
layerId = m01;
shapes = (
{
closed = 1;
nodes = (
(356,548,o),
(304,537,o),
(274,515,c),
(234,456,l),
(234,534,l),
(54,534,l),
(54,-196,l),
(234,-196,l),
(234,69,l),
(269,12,l),
(296,-4,o),
(348,-14,o),
(392,-14,cs),
(529,-14,o),
(645,89,o),
(645,279,cs),
(645,437,o),
(555,548,o),
(410,548,cs)
);
},
{
closed = 1;
nodes = (
(289,108,o),
(234,144,o),
(234,251,cs),
(234,274,ls),
(234,386,o),
(282,426,o),
(348,426,cs),
(411,426,o),
(461,370,o),
(461,270,cs),
(461,161,o),
(413,108,o),
(343,108,cs)
);
}
);
width = 669;
}
);
note = p;
unicode = 112;
},
{
glyphname = thorn;
kernRight = b;
layers = (
{
hints = (
{
horizontal = 1;
place = (-14, 122);
place = (-14, 122);
type = Stem;
},
{
horizontal = 1;
place = (426, 122);
place = (426, 122);
type = Stem;
},
{
horizontal = 1;
place = (735, -20);
target = down;
type = TopGhost;
},
{
place = (54, 180);
place = (54, 180);
type = Stem;
},
{
place = (461, 184);
place = (461, 184);
type = Stem;
}
);
layerId = m01;
shapes = (
{
closed = 1;
nodes = (
(356,548,o),
(304,537,o),
(274,515,c),
(234,456,l),
(234,735,l),
(54,735,l),
(54,-196,l),
(234,-196,l),
(234,69,l),
(269,12,l),
(296,-4,o),
(348,-14,o),
(392,-14,cs),
(529,-14,o),
(645,89,o),
(645,279,cs),
(645,437,o),
(555,548,o),
(410,548,cs)
);
},
{
closed = 1;
nodes = (
(289,108,o),
(234,144,o),
(234,251,cs),
(234,274,ls),
(234,386,o),
(282,426,o),
(348,426,cs),
(411,426,o),
(461,370,o),
(461,270,cs),
(461,161,o),
(413,108,o),
(343,108,cs)
);
}
);
width = 669;
}
);
note = thorn;
unicode = 254;
},
{
glyphname = q;
kernLeft = c;
layers = (
{
hints = (
{
horizontal = 1;
place = (-14, 122);
place = (-14, 122);
type = Stem;
},
{
horizontal = 1;
place = (426, 108);
place = (426, 108);
type = Stem;
},
{
place = (24, 184);
place = (24, 184);
type = Stem;
},
{
place = (435, 180);
place = (435, 180);
type = Stem;
},
{
horizontal = 1;
place = (426, 122);
place = (426, 122);
type = Stem;
}
);
layerId = m01;
shapes = (
{
closed = 1;
nodes = (
(615,534,l),
(435,534,l),
(435,465,l),
(400,522,l),
(373,538,o),
(321,548,o),
(277,548,cs),
(140,548,o),
(24,445,o),
(24,255,cs),
(24,97,o),
(114,-14,o),
(259,-14,cs),
(313,-14,o),
(365,-3,o),
(395,19,c),
(435,78,l),
(435,-196,l),
(615,-196,l)
);
},
{
closed = 1;
nodes = (
(258,108,o),
(208,164,o),
(208,264,cs),
(208,373,o),
(256,426,o),
(326,426,cs),
(380,426,o),
(435,390,o),
(435,283,cs),
(435,260,ls),
(435,148,o),
(387,108,o),
(321,108,cs)
);
}
);
width = 669;
}
);
note = q;
unicode = 113;
},
{
glyphname = r;
kernLeft = m;
layers = (
{
hints = (
{
horizontal = 1;
place = (0, 21);
target = up;
type = BottomGhost;
},
{
horizontal = 1;
place = (548, -20);
target = down;
type = TopGhost;
},
{
place = (54, 180);
place = (54, 180);
type = Stem;
},
{
horizontal = 1;
place = (534, -20);
target = down;
type = TopGhost;
},
{
horizontal = 1;
place = (545, -20);
target = down;
type = TopGhost;
}
);
layerId = m01;
shapes = (
{
closed = 1;
nodes = (
(343,548,o),
(301,533,o),
(272,501,c),
(234,426,l),
(234,534,l),
(54,534,l),
(54,0,l),
(234,0,l),
(234,196,ls),
(234,357,o),
(283,407,o),
(418,398,c),
(418,545,l),
(405,547,o),
(394,548,o),
(377,548,cs)
);
}
);
width = 420;
}
);
note = r;
unicode = 114;
},
{
glyphname = racute;
kernLeft = m;
layers = (
{
hints = (
{
horizontal = 1;
place = (0, 21);
target = up;
type = BottomGhost;
},
{
horizontal = 1;
place = (534, -20);
target = down;
type = TopGhost;
},
{
horizontal = 1;
place = (571, 125);
place = (571, 125);
type = Stem;
},
{
place = (54, 180);
place = (54, 180);
type = Stem;
},
{
horizontal = 1;
place = (548, -20);
target = down;
type = TopGhost;
},
{
horizontal = 1;
place = (545, -20);
target = down;
type = TopGhost;
}
);
layerId = m01;
shapes = (
{
closed = 1;
nodes = (
(255,571,l),
(410,696,l),
(250,696,l),
(159,571,l)
);
},
{
closed = 1;
nodes = (
(343,548,o),
(301,533,o),
(272,501,c),
(234,426,l),
(234,534,l),
(54,534,l),
(54,0,l),
(234,0,l),
(234,196,ls),
(234,357,o),
(283,407,o),
(418,398,c),
(418,545,l),
(405,547,o),
(394,548,o),
(377,548,cs)
);
}
);
width = 420;
}
);
note = racute;
unicode = 341;
},
{
glyphname = rcaron;
kernLeft = m;
layers = (
{
hints = (
{
horizontal = 1;
place = (0, 21);
target = up;
type = BottomGhost;
},
{
horizontal = 1;
place = (534, -20);
target = down;
type = TopGhost;
},
{
horizontal = 1;
place = (571, 125);
place = (571, 125);
type = Stem;
},
{
place = (54, 180);
place = (54, 180);
type = Stem;
},
{
horizontal = 1;
place = (548, -20);
target = down;
type = TopGhost;
},
{
horizontal = 1;
place = (545, -20);
target = down;
type = TopGhost;
}
);
layerId = m01;
shapes = (
{
closed = 1;
nodes = (
(139,571,l),
(288,571,l),
(350,696,l),
(247,696,l),
(215,620,l),
(181,696,l),
(77,696,l)
);
},
{
closed = 1;
nodes = (
(343,548,o),
(301,533,o),
(272,501,c),
(234,426,l),
(234,534,l),
(54,534,l),
(54,0,l),
(234,0,l),
(234,196,ls),
(234,357,o),
(283,407,o),
(418,398,c),
(418,545,l),
(405,547,o),
(394,548,o),
(377,548,cs)
);
}
);
width = 420;
}
);
note = rcaron;
unicode = 345;
},
{
glyphname = rcommaaccent;
kernLeft = m;
layers = (
{
hints = (
{
horizontal = 1;
place = (-216, 179);
place = (-216, 179);
type = Stem;
},
{
horizontal = 1;
place = (0, 21);
target = up;
type = BottomGhost;
},
{
horizontal = 1;
place = (548, -20);
target = down;
type = TopGhost;
},
{
place = (54, 180);
place = (54, 180);
type = Stem;
},
{
horizontal = 1;
place = (534, -20);
target = down;
type = TopGhost;
},
{
horizontal = 1;
place = (545, -20);
target = down;
type = TopGhost;
}
);
layerId = m01;
shapes = (
{
closed = 1;
nodes = (
(343,548,o),
(301,533,o),
(272,501,c),
(234,426,l),
(234,534,l),
(54,534,l),
(54,0,l),
(234,0,l),
(234,196,ls),
(234,357,o),
(283,407,o),
(418,398,c),
(418,545,l),
(405,547,o),
(394,548,o),
(377,548,cs)
);
},
{
closed = 1;
nodes = (
(104,-37,l),
(20,-216,l),
(117,-216,l),
(218,-47,l),
(218,-37,l)
);
}
);
width = 420;
}
);
note = rcommaaccent;
unicode = 343;
},
{
glyphname = s;
layers = (
{
hints = (
{
horizontal = 1;
place = (-14, 112);
place = (-14, 112);
type = Stem;
},
{
horizontal = 1;
place = (378, 170);
place = (378, 170);
type = Stem;
},
{
place = (40, 180);
place = (40, 180);
type = Stem;
},
{
place = (332, 180);
place = (332, 180);
type = Stem;
},
{
horizontal = 1;
place = (-14, 180);
place = (-14, 180);
type = Stem;
},
{
horizontal = 1;
place = (436, 112);
place = (436, 112);
type = Stem;
}
);
layerId = m01;
shapes = (
{
closed = 1;
nodes = (
(132,548,o),
(40,482,o),
(40,376,cs),
(40,285,o),
(101,238,o),
(203,214,cs),
(298,192,o),
(332,173,o),
(332,139,cs),
(332,111,o),
(307,98,o),
(275,98,cs),
(237,98,o),
(205,125,o),
(195,166,c),
(18,166,l),
(32,46,o),
(131,-14,o),
(276,-14,cs),
(405,-14,o),
(512,39,o),
(512,153,cs),
(512,256,o),
(443,298,o),
(346,322,cs),
(244,347,o),
(220,367,o),
(220,397,cs),
(220,420,o),
(238,436,o),
(263,436,cs),
(295,436,o),
(313,415,o),
(321,378,c),
(498,378,l),
(484,475,o),
(407,548,o),
(274,548,cs)
);
}
);
width = 528;
}
);
note = s;
unicode = 115;
},
{
glyphname = sacute;
layers = (
{
hints = (
{
horizontal = 1;
place = (-14, 112);
place = (-14, 112);
type = Stem;
},
{
horizontal = 1;
place = (571, 125);
place = (571, 125);
type = Stem;
},
{
place = (40, 180);
place = (40, 180);
type = Stem;
},
{
place = (332, 180);
place = (332, 180);
type = Stem;
},
{
horizontal = 1;
place = (378, 170);
place = (378, 170);
type = Stem;
},
{
horizontal = 1;
place = (-14, 180);
place = (-14, 180);
type = Stem;
},
{
horizontal = 1;
place = (436, 112);
place = (436, 112);
type = Stem;
}
);
layerId = m01;
shapes = (
{
closed = 1;
nodes = (
(311,571,l),
(466,696,l),
(306,696,l),
(215,571,l)
);
},
{
closed = 1;
nodes = (
(132,548,o),
(40,482,o),
(40,376,cs),
(40,285,o),
(101,238,o),
(203,214,cs),
(298,192,o),
(332,173,o),
(332,139,cs),
(332,111,o),
(307,98,o),
(275,98,cs),
(237,98,o),
(205,125,o),
(195,166,c),
(18,166,l),
(32,46,o),
(131,-14,o),
(276,-14,cs),
(405,-14,o),
(512,39,o),
(512,153,cs),
(512,256,o),
(443,298,o),
(346,322,cs),
(244,347,o),
(220,367,o),
(220,397,cs),
(220,420,o),
(238,436,o),
(263,436,cs),
(295,436,o),
(313,415,o),
(321,378,c),
(498,378,l),
(484,475,o),
(407,548,o),
(274,548,cs)
);
}
);
width = 528;
}
);
note = sacute;
unicode = 347;
},
{
glyphname = scaron;
layers = (
{
hints = (
{
horizontal = 1;
place = (-14, 112);
place = (-14, 112);
type = Stem;
},
{
horizontal = 1;
place = (571, 125);
place = (571, 125);
type = Stem;
},
{
place = (40, 180);
place = (40, 180);
type = Stem;
},
{
place = (332, 180);
place = (332, 180);
type = Stem;
},
{
horizontal = 1;
place = (436, 112);
place = (436, 112);
type = Stem;
},
{
horizontal = 1;
place = (378, 170);
place = (378, 170);
type = Stem;
},
{
horizontal = 1;
place = (-14, 180);
place = (-14, 180);
type = Stem;
}
);
layerId = m01;
shapes = (
{
closed = 1;
nodes = (
(195,571,l),
(344,571,l),
(406,696,l),
(303,696,l),
(271,620,l),
(237,696,l),
(133,696,l)
);
},
{
closed = 1;
nodes = (
(244,347,o),
(220,367,o),
(220,397,cs),
(220,420,o),
(238,436,o),
(263,436,cs),
(295,436,o),
(313,415,o),
(321,378,c),
(498,378,l),
(484,475,o),
(407,548,o),
(274,548,cs),
(132,548,o),
(40,482,o),
(40,376,cs),
(40,285,o),
(101,238,o),
(203,214,cs),
(298,192,o),
(332,173,o),
(332,139,cs),
(332,111,o),
(307,98,o),
(275,98,cs),
(237,98,o),
(205,125,o),
(195,166,c),
(18,166,l),
(32,46,o),
(131,-14,o),
(276,-14,cs),
(405,-14,o),
(512,39,o),
(512,153,cs),
(512,256,o),
(443,298,o),
(346,322,cs)
);
}
);
width = 528;
}
);
note = scaron;
unicode = 353;
},
{
glyphname = scedilla;
layers = (
{
hints = (
{
horizontal = 1;
place = (-210, 69);
place = (-210, 69);
type = Stem;
},
{
horizontal = 1;
place = (-10, 21);
target = up;
type = BottomGhost;
},
{
horizontal = 1;
place = (378, 170);
place = (378, 170);
type = Stem;
},
{
place = (40, 180);
place = (40, 180);
type = Stem;
},
{
place = (332, 180);
place = (332, 180);
type = Stem;
},
{
horizontal = 1;
place = (436, 112);
place = (436, 112);
type = Stem;
},
{
horizontal = 1;
place = (-88, 254);
place = (-88, 254);
type = Stem;
},
{
place = (275, 108);
place = (275, 108);
type = Stem;
}
);
layerId = m01;
shapes = (
{
closed = 1;
nodes = (
(512,256,o),
(443,298,o),
(346,322,cs),
(244,347,o),
(220,367,o),
(220,397,cs),
(220,420,o),
(238,436,o),
(263,436,cs),
(295,436,o),
(313,415,o),
(321,378,c),
(498,378,l),
(484,475,o),
(407,548,o),
(274,548,cs),
(132,548,o),
(40,482,o),
(40,376,cs),
(40,285,o),
(101,238,o),
(203,214,cs),
(298,192,o),
(332,173,o),
(332,139,cs),
(332,111,o),
(307,98,o),
(275,98,cs),
(237,98,o),
(205,125,o),
(195,166,c),
(18,166,l),
(30,63,o),
(104,5,o),
(216,-10,c),
(178,-88,l),
(253,-83,o),
(275,-94,o),
(275,-114,cs),
(275,-132,o),
(258,-141,o),
(215,-141,cs),
(202,-141,o),
(182,-140,o),
(157,-134,c),
(157,-204,l),
(176,-209,o),
(194,-210,o),
(214,-210,cs),
(306,-210,o),
(383,-188,o),
(383,-119,cs),
(383,-74,o),
(351,-49,o),
(288,-42,c),
(302,-13,l),
(419,-7,o),
(512,47,o),
(512,153,cs)
);
}
);
width = 528;
}
);
note = scedilla;
unicode = 351;
},
{
glyphname = scommaaccent;
layers = (
{
hints = (
{
horizontal = 1;
place = (-14, 112);
place = (-14, 112);
type = Stem;
},
{
horizontal = 1;
place = (378, 170);
place = (378, 170);
type = Stem;
},
{
place = (40, 180);
place = (40, 180);
type = Stem;
},
{
place = (332, 180);
place = (332, 180);
type = Stem;
},
{
horizontal = 1;
place = (-14, 180);
place = (-14, 180);
type = Stem;
},
{
horizontal = 1;
place = (436, 112);
place = (436, 112);
type = Stem;
},
{
horizontal = 1;
place = (-216, 179);
place = (-216, 179);
type = Stem;
}
);
layerId = m01;
shapes = (
{
closed = 1;
nodes = (
(132,548,o),
(40,482,o),
(40,376,cs),
(40,285,o),
(101,238,o),
(203,214,cs),
(298,192,o),
(332,173,o),
(332,139,cs),
(332,111,o),
(307,98,o),
(275,98,cs),
(237,98,o),
(205,125,o),
(195,166,c),
(18,166,l),
(32,46,o),
(131,-14,o),
(276,-14,cs),
(405,-14,o),
(512,39,o),
(512,153,cs),
(512,256,o),
(443,298,o),
(346,322,cs),
(244,347,o),
(220,367,o),
(220,397,cs),
(220,420,o),
(238,436,o),
(263,436,cs),
(295,436,o),
(313,415,o),
(321,378,c),
(498,378,l),
(484,475,o),
(407,548,o),
(274,548,cs)
);
},
{
closed = 1;
nodes = (
(343,-47,l),
(343,-37,l),
(229,-37,l),
(145,-216,l),
(242,-216,l)
);
}
);
width = 528;
}
);
note = scommaaccent;
unicode = 537;
},
{
glyphname = germandbls;
layers = (
{
hints = (
{
horizontal = 1;
place = (0, 21);
target = up;
type = BottomGhost;
},
{
horizontal = 1;
place = (622, 132);
place = (622, 132);
type = Stem;
},
{
place = (54, 180);
place = (54, 180);
type = Stem;
},
{
place = (413, 188);
place = (413, 188);
type = Stem;
},
{
place = (332, 188);
place = (332, 188);
type = Stem;
},
{
horizontal = 1;
place = (-4, 132);
place = (-4, 132);
type = Stem;
},
{
place = (452, 188);
place = (452, 188);
type = Stem;
}
);
layerId = m01;
shapes = (
{
closed = 1;
nodes = (
(166,754,o),
(65,671,o),
(56,534,cs),
(55,516,o),
(54,490,o),
(54,430,cs),
(54,0,l),
(234,0,l),
(234,438,ls),
(234,499,o),
(235,518,o),
(236,532,cs),
(240,588,o),
(270,622,o),
(329,622,cs),
(386,622,o),
(413,599,o),
(413,558,cs),
(413,542,o),
(410,527,o),
(400,514,c),
(353,484,o),
(332,448,o),
(332,398,cs),
(332,341,o),
(356,311,o),
(408,257,cs),
(438,226,o),
(452,202,o),
(452,175,cs),
(452,145,o),
(432,128,o),
(396,128,cs),
(374,128,o),
(346,130,o),
(302,141,c),
(302,6,l),
(341,-2,o),
(367,-4,o),
(440,-4,cs),
(543,-4,o),
(640,46,o),
(640,152,cs),
(640,228,o),
(620,257,o),
(568,312,cs),
(535,347,o),
(520,371,o),
(520,398,cs),
(520,430,o),
(535,453,o),
(575,476,c),
(592,501,o),
(601,525,o),
(601,560,cs),
(601,675,o),
(504,754,o),
(335,754,cs)
);
}
);
width = 666;
}
);
note = germandbls;
unicode = 223;
},
{
glyphname = t;
kernLeft = t;
kernRight = t;
layers = (
{
hints = (
{
horizontal = 1;
place = (-5, 21);
target = up;
type = BottomGhost;
},
{
horizontal = 1;
place = (418, 112);
place = (418, 112);
type = Stem;
},
{
place = (90, 180);
place = (90, 180);
type = Stem;
},
{
horizontal = 1;
place = (-14, 121);
place = (-14, 121);
type = Stem;
}
);
layerId = m01;
shapes = (
{
closed = 1;
nodes = (
(270,418,l),
(388,418,l),
(388,530,l),
(270,530,l),
(270,668,l),
(90,668,l),
(90,530,l),
(5,530,l),
(5,418,l),
(90,418,l),
(90,195,ls),
(90,165,o),
(90,140,o),
(92,109,cs),
(98,27,o),
(138,-14,o),
(271,-14,cs),
(309,-14,o),
(342,-11,o),
(377,-5,c),
(377,107,l),
(292,103,o),
(275,115,o),
(271,169,cs),
(270,183,o),
(270,203,o),
(270,221,cs)
);
}
);
width = 400;
}
);
note = t;
unicode = 116;
},
{
glyphname = tbar;
kernLeft = t;
kernRight = t;
layers = (
{
hints = (
{
horizontal = 1;
place = (-5, 21);
target = up;
type = BottomGhost;
},
{
horizontal = 1;
place = (248, 96);
place = (248, 96);
type = Stem;
},
{
horizontal = 1;
place = (418, 112);
place = (418, 112);
type = Stem;
},
{
place = (90, 180);
place = (90, 180);
type = Stem;
},
{
horizontal = 1;
place = (-14, 121);
place = (-14, 121);
type = Stem;
}
);
layerId = m01;
shapes = (
{
closed = 1;
nodes = (
(270,418,l),
(388,418,l),
(388,530,l),
(270,530,l),
(270,668,l),
(90,668,l),
(90,530,l),
(5,530,l),
(5,418,l),
(90,418,l),
(90,344,l),
(36,344,l),
(36,248,l),
(90,248,l),
(90,195,ls),
(90,165,o),
(90,140,o),
(92,109,cs),
(98,27,o),
(138,-14,o),
(271,-14,cs),
(309,-14,o),
(342,-11,o),
(377,-5,c),
(377,107,l),
(292,103,o),
(275,115,o),
(271,169,cs),
(270,183,o),
(270,203,o),
(270,221,cs),
(270,248,l),
(336,248,l),
(336,344,l),
(270,344,l)
);
}
);
width = 400;
}
);
note = tbar;
unicode = 359;
},
{
glyphname = tcaron;
kernLeft = t;
layers = (
{
hints = (
{
horizontal = 1;
place = (-5, 21);
target = up;
type = BottomGhost;
},
{
horizontal = 1;
place = (556, 179);
place = (556, 179);
type = Stem;
},
{
place = (90, 180);
place = (90, 180);
type = Stem;
},
{
horizontal = 1;
place = (418, 112);
place = (418, 112);
type = Stem;
},
{
horizontal = 1;
place = (556, 112);
place = (556, 112);
type = Stem;
},
{
horizontal = 1;
place = (-14, 121);
place = (-14, 121);
type = Stem;
}
);
layerId = m01;
shapes = (
{
closed = 1;
nodes = (
(491,735,l),
(377,735,l),
(293,556,l),
(390,556,l),
(491,725,l)
);
},
{
closed = 1;
nodes = (
(270,530,l),
(270,668,l),
(90,668,l),
(90,530,l),
(5,530,l),
(5,418,l),
(90,418,l),
(90,195,ls),
(90,165,o),
(90,140,o),
(92,109,cs),
(98,27,o),
(138,-14,o),
(271,-14,cs),
(309,-14,o),
(342,-11,o),
(377,-5,c),
(377,107,l),
(292,103,o),
(275,115,o),
(271,169,cs),
(270,183,o),
(270,203,o),
(270,221,cs),
(270,418,l),
(388,418,l),
(388,530,l)
);
}
);
width = 395;
}
);
note = tcaron;
unicode = 357;
},
